<?xml version="1.0" encoding="UTF-8"?><svg id="a" xmlns="http://www.w3.org/2000/svg" width="150" height="150" viewBox="0 0 150 150"><path d="M104.913,126.734c-.249-.949-.849-1.075-1.8-.374-1.5,1.099-3.674,2.075-6.522,2.924s-6.123,1.274-9.822,1.274c-6.448,0-11.272-1.225-14.47-3.674-.249-.201-.575-.3-.974-.3-.549,0-1.2.3-1.95.9-.351.3-.538.699-.563,1.2s.162.999.563,1.5c1.699,1.599,3.886,2.749,6.559,3.448,2.673.699,5.237,1.013,7.685.937,2.449-.074,4.923-.187,7.422-.337,2.049-.201,4.161-.713,6.335-1.537s3.799-1.574,4.874-2.25,1.786-1.186,2.137-1.537c.6-.6.775-1.325.524-2.174h.002ZM101.992,118.112c-.949-2.349-1.925-3.873-2.924-4.574-1.149-.75-3.049-1.124-5.698-1.124-2.349,0-4.124.249-5.322.75-1.449.6-3.399,1.999-5.848,4.198-1.299,1.2-1.599,2.299-.9,3.298.45.399.886.512,1.311.337s1.212-.762,2.361-1.761c.15-.099.413-.312.787-.637s.637-.538.787-.637.399-.275.75-.524.637-.425.863-.524.538-.224.937-.374.775-.263,1.124-.337.762-.138,1.237-.187.988-.074,1.537-.074c1.35,0,2.462.187,3.337.563s1.449.736,1.724,1.087.612.9,1.013,1.65c.501.849.812,1.35.937,1.5s.436.125.937-.074c1.149-.6,1.5-1.449,1.05-2.548v-.009ZM128.606,97.046c0-1.099-.125-2.211-.374-3.337s-.662-2.25-1.237-3.374-1.424-2.038-2.548-2.737-2.437-1.05-3.935-1.05c-1.65,0-4.073,1.036-7.272,3.111s-6.423,4.161-9.672,6.259-5.772,3.148-7.572,3.148c-1.35.051-2.936-.425-4.761-1.424s-3.723-2.225-5.698-3.674c-1.973-1.449-4.062-2.899-6.259-4.348s-4.699-2.675-7.496-3.674-5.573-1.475-8.322-1.424c-5.749.051-10.672,2.012-14.77,5.885-4.099,3.873-6.197,8.334-6.298,13.383-.099,5.599,1.749,9.695,5.548,12.296,1.449.999,3.012,1.712,4.685,2.137s4.26.637,7.759.637c2.848,0,6.148-.812,9.896-2.437s7.097-3.399,10.046-5.322c2.949-1.925,5.947-3.686,8.996-5.285s5.373-2.375,6.972-2.324c1.299.051,2.924.838,4.874,2.361s3.736,3.199,5.361,5.022c1.625,1.823,3.323,3.51,5.098,5.061,1.775,1.549,3.162,2.349,4.161,2.4,1.749.15,3.21-.201,4.385-1.05s2.562-2.423,4.161-4.724c1.399-2.049,2.462-4.574,3.187-7.572s1.087-5.647,1.087-7.946l-.002.002ZM132.578,85.05c0,8.198-1.549,15.807-4.648,22.829-3.099,7.023-7.247,12.919-12.444,17.692-5.197,4.773-11.258,8.509-18.181,11.207-6.921,2.698-14.182,4.048-21.779,4.048s-14.918-1.438-21.966-4.311c-7.048-2.873-13.233-6.797-18.555-11.77s-9.585-11.009-12.783-18.105c-3.199-7.097-4.798-14.643-4.798-22.64,0-4.447.487-8.758,1.461-12.933s2.199-7.81,3.674-10.909,3.236-6.06,5.285-8.883c2.049-2.825,4.011-5.172,5.885-7.048s3.836-3.612,5.885-5.211c2.049-1.599,3.66-2.763,4.835-3.487s2.236-1.336,3.187-1.837c.699-.399,1.973-1.062,3.824-1.987s3.21-1.636,4.085-2.137,2.075-1.249,3.598-2.25c1.525-.999,3.037-2.1,4.535-3.298,1.8-1.399,3.249-3.21,4.348-5.435s1.849-5.361,2.25-9.409c6.448,7.748,11.096,12.571,13.944,14.47,2.199,1.449,5.449,3.148,9.746,5.098s7.521,3.598,9.672,4.948c1.05.651,2.024,1.274,2.924,1.874s2.412,1.761,4.535,3.487,4.023,3.487,5.698,5.285,3.549,4.173,5.622,7.122,3.799,5.998,5.172,9.146,2.548,6.859,3.524,11.133,1.461,8.71,1.461,13.307l.005.005Z" fill="#008ac9" stroke-width="0"/></svg>