<?xml version="1.0" encoding="UTF-8"?><svg id="a" xmlns="http://www.w3.org/2000/svg" width="150" height="150" viewBox="0 0 150 150"><path d="M128.449,35.768c0-7.8-6.323-14.124-14.124-14.124-7.122,0-13.01,5.273-13.98,12.127-.091-.048-.143-.075-.143-.075-11.55-5.21-21.28,4.017-21.28,4.017l-25.735,25.862,10.169,9.793,20.714-20.35c9.673-9.673,14.94-3.126,14.94-3.126,7.282,6.151.251,13.433.251,13.433l10.42,10.043c8.509-9.19,9.002-17.211,6.416-23.591,6.963-.872,12.352-6.809,12.352-14.009" fill="#f9ae41" stroke-width="0"/><path d="M116.228,100.722c.048-.09.075-.143.075-.143,5.21-11.551-4.017-21.28-4.017-21.28l-25.862-25.736-9.792,10.169,20.35,20.714c9.673,9.673,3.126,14.94,3.126,14.94-6.151,7.282-13.433.251-13.433.251l-10.043,10.42c9.19,8.509,17.211,9.002,23.591,6.416.872,6.964,6.809,12.353,14.009,12.353,7.8,0,14.123-6.323,14.123-14.124,0-7.122-5.272-13.01-12.127-13.98" fill="#ee4035" stroke-width="0"/><path d="M86.644,76.632l-20.714,20.35c-9.673,9.674-14.94,3.127-14.94,3.127-7.282-6.152-.251-13.433-.251-13.433l-10.42-10.043c-8.509,9.19-9.002,17.21-6.416,23.591-6.964.872-12.352,6.809-12.352,14.009,0,7.8,6.323,14.123,14.124,14.123,7.122,0,13.01-5.272,13.98-12.126.091.048.143.075.143.075,11.551,5.21,21.28-4.017,21.28-4.017l25.736-25.862-10.169-9.792" fill="#4f91cd" stroke-width="0"/><path d="M53.018,65.553c-9.673-9.673-3.127-14.94-3.127-14.94,6.152-7.282,13.433-.251,13.433-.251l10.043-10.419c-9.19-8.509-17.21-9.002-23.59-6.416-.872-6.964-6.809-12.353-14.01-12.353-7.8,0-14.123,6.323-14.123,14.124,0,7.123,5.272,13.01,12.127,13.98-.048.091-.075.143-.075.143-5.211,11.55,4.017,21.279,4.017,21.279l25.862,25.736,9.792-10.169-20.35-20.714" fill="#7ac043" stroke-width="0"/></svg>