<?xml version="1.0" encoding="UTF-8"?><svg id="a" xmlns="http://www.w3.org/2000/svg" width="150" height="150" viewBox="0 0 150 150"><path d="M142.449,78.61c-.978-.978-13.514-16.771-15.629-19.376-2.279-2.605-3.257-2.117-4.718-1.953s-17.259,2.931-19.05,3.093c-1.792.326-2.931.978-1.792,2.605.978,1.466,11.401,16.121,13.678,19.538l-41.519,9.928-32.895-55.192c-1.301-1.953-1.63-2.605-4.559-2.441-2.931.164-25.888,2.117-27.518,2.117-1.627.164-3.421.814-1.792,4.723s27.679,59.917,28.331,61.545,2.605,4.233,7.002,3.257c4.559-1.14,20.19-5.21,28.819-7.49,4.559,8.142,13.678,24.748,15.467,27.189,2.279,3.257,3.907,2.605,7.328,1.627,2.767-.814,42.659-15.136,44.45-15.957s2.931-1.301,1.627-3.093c-.978-1.301-11.401-15.467-16.933-22.795,3.745-.978,17.259-4.559,18.724-5.049,1.627-.493,1.953-1.301.978-2.279h0l-.002.002ZM67.065,94.075c-.493.164-23.773,5.701-24.91,6.024-1.301.326-1.301.164-1.301-.326-.326-.49-27.679-57.146-28.167-57.795-.326-.652-.326-1.301,0-1.301s21.979-1.956,22.631-1.956c.814,0,.652.164.978.652,0,0,30.446,52.587,30.937,53.406.652.814.326,1.14-.164,1.301v-.005h-.002ZM132.516,106.29c.326.652.814.978-.493,1.301-1.14.493-39.24,13.352-40.054,13.678s-1.301.493-2.279-.978-13.352-22.795-13.352-22.795l40.546-10.583c.978-.326,1.301-.493,1.953.493.652,1.14,13.352,18.398,13.678,18.888h0v-.005ZM135.121,77.633c-.978.164-15.793,3.907-15.793,3.907l-12.212-16.612c-.326-.493-.652-.978.164-1.14s14.653-2.605,15.305-2.767,1.14-.326,1.953.814c.814.978,11.235,14.327,11.722,14.818s-.164.814-1.14.978v.005-.002Z" fill="#f72c1f" stroke-width="0"/></svg>