<?xml version="1.0" encoding="UTF-8"?><svg id="a" xmlns="http://www.w3.org/2000/svg" width="150" height="150" viewBox="0 0 150 150"><path d="M70.586,7.636c-.29.026-1.212.119-2.042.184-19.146,1.726-37.08,12.055-48.438,27.931-6.325,8.827-10.37,18.84-11.899,29.446-.54,3.702-.606,4.796-.606,9.815s.066,6.113.606,9.815c3.663,25.309,21.676,46.574,46.106,54.452,4.375,1.41,8.987,2.371,14.231,2.951,2.042.224,10.871.224,12.913,0,9.053-1.001,16.722-3.241,24.285-7.101,1.16-.593,1.384-.751,1.225-.883-.105-.079-5.047-6.706-10.976-14.716l-10.779-14.558-13.506-19.986c-7.432-10.988-13.546-19.973-13.599-19.973-.053-.013-.105,8.867-.132,19.71-.04,18.985-.053,19.749-.29,20.197-.343.646-.606.909-1.16,1.199-.422.211-.791.25-2.78.25h-2.28l-.606-.382c-.395-.25-.685-.58-.883-.962l-.277-.593.026-26.416.04-26.429.408-.514c.211-.277.659-.632.975-.804.54-.263.751-.29,3.031-.29,2.688,0,3.136.105,3.834.87.198.211,7.511,11.225,16.26,24.492,8.749,13.267,20.714,31.383,26.591,40.276l10.673,16.166.54-.356c4.783-3.109,9.843-7.536,13.849-12.147,8.525-9.789,14.02-21.726,15.865-34.453.54-3.702.606-4.796.606-9.815s-.066-6.113-.606-9.815c-3.663-25.309-21.676-46.574-46.106-54.452-4.309-1.397-8.894-2.358-14.033-2.938-1.265-.132-9.975-.277-11.069-.171h0ZM98.178,48.4c.632.316,1.146.922,1.331,1.555.105.343.132,7.668.105,24.176l-.04,23.689-4.177-6.403-4.19-6.403v-17.22c0-11.133.053-17.391.132-17.694.211-.738.672-1.317,1.305-1.66.54-.277.738-.303,2.807-.303,1.95,0,2.293.026,2.728.263Z" fill="#000" stroke-width="0"/></svg>