<?xml version="1.0" encoding="UTF-8"?><svg id="a" xmlns="http://www.w3.org/2000/svg" width="150" height="150" viewBox="0 0 150 150"><path d="M75.264,110.391c-.353,0-.704-.092-1.012-.273l-3.225-1.908c-.481-.27-.246-.365-.088-.419.642-.225.773-.277,1.457-.664.071-.04.166-.026.239.019l2.476,1.472c.09.05.218.05.299,0l9.662-5.576c.092-.052.149-.154.149-.261v-11.15c0-.109-.057-.211-.149-.265l-9.659-5.571c-.09-.052-.209-.052-.299,0l-9.657,5.574c-.092.055-.152.159-.152.265v11.15c0,.107.059.209.152.258l2.647,1.531c1.436.718,2.318-.128,2.318-.976v-11.01c0-.154.126-.277.28-.277h1.225c.152,0,.28.123.28.277v11.01c0,1.917-1.043,3.014-2.86,3.014-.559,0-.998,0-2.225-.604l-2.533-1.457c-.628-.363-1.012-1.04-1.012-1.763v-11.15c0-.725.386-1.401,1.012-1.761l9.662-5.583c.611-.344,1.422-.344,2.029,0l9.662,5.583c.626.363,1.014,1.038,1.014,1.761v11.15c0,.725-.389,1.398-1.014,1.763l-9.662,5.579c-.306.18-.656.273-1.014.273M78.25,102.71c-4.23,0-5.114-1.941-5.114-3.569,0-.154.126-.28.28-.28h1.249c.14,0,.256.1.277.237.187,1.273.751,1.915,3.308,1.915,2.033,0,2.901-.46,2.901-1.54,0-.623-.246-1.085-3.408-1.396-2.645-.261-4.28-.844-4.28-2.962,0-1.948,1.642-3.112,4.396-3.112,3.095,0,4.628,1.076,4.82,3.379.007.078-.021.154-.073.213-.055.055-.126.088-.204.088h-1.256c-.13,0-.244-.092-.273-.218-.301-1.339-1.033-1.766-3.017-1.766-2.221,0-2.479.775-2.479,1.353,0,.701.303.908,3.306,1.303,2.969.393,4.379.948,4.379,3.036,0,2.109-1.754,3.315-4.815,3.315" fill="#7ec72b" stroke-width="0"/><path d="M142.943,70.666c.455-.265.737-.751.737-1.28v-3.424c0-.526-.28-1.012-.737-1.28l-12.167-7.064c-.457-.265-1.024-.268-1.483-.002l-12.242,7.069c-.457.265-.739.751-.739,1.28v14.134c0,.531.284,1.024.749,1.287l12.167,6.932c.448.258.998.258,1.45.009l7.358-4.09c.235-.13.379-.374.382-.64,0-.268-.142-.514-.372-.647l-12.318-7.069c-.232-.133-.372-.377-.372-.64v-4.432c0-.265.142-.507.37-.637l3.837-2.211c.228-.133.51-.133.737,0l3.837,2.211c.23.133.372.374.372.637v3.486c0,.265.142.51.37.642.23.133.512.133.742,0l7.33-4.266" fill="#000" stroke-width="0"/><path d="M129.853,70.002c.088-.05.197-.05.284,0l2.348,1.358c.088.05.142.145.142.246v2.713c0,.102-.055.194-.142.246l-2.348,1.356c-.088.05-.197.05-.284,0l-2.348-1.356c-.088-.05-.142-.145-.142-.246v-2.713c0-.1.055-.194.142-.246l2.348-1.358" fill="#7ec72b" stroke-width="0"/><path d="M97.993,75.647c0,.13-.069.254-.185.32l-4.204,2.424c-.114.066-.256.066-.37,0l-4.204-2.424c-.114-.066-.185-.19-.185-.32v-4.856c0-.13.071-.254.185-.322l4.204-2.427c.114-.069.256-.069.372,0l4.206,2.427c.114.066.182.19.182.322v4.856h-.002ZM99.128,39.692c-.228-.126-.507-.123-.735.009-.225.133-.365.374-.365.637v18.788c0,.182-.1.355-.258.448-.161.092-.358.092-.519,0l-3.067-1.768c-.457-.263-1.019-.263-1.476,0l-12.247,7.067c-.457.265-.739.754-.739,1.282v14.138c0,.528.282,1.014.739,1.282l12.247,7.071c.457.265,1.021.265,1.479,0l12.25-7.071c.457-.265.739-.754.739-1.282v-35.244c0-.536-.291-1.031-.758-1.292l-7.29-4.067" fill="#000" stroke-width="0"/><path d="M56.029,57.539c.457-.265,1.021-.265,1.479,0l12.247,7.067c.457.265.739.754.739,1.282v14.143c0,.528-.282,1.017-.739,1.282l-12.245,7.071c-.457.263-1.021.263-1.479,0l-12.242-7.071c-.457-.265-.739-.754-.739-1.282v-14.145c0-.526.282-1.014.739-1.28l12.242-7.067" fill="#7ec72b" stroke-width="0"/><path d="M33.759,65.769c0-.533-.28-1.021-.739-1.284l-12.242-7.045c-.209-.123-.441-.185-.675-.194h-.126c-.232.009-.464.071-.675.194l-12.242,7.045c-.455.263-.739.751-.739,1.284l.026,18.97c0,.265.137.51.37.637.228.137.507.137.735,0l7.273-4.166c.46-.273.739-.756.739-1.282v-8.863c0-.528.28-1.017.737-1.282l3.1-1.784c.23-.135.483-.199.739-.199.254,0,.512.064.737.199l3.095,1.784c.457.265.739.751.739,1.282v8.863c0,.528.284,1.012.739,1.282l7.273,4.166c.228.137.514.137.739,0,.225-.13.367-.374.367-.637l.028-18.97" fill="#000" stroke-width="0"/></svg>