<?xml version="1.0" encoding="UTF-8"?><svg id="a" xmlns="http://www.w3.org/2000/svg" width="150" height="150" viewBox="0 0 150 150"><ellipse cx="75" cy="75" rx="68.87" ry="33.288" fill="#7377ac" stroke-width="0"/><path d="M27.314,97.748c.356-2.133.356-3.555.71-5.331,2.133-9.597,3.909-19.549,5.688-29.5.356-1.066.71-1.423,1.776-1.423h13.862c2.444-.04,4.868.444,7.108,1.423,2.836,1.463,4.716,4.284,4.975,7.464.788,8.799-5.704,16.569-14.503,17.358-.613.055-1.23.074-1.848.059h-8.174c-.71,2.489-1.066,5.331-1.776,8.174,0,.786-.636,1.423-1.423,1.423h0c-2.14-.059-4.279.059-6.398.356l.002-.002ZM37.62,82.82l9.597-1.066c2-.425,3.698-1.731,4.621-3.555,1.007-1.978,1.496-4.18,1.423-6.398-.356-2.489-1.066-3.909-3.909-4.265-2.84-.178-5.69-.178-8.53,0l-3.199,15.284h-.002Z" fill="#000" stroke="#fff" stroke-miterlimit="10" stroke-width=".5"/><path d="M98.043,88.152c-.356,2.843-1.066,5.331-1.423,8.174-.356,2.843-.71,1.423-1.776,1.423-2.128-.178-4.27-.178-6.398,0,.646-2.453,1.121-4.947,1.423-7.464l5.331-27.367c.356-1.066.71-1.423,2.133-1.423h13.152c2.883-.18,5.747.565,8.174,2.133,2.95,1.926,4.484,5.41,3.909,8.887-.071,3.785-1.453,7.428-3.909,10.307-2.332,2.776-5.638,4.557-9.24,4.975h-11.373v.356h-.002ZM99.109,82.464h8.53c2.845-.522,5.17-2.574,6.042-5.331l1.066-3.555c.356-3.555-1.066-5.688-4.265-5.688h-8.174l-3.199,14.572v.002Z" fill="#000" stroke="#fff" stroke-miterlimit="10" stroke-width=".5"/><path d="M66.767,51.898h7.82l-1.776,9.597h4.621c2.862.18,5.711.537,8.53,1.066,3.909.71,4.975,3.555,4.621,7.108l-2.133,10.663c-.356,2.489-1.066,4.975-1.423,7.464h-7.82c.356-1.066.356-2.489.71-3.555l2.133-11.729h0c1.066-3.555,0-4.621-3.555-4.975h-6.754l-4.265,20.616h-7.464s6.754-36.254,6.754-36.254Z" fill="#000" stroke="#fff" stroke-miterlimit="10" stroke-width=".5"/></svg>