<?xml version="1.0" encoding="UTF-8"?><svg id="a" xmlns="http://www.w3.org/2000/svg" width="150" height="150" viewBox="0 0 150 150"><circle cx="75.023" cy="74.871" r="11.616" fill="#00d8ff" stroke-width="0"/><path d="M75.023,101.482c-16.314,0-30.568-1.921-41.235-5.577-6.919-2.36-12.796-5.507-16.985-9.094-4.443-3.795-6.803-7.937-6.803-11.94,0-7.682,8.423-15.203,22.561-20.109,11.57-4.026,26.657-6.271,42.439-6.271,15.504,0,30.383,2.175,41.883,6.155,6.734,2.314,12.403,5.322,16.429,8.654,4.373,3.656,6.687,7.659,6.687,11.57,0,7.983-9.418,16.059-24.598,21.08-10.737,3.564-25.084,5.53-40.379,5.53ZM75.023,54.045c-14.972,0-29.781,2.175-40.611,5.947-13.005,4.535-18.836,10.737-18.836,14.879,0,4.304,6.271,11.084,20.016,15.781,10.089,3.448,23.742,5.276,39.43,5.276,14.717,0,28.439-1.851,38.644-5.253,14.277-4.744,20.803-11.524,20.803-15.805,0-2.198-1.666-4.79-4.697-7.312-3.494-2.916-8.585-5.577-14.671-7.682-10.945-3.749-25.176-5.831-40.078-5.831Z" fill="#00d8ff" stroke-width="0"/><path d="M48.667,132.767c-2.36,0-4.443-.509-6.201-1.527-6.641-3.841-8.955-14.902-6.155-29.596,2.291-12.056,7.891-26.218,15.781-39.893,7.752-13.421,17.054-25.222,26.241-33.206,5.368-4.674,10.806-8.099,15.712-9.904,5.345-1.967,9.973-1.967,13.352-.023,6.919,3.98,9.21,16.198,5.97,31.841-2.291,11.107-7.752,24.505-15.388,37.764-8.145,14.115-16.938,25.5-25.431,32.928-5.507,4.813-11.177,8.33-16.36,10.158-2.707.972-5.253,1.458-7.52,1.458ZM54.475,63.139l2.407,1.388c-7.474,12.958-13.005,26.865-15.134,38.158-2.569,13.537-.093,21.682,3.471,23.742.879.509,2.036.787,3.448.787,4.605,0,11.848-2.916,20.224-10.228,8.03-7.011,16.429-17.933,24.274-31.517,7.358-12.75,12.588-25.57,14.763-36.098,3.031-14.74.417-23.765-3.309-25.917-1.897-1.088-4.975-.949-8.677.417-4.281,1.574-9.117,4.651-13.977,8.886-8.724,7.59-17.633,18.882-25.084,31.794l-2.407-1.412Z" fill="#00d8ff" stroke-width="0"/><path d="M101.379,132.837c-6.294,0-14.277-3.795-22.608-10.968-9.302-8.006-18.766-19.923-26.68-33.599h0c-7.775-13.421-13.329-27.375-15.666-39.338-1.365-6.988-1.62-13.398-.74-18.558.972-5.623,3.263-9.626,6.664-11.593,6.896-4.003,18.628.116,30.568,10.737,8.469,7.52,17.355,18.952,25.014,32.188,8.168,14.115,13.653,27.421,15.828,38.482,1.412,7.173,1.643,13.838.648,19.252-1.064,5.762-3.471,9.858-6.942,11.871-1.735,1.018-3.795,1.527-6.086,1.527ZM56.905,85.493c7.497,12.958,16.8,24.69,25.5,32.164,10.436,8.978,18.72,10.922,22.307,8.839,3.726-2.152,6.456-10.968,3.633-25.222-2.083-10.459-7.335-23.186-15.203-36.769-7.382-12.75-15.874-23.695-23.904-30.822-11.246-9.996-20.363-12.241-24.089-10.089-1.897,1.088-3.309,3.841-3.98,7.729-.764,4.489-.532,10.228.717,16.545,2.221,11.362,7.544,24.713,15.018,37.625h0Z" fill="#00d8ff" stroke-width="0"/></svg>