<?xml version="1.0" encoding="UTF-8"?><svg id="a" xmlns="http://www.w3.org/2000/svg" width="150" height="150" viewBox="0 0 150 150"><path d="M122.772,32.045c0-.843-.843-.843-1.686-.843s-10.924-.843-10.924-.843c0,0-6.725-6.708-7.57-7.551h-.843l-5.04,117.698h0l40.358-8.413c0-.826-14.295-99.206-14.295-100.049Z" fill="#5c8a3c" stroke-width="0"/><path d="M100.083,21.964s-1.686,0-4.197.843c-2.528-6.725-6.725-12.61-14.295-12.61h-.843c-1.686-3.371-4.197-4.197-6.725-4.197-17.649,0-26.063,21.863-28.591,32.788-6.725,1.686-10.924,3.371-11.767,3.371-2.798,1.124-4.197,2.804-4.197,5.04,0,2.528-10.079,79.028-10.079,79.028l75.674,14.295,5.022-118.56h0l-.002.002ZM80.748,27.006h0c-4.197,2.528-9.256,3.371-13.453,5.04,2.528-10.099,7.57-15.138,11.767-16.824.843,3.371,1.686,6.745,1.686,11.784ZM73.18,11.042h0c.843,0,1.686,0,2.528.843-5.04,2.528-11.767,8.413-14.295,21.863-3.371.843-6.725,2.528-10.099,3.371,2.528-10.116,10.079-26.08,21.863-26.08l.002.002ZM76.534,69.047h0s-5.04-2.528-10.079-2.528c-8.413,0-8.413,5.04-8.413,6.725,0,6.725,18.492,9.256,18.492,26.063,0,12.61-8.413,21.021-19.335,21.021-13.453,0-20.178-8.413-20.178-8.413l3.371-11.767s6.725,5.882,12.61,5.882c4.197,0,5.04-3.371,5.04-5.04,0-9.256-15.138-9.256-15.138-24.375,0-12.61,8.413-24.375,26.905-24.375,6.725,0,10.079,1.686,10.079,1.686,0,0-3.354,15.121-3.354,15.121ZM84.945,26.163v-.843c0-4.197-.843-7.57-1.686-10.099h0c4.197,0,6.725,5.04,8.413,10.099-2.528,0-4.197.843-6.725.843h-.002Z" fill="#91b947" stroke-width="0"/></svg>