<?xml version="1.0" encoding="UTF-8"?><svg id="a" xmlns="http://www.w3.org/2000/svg" width="150" height="150" xmlns:xlink="http://www.w3.org/1999/xlink" viewBox="0 0 150 150"><defs><linearGradient id="b" x1="77.446" y1="-436.018" x2="77.446" y2="-281.163" gradientTransform="translate(0 -312.8) scale(1 -1)" gradientUnits="userSpaceOnUse"><stop offset="0" stop-color="#685ddb"/><stop offset=".399" stop-color="#6b6bdf"/><stop offset="1" stop-color="#6e7ce4"/></linearGradient><linearGradient id="c" x1="36.312" y1="-450.143" x2="36.312" y2="-350.721" xlink:href="#b"/><linearGradient id="d" x1="121.035" y1="-449.669" x2="121.035" y2="-396.576" xlink:href="#b"/></defs><path d="M129.016,37.268H25.876c-8.138,0-14.734,6.596-14.734,14.734v44.203c0,8.138,6.596,14.734,14.734,14.734h51.57l18.418,11.915c2.107,1.265,4.558-1.007,3.46-3.205l-4.688-8.71h34.38c8.138,0,14.734-6.596,14.734-14.734v-44.203c0-8.138-6.596-14.734-14.734-14.734Z" fill="url(#b)" stroke-width="0"/><path d="M11.141,52.002v14.734h34.38c2.038,0,3.684-1.645,3.684-3.684s-1.645-3.684-3.684-3.684h-8.602c-2.701,0-4.911-2.21-4.911-4.911,0-1.351.54-2.579,1.449-3.463.884-.909,2.112-1.449,3.463-1.449h18.418c3.61,0,6.483-3.094,6.115-6.778-.319-3.192-3.242-5.501-6.459-5.501h-29.117c-8.138,0-14.734,6.596-14.734,14.734Z" fill="url(#c)" stroke-width="0"/><path d="M143.75,96.205v-14.734h-27.013c-2.038,0-3.684,1.645-3.684,3.684s1.645,3.684,3.684,3.684h6.147c2.701,0,4.911,2.21,4.911,4.911,0,1.351-.54,2.579-1.449,3.463-.884.909-2.112,1.449-3.463,1.449h-18.418c-3.61,0-6.483,3.094-6.115,6.778.319,3.192,3.242,5.501,6.459,5.501h24.206c8.138,0,14.734-6.596,14.734-14.734Z" fill="url(#d)" stroke-width="0"/><path d="M123.593,63.089c.115,0,.371.015.778.106.96.216,1.569.555,2.301,1.925.869,1.569,1.292,3.6,1.292,6.215,0,3.924-.889,7.406-2.731,10.67-1.982,3.534-3.431,3.534-4.126,3.534-.115,0-.371-.015-.778-.106-.96-.216-1.569-.555-2.272-1.869-.879-1.608-1.321-3.74-1.321-6.321,0-3.927.882-7.382,2.704-10.567,2.041-3.588,3.521-3.588,4.153-3.588M123.593,54.671c-4.688,0-8.492,2.613-11.471,7.839-2.537,4.44-3.806,9.351-3.806,14.734,0,4.025.781,7.47,2.343,10.346,1.756,3.293,4.344,5.277,7.812,6.063.926.209,1.805.312,2.635.312,4.735,0,8.541-2.613,11.471-7.839,2.537-4.494,3.806-9.405,3.806-14.786,0-4.074-.781-7.47-2.343-10.294-1.756-3.293-4.344-5.277-7.812-6.063-.926-.209-1.805-.312-2.635-.312h0ZM89.913,63.089c.115,0,.371.015.751.101.936.214,1.604.582,2.326,1.933.869,1.567,1.292,3.598,1.292,6.213,0,3.924-.889,7.406-2.731,10.67-1.982,3.534-3.431,3.534-4.126,3.534-.115,0-.371-.015-.778-.106-.96-.216-1.569-.555-2.272-1.869-.879-1.611-1.321-3.74-1.321-6.323,0-3.927.882-7.382,2.704-10.567,2.046-3.585,3.524-3.585,4.155-3.585M89.913,54.671c-4.688,0-8.492,2.613-11.471,7.839-2.537,4.44-3.806,9.351-3.806,14.734,0,4.025.781,7.47,2.343,10.346,1.756,3.293,4.344,5.277,7.812,6.063.926.209,1.805.312,2.635.312,4.735,0,8.541-2.613,11.471-7.839,2.537-4.494,3.806-9.405,3.806-14.786,0-4.074-.781-7.47-2.343-10.294-1.756-3.293-4.393-5.277-7.812-6.063-.926-.209-1.803-.312-2.635-.312h0ZM62.009,99.576c-1.181,0-2.335-.499-3.151-1.417-6.164-6.957-9.948-16.095-12.18-23.415-3.21,6.793-7.544,15.478-11.93,22.787-.867,1.446-2.51,2.222-4.185,2.006-1.672-.233-3.045-1.439-3.485-3.067-6.208-22.809-8.44-39.151-8.529-39.837-.309-2.301,1.309-4.42,3.61-4.732,2.333-.302,4.423,1.304,4.735,3.61.02.138,1.604,11.724,5.705,28.624,6.225-11.81,11.446-23.953,11.512-24.108.749-1.741,2.579-2.775,4.435-2.512,1.874.253,3.352,1.726,3.607,3.6.02.145,1.52,10.734,6.301,20.913,2.019-20.112,8.062-30.421,8.369-30.932,1.198-1.996,3.789-2.64,5.776-1.446,1.996,1.196,2.64,3.784,1.446,5.776-.071.123-7.821,13.6-7.821,39.94,0,1.748-1.083,3.318-2.716,3.934-.496.187-.999.278-1.5.278Z" fill="#fff" stroke-width="0"/></svg>