<?xml version="1.0" encoding="UTF-8"?><svg id="a" xmlns="http://www.w3.org/2000/svg" width="150" height="150" viewBox="0 0 150 150"><path d="M22.12,74.772c0,21.791,12.664,40.623,31.027,49.547L26.886,52.368c-3.055,6.847-4.766,14.424-4.766,22.405Z" fill="#21759b" stroke-width="0"/><path d="M114.337,71.994c0-6.804-2.444-11.516-4.54-15.183-2.791-4.535-5.406-8.375-5.406-12.91,0-5.061,3.838-9.771,9.245-9.771.244,0,.476.03.713.044-9.795-8.973-22.844-14.452-37.176-14.452-19.233,0-36.154,9.868-45.998,24.814,1.292.039,2.509.066,3.543.066,5.758,0,14.672-.699,14.672-.699,2.968-.175,3.318,4.184.353,4.535,0,0-2.982.351-6.301.525l20.048,59.631,12.048-36.133-8.577-23.501c-2.965-.174-5.773-.525-5.773-.525-2.967-.174-2.619-4.71.348-4.535,0,0,9.092.699,14.501.699,5.757,0,14.672-.699,14.672-.699,2.97-.175,3.319,4.184.353,4.535,0,0-2.989.351-6.301.525l19.895,59.18,5.491-18.35c2.38-7.615,4.191-13.084,4.191-17.797Z" fill="#21759b" stroke-width="0"/><path d="M78.138,79.588l-16.518,47.997c4.932,1.45,10.148,2.243,15.552,2.243,6.411,0,12.559-1.108,18.282-3.121-.148-.236-.282-.486-.392-.758l-16.924-46.361Z" fill="#21759b" stroke-width="0"/><path d="M125.479,48.36c.237,1.754.371,3.636.371,5.661,0,5.587-1.043,11.867-4.186,19.719l-16.816,48.62c16.367-9.544,27.375-27.276,27.375-47.586.001-9.571-2.444-18.572-6.744-26.414Z" fill="#21759b" stroke-width="0"/><path d="M77.172,10.6C41.787,10.6,12.998,39.387,12.998,74.772s28.79,64.175,64.174,64.175,64.178-28.786,64.178-64.175c-.001-35.385-28.794-64.172-64.178-64.172ZM77.172,136.006c-33.762,0-61.232-27.47-61.232-61.234S43.409,13.543,77.172,13.543s61.229,27.468,61.229,61.23-27.468,61.234-61.229,61.234Z" fill="#21759b" stroke-width="0"/></svg>