<?xml version="1.0" encoding="UTF-8"?>
<svg xmlns="http://www.w3.org/2000/svg" viewBox="0 0 640 990">
  <defs>
    <style>
      .cls-1 {
        fill: #ff725e;
      }

      .cls-1, .cls-2, .cls-3, .cls-4, .cls-5, .cls-6, .cls-7, .cls-8, .cls-9, .cls-10, .cls-11, .cls-12, .cls-13, .cls-14, .cls-15, .cls-16, .cls-17, .cls-18, .cls-19, .cls-20, .cls-21, .cls-22 {
        stroke-width: 0px;
      }

      .cls-23 {
        mix-blend-mode: multiply;
        opacity: .4;
      }

      .cls-2 {
        fill: #1f4168;
      }

      .cls-3 {
        fill: #e43f5a;
      }

      .cls-4 {
        fill: #44c5d1;
      }

      .cls-5 {
        fill: #f0f2f5;
      }

      .cls-6 {
        fill: #1b1a2e;
      }

      .cls-7 {
        fill: #1f4068;
      }

      .cls-8 {
        fill: #e1e6eb;
      }

      .cls-24 {
        isolation: isolate;
      }

      .cls-9 {
        fill: #cacaca;
      }

      .cls-10 {
        fill: #1f4168;
      }

      .cls-11 {
        fill: #1b1b2f;
      }

      .cls-12 {
        fill: #e6e7e8;
      }

      .cls-13 {
        fill: #d1d3d4;
      }

      .cls-14 {
        fill: #088aa7;
      }

      .cls-15 {
        fill: #226268;
      }

      .cls-16 {
        fill: #fcbcb0;
      }

      .cls-17 {
        fill: #ffc89f;
      }

      .cls-18 {
        fill: #fff;
      }

      .cls-19 {
        fill: #a65b3c;
      }

      .cls-20 {
        fill: #ff9a6c;
      }

      .cls-21 {
        fill: #f0f0f0;
      }

      .cls-22 {
        fill: #000435;
      }
    </style>
  </defs>
  <g class="cls-24">
    <g id="Layer_1" data-name="Layer 1">
      <path class="cls-21" d="M435.62,207.2l-7.84,6.56,11.17,16.24,8.92-4.98c4.78,4.59,10.39,8.24,16.53,10.76l-.91,10.15,19.39,3.57,2.78-9.81c6.62-.15,13.15-1.55,19.25-4.13l6.56,7.84,16.24-11.17-4.97-8.9c4.59-4.78,8.24-10.38,10.76-16.52l10.14.91,3.58-19.38-9.81-2.79c-.16-6.62-1.56-13.15-4.13-19.25l7.84-6.56-11.17-16.23-8.93,4.98c-4.78-4.59-10.39-8.24-16.52-10.76l.91-10.15-19.38-3.58-2.78,9.8c-6.62.16-13.15,1.56-19.25,4.13l-6.6-7.87-16.23,11.18,4.98,8.92c-4.59,4.78-8.24,10.39-10.76,16.53l-10.15-.91-3.58,19.38,9.8,2.78c.16,6.63,1.57,13.16,4.15,19.27ZM458.21,181.87c2.68-14.49,16.59-24.06,31.08-21.38,14.49,2.68,24.06,16.59,21.38,31.08-2.68,14.49-16.59,24.06-31.08,21.38h0c-14.49-2.68-24.06-16.59-21.38-31.08h0Z"/>
      <path class="cls-21" d="M315.62,166.43l-3.9,3.26,5.56,8.08,4.44-2.48c2.38,2.29,5.17,4.1,8.23,5.36l-.45,5.05,9.66,1.78,1.38-4.88c3.3-.08,6.55-.77,9.58-2.06l3.26,3.9,8.08-5.56-2.48-4.43c2.29-2.38,4.11-5.17,5.36-8.23l5.05.45,1.78-9.65-4.88-1.39c-.08-3.3-.78-6.55-2.06-9.58l3.9-3.26-5.56-8.08-4.45,2.48c-2.38-2.29-5.17-4.1-8.23-5.36l.45-5.05-9.65-1.78-1.38,4.88c-3.3.08-6.55.78-9.58,2.06l-3.28-3.92-8.08,5.56,2.48,4.44c-2.29,2.38-4.1,5.17-5.36,8.23l-5.05-.45-1.78,9.65,4.88,1.38c.08,3.3.78,6.55,2.07,9.59ZM326.87,153.82c1.33-7.21,8.26-11.98,15.48-10.65s11.98,8.26,10.65,15.48c-1.33,7.21-8.26,11.98-15.48,10.65h0c-7.21-1.33-11.98-8.26-10.65-15.48h0Z"/>
      <path class="cls-21" d="M579.84,202.89l-1.78,1.49,2.54,3.69,2.03-1.13c1.09,1.04,2.36,1.87,3.75,2.44l-.21,2.3,4.4.81.63-2.23c1.5-.03,2.99-.35,4.37-.94l1.49,1.78,3.69-2.54-1.13-2.02c1.04-1.08,1.87-2.36,2.44-3.75l2.3.21.81-4.4-2.23-.63c-.04-1.5-.35-2.98-.94-4.37l1.78-1.49-2.54-3.68-2.03,1.13c-1.09-1.04-2.36-1.87-3.75-2.44l.21-2.3-4.4-.81-.63,2.22c-1.5.04-2.98.35-4.37.94l-1.5-1.79-3.68,2.54,1.13,2.03c-1.04,1.09-1.87,2.36-2.44,3.75l-2.3-.21-.81,4.4,2.22.63c.04,1.5.36,2.99.94,4.37ZM584.97,197.14c.61-3.29,3.77-5.46,7.06-4.85s5.46,3.77,4.85,7.06c-.61,3.29-3.77,5.46-7.06,4.85h0c-3.29-.61-5.46-3.77-4.85-7.06h0Z"/>
      <g>
        <polygon class="cls-17" points="175.34 781.72 174.71 787.71 170.59 798.73 185.93 800.12 189.14 784.05 175.34 781.72"/>
        <polygon class="cls-17" points="120.95 786.23 120.59 793.78 117.98 800.12 132.83 803.26 136 787.36 120.95 786.23"/>
        <path class="cls-6" d="M204.94,693.85l5.92-78.32-2-12.55-73.68,6.58-.46,8.71s-10.3,37.76-10.9,74.96c0,0-10.31,54.56-4.69,93.88,0,0,10.03,2.94,20.33,0l9.65-87.11,20.45-48.97,8.02,53.18c-3.69,21.17-3.6,78.57-3.6,78.57,0,0,5.71,4.01,17.75,3.38l11.68-74.42h0c3.21-6.15,1.56-17.9,1.56-17.9h0Z"/>
        <path class="cls-1" d="M207.19,587.87c-.23-1.11-.63-3.45-.63-3.45.56-1.48,1.75-2.68,2.3-3.19-1.89,1.8.07,3.65.07,3.65-1.4,2.84-1.74,2.99-1.74,2.99ZM211.26,560.09h0s-.01-.03-.02-.05h0c-.07-.15-.23-.45-.45-.89h0c-1.11-2.32-3.69-8.44-3.69-15.69,0,.01,0,.02,0,.03.13.57,2.17,9.7,5.55,11.05,0,0-2.04,1.57-1.38,5.55ZM232.08,546.4l-3.92-19.93c-1.81-31.88-6.19-37.47-9.25-37.85-.34-3.31-13.36-6.28-19.79-9.32l-.91-1.06c-1.51-1.76-4.11-2.08-6.01-.74-.76.54-1.67.82-2.6.82h-.03l-25.81-.23c-.95,0-1.88-.26-2.71-.72-.87-.49-1.82-.72-2.76-.72-1.56,0-3.11.65-4.21,1.88l-.02.02c-12.32,3.93-22.26,5.32-23.34,8.54-7.64,2.9-5.89,20.23-9.15,34l-5.01-.26c-3.52-.18-6.58,2.46-6.84,5.98-.33,4.44.4,8.51.4,8.51-6.79,7.19,5.67,19.24,10.07,26.95,2.23,6.91,14.22,13.67,16.24-3.36,0-.02,0-.05.01-.07,0,0-.48,16.91-2.61,26.08-1,4.29-2.17,7.79-3.02,10.08-.7,1.88-.34,3.98.96,5.5l1.67,1.97-.86,4.31c-.24,1.23.57,2.42,1.81,2.64,42.97,7.67,71.25-10.4,71.25-10.4,2.5,2.83,6.26,4.26,8.92,4.95,2.34.61,4.77-.53,5.8-2.72,1.87-3.99,2.44-9.67,2.44-9.67,1.79.12,3.98-.81,4.42-3.33,1.81-10.17,2.75-30.48,2.75-30.48,2.14-3.38,2.89-7.45,2.13-11.37Z"/>
        <path class="cls-20" d="M121.37,521.37c-.13.39-.41.71-.73.96-.33.25-.73.41-1.14.41.17-.11.34-.2.5-.31.16-.11.32-.21.46-.33.31-.23.59-.47.9-.74Z"/>
        <g>
          <path class="cls-1" d="M195.51,822.8v1.17c0,1.12-.91,2.02-2.02,2.02l-24.62.24c-.96,0-1.81-.67-1.98-1.61-.35-1.96,1.06-2.82,1.06-2.82-1.12-2.24-.66-5.69-.26-6.93.41-1.26.65-2.57.65-3.9v-.64c0-.91-.11-1.8-.28-2.69-.79-3.98.75-6.08.83-6.18,0,0,0,0,0,0,0,0-1.46-7.5,8.92-7.23,11.44.3,9.01,7.76,9.01,7.76.02.05.03.09.05.14.95,2.84.81,5.99.81,5.99,1.75,4.12,4.24,5.26,6.5,7.83.9,1.02,1.17,2.19,1.17,3.23,0,1.57-.62,2.85-.62,2.85.43,0,.78.35.78.78Z"/>
          <path class="cls-5" d="M195.51,822.8v1.17c0,1.12-.91,2.02-2.02,2.02l-24.62.24c-.96,0-1.81-.67-1.98-1.61-.35-1.96,1.06-2.82,1.06-2.82h0c2.49,0,4.9-.91,6.77-2.56l2.25-1.98c1.63-1.44,4.11-1.31,5.59.29l1.31,1.41c1.9,2.05,4.55,3.24,7.34,3.29,1.17.02,2.4-.03,3.53-.23.43,0,.78.35.78.78Z"/>
          <path class="cls-5" d="M174.67,817.78c-3.33,0-5.78-1.64-6.93-4.75-.09-.24.04-.51.28-.6.24-.09.51.04.6.28,1.79,4.85,6.46,4.4,9.09,3.7,1.31-.35,2.68-.4,4.07-.15,7.53,1.35,11.1-1.63,11.14-1.66.2-.17.49-.15.66.05.17.2.15.49-.04.66-.16.14-3.91,3.32-11.92,1.88-1.25-.22-2.48-.18-3.66.14-1.17.31-2.27.46-3.28.46Z"/>
          <path class="cls-5" d="M187.37,812.37c-6.74-2.55-14.05-.86-15.88-.36-.2.05-.38-.11-.35-.31.28-1.9-.1-4.48-.41-6.07-.13-.68-.99-.92-1.45-.4-1.19,1.33-1.22,2.42-1.22,2.42-.79-3.98.75-6.08.83-6.18,0,0,0,0,0,0,.03-.01.05-.03.08-.04,2.07-1.16,4.71,0,5.22,2.32.36,1.67.4,3.24.39,3.91,0,.17.15.31.33.28,4.32-.62,8.16,0,9.38.25.2.04.37-.13.33-.33-.23-1.33-.51-2.41-.79-3.25-.59-1.79,1.33-3.41,2.98-2.5.02.01.04.02.06.03.95,2.84.81,5.99.81,5.99-.43,1.57-.15,3.11.07,3.9.06.23-.16.42-.38.34Z"/>
          <path class="cls-5" d="M173.22,802.86c-.18,0-.29-.1-.34-.16-.17-.2-.14-.49.05-.66.03-.02.06-.04.09-.06l.03-.02c1.11-.68,5.11-2.8,9.77-1.32.25.08.38.34.31.59-.08.25-.34.38-.59.31-4.28-1.35-7.97.6-9,1.23-.12.08-.23.1-.32.1Z"/>
          <g>
            <path class="cls-2" d="M175.48,804.53c-.38,0-.6-.29-.63-.33-.25-.35-.16-.84.19-1.09.05-.03.1-.06.15-.08.99-.48,4.34-1.85,7.96-.32.4.17.58.63.42,1.03-.17.4-.63.59-1.03.42-3.03-1.28-5.86-.11-6.65.28-.15.07-.29.1-.4.1Z"/>
            <path class="cls-2" d="M175.48,806.17c-.38,0-.6-.29-.63-.33-.25-.35-.16-.84.19-1.09.05-.03.1-.06.15-.08.99-.48,4.34-1.85,7.96-.32.4.17.58.63.42,1.03-.17.4-.63.58-1.03.42-3.03-1.28-5.86-.11-6.65.28-.15.07-.29.1-.4.1Z"/>
            <path class="cls-2" d="M175.48,807.81c-.38,0-.6-.29-.63-.33-.25-.35-.16-.84.19-1.09.05-.03.1-.06.15-.08.99-.48,4.34-1.85,7.96-.32.4.17.58.63.42,1.03-.17.4-.63.58-1.03.42-3.03-1.28-5.86-.11-6.65.28-.15.07-.29.1-.4.1Z"/>
          </g>
        </g>
        <g>
          <path class="cls-1" d="M133.37,808.7c1.06.88,1.15,4.01,1.04,6.44-.04.95-.2,1.89-.48,2.79-.27.9-.66,1.78-1.15,2.59.49.73.71,1.56.77,2.36.14,1.66-1.42,2.96-3.03,2.51-.65-.18-1.41-.38-2.27-.57-1.65-.36-2.78.09-3.46.59-.75.54-1.64.85-2.56.82l-5.5-.15-13.4-.36-1.39-.04c-.88-.02-1.58-.76-1.54-1.65l.06-1.78s-1.52-2.35-.49-4.97c1.02-2.62,5.69-4.2,5.69-4.2,0,0,0,0,0,0-.1-.05-1.48-.86.86-2.9,2.43-2.12,6.91-8.43,8.34-9.09,1.28-.59,2.14.36,2.3.56,0,0,0,.01.01.02-.61-2.19.65-5.32,2.09-6,4.77-2.23,14.48,2.81,15.11,5.55.63,2.74-1.57,2.99-1.57,2.99,2.21,1.32.64,4.37.59,4.49h0Z"/>
          <path class="cls-5" d="M124.3,822.76c2.68,0,4.68-2.1,5.22-4.16.54-2.04-.28-3.88-2.14-4.81-2.09-1.04-4.67.25-7.41,1.61-3.25,1.62-6.61,3.3-9.52,1.48-.21-.13-.48-.07-.61.14-.13.21-.07.48.14.61,3.34,2.07,7.08.21,10.39-1.44,2.54-1.26,4.93-2.46,6.62-1.61,1.48.74,2.11,2.16,1.68,3.79-.47,1.78-2.24,3.62-4.59,3.49-.24-.01-.45.18-.47.42-.01.24.18.45.42.47.09,0,.18,0,.27,0Z"/>
          <path class="cls-5" d="M106.09,817.74c1.24,0,2.34-.14,2.58-.18.24-.03.41-.26.38-.5-.03-.24-.26-.41-.5-.38-1.88.27-5.09.33-5.73-.63-.19-.29-.12-.73.23-1.3.13-.21.06-.48-.15-.61-.21-.13-.48-.06-.61.15-.54.89-.6,1.64-.21,2.25.64.97,2.44,1.2,4.01,1.2Z"/>
          <path class="cls-5" d="M133.37,808.7h0s-2.39-4.68-6.38-1.82c-3.99,2.86-5.22,6.98-9.31,5.86-4.79-1.32-9.61-.96-12.02.36,0,0,0,0,0,0-.1-.05-1.48-.86.86-2.9,2.43-2.12,6.91-8.43,8.34-9.09,1.28-.59,2.14.36,2.3.56,0,0,0,.01.01.02,0,0,0,.02,0,.02-2.17,1.23-7.39,8.05-7.39,8.05,4.95-1.47,10.15.3,10.15.3,0,0,4.03-5.42,7.14-7.48,3.1-2.06,5.71,1.65,5.71,1.65,2.21,1.32.64,4.37.59,4.49Z"/>
          <path class="cls-5" d="M123.95,802.75c.16,0,.32-.09.39-.24.11-.22.03-.49-.19-.6-3.74-1.94-7.01-.71-7.15-.66-.23.09-.34.34-.25.57.09.23.34.34.57.25h0s3.05-1.13,6.42.62c.07.03.13.05.2.05Z"/>
          <g>
            <path class="cls-2" d="M120.07,809.34c.27,0,.53-.15.66-.4.19-.36.05-.81-.32-1-4.42-2.29-8.3-.84-8.47-.77-.38.15-.57.57-.42.96.15.38.57.57.95.42.04-.02,3.45-1.26,7.26.71.11.06.22.08.34.08Z"/>
            <path class="cls-2" d="M121.02,807.81c.24,0,.48-.12.62-.34.22-.34.12-.8-.22-1.02-4.18-2.71-8.18-1.64-8.35-1.59-.39.11-.62.52-.51.91.11.39.51.62.91.51.05-.01,3.56-.92,7.15,1.41.12.08.26.12.4.12Z"/>
            <path class="cls-2" d="M122.8,805.83c.25,0,.49-.13.63-.35.21-.35.1-.8-.25-1.02-4.25-2.59-8.23-1.41-8.39-1.36-.39.12-.61.53-.49.92.12.39.53.61.92.49.05-.01,3.54-1.02,7.19,1.21.12.07.25.11.38.11Z"/>
          </g>
          <path class="cls-5" d="M130.53,825.4c-.65-.18-1.41-.38-2.27-.57-1.65-.36-2.78.09-3.46.59-.75.54-1.64.85-2.56.82l-4.35-.12c-.74-.02-1.44-.32-1.97-.84l-5.24-5.18c-.75-.74-1.97-.69-2.65.11l-3.78,4.44c-.57.67-1.42,1.05-2.3,1.02h0c-.88-.02-1.58-.76-1.54-1.65l.06-1.78c.28.13.57.21.86.26,1.45.25,2.91-.39,3.8-1.56l2.73-3.58c.65-.85,1.89-.96,2.67-.22l4.14,3.87c.7.65,1.61,1.04,2.57,1.09,9.22.42,15.56-1.59,15.56-1.59.49.73.71,1.56.77,2.36.14,1.66-1.42,2.96-3.03,2.51Z"/>
        </g>
        <g class="cls-23">
          <path class="cls-19" d="M137.01,547.62c.97-23.37,1.72-41.65,1.72-41.65-3.21,16.77-1.72,41.65-1.72,41.65Z"/>
        </g>
        <g>
          <g class="cls-23">
            <path class="cls-19" d="M212.94,516.89c0-.14.02-.27.02-.41,0,.12-.02.26-.02.41Z"/>
          </g>
          <g class="cls-23">
            <path class="cls-19" d="M212.96,516.48c.03-.47.04-.73.04-.73-.01.24-.03.49-.04.73Z"/>
          </g>
          <g class="cls-23">
            <path class="cls-19" d="M219.3,550.23c-3.85,1.57-6.65,4.32-6.65,4.32-3.49-1.4-5.55-11.08-5.55-11.08,0,0,5.08-15.43,5.84-26.58-.25,4.18-2.27,15.47-3.68,24.35-2.16,13.63,9.5,9.09,10.04,8.98Z"/>
          </g>
        </g>
        <g class="cls-23">
          <path class="cls-19" d="M197.39,554.13s-1.63,25.05,8.72,23.54c0,0-7.36-1.97-8.72-23.54Z"/>
        </g>
        <g class="cls-23">
          <path class="cls-19" d="M222.16,555.44s-7-.63-9.51,1.07c0,0,2.36-3.4,9.51-1.07Z"/>
        </g>
        <g class="cls-23">
          <path class="cls-19" d="M210.79,559.15c-.83-1.59-2.61-4.65-4.23-5.28-3.03-1.18-6.18,1.92-6.5,2.25,4.64-5.2,7.04-12.65,7.04-12.65,0,7.25,2.58,13.37,3.69,15.68Z"/>
        </g>
        <g class="cls-23">
          <path class="cls-19" d="M134.85,602.54s47.41,3.58,69.16-16.01c0,0-7.13,19.56-69.16,16.01Z"/>
        </g>
        <g class="cls-23">
          <path class="cls-19" d="M179.88,566.75s-12.94,26.42-38.99,26.42c0,0,18.15,1.17,38.99-26.42Z"/>
        </g>
        <g class="cls-23">
          <path class="cls-19" d="M129.14,539.18s-3.91,8.47-.98,15.85c.78,1.83,1.13.87,1.29-.35.15-1.14-.06-2.3-.52-3.35-.87-2.01-2.06-6.36.21-12.15Z"/>
        </g>
        <g class="cls-23">
          <path class="cls-19" d="M208.86,581.23s4.78-5.99,3.72-15.19c0,0,6.39,9.27-3.72,15.19Z"/>
        </g>
        <g class="cls-23">
          <path class="cls-19" d="M136.43,558.92c-2.02,17.03-14.01,10.27-16.24,3.36,1.98,4.7,5.54,1.84,5.54,1.84,8.9,4.77,10.56-4.28,10.7-5.2Z"/>
        </g>
        <g class="cls-23">
          <path class="cls-19" d="M136.44,558.84s0,.05-.01.07c0-.05.01-.07.01-.07Z"/>
        </g>
        <g class="cls-23">
          <path class="cls-19" d="M122.27,525.45s2.52-1.37-.59-3.32c-3.11-1.95.59,3.32.59,3.32Z"/>
        </g>
        <g class="cls-23">
          <path class="cls-19" d="M111.98,526.51s-1.9-2.52.75-4.07c2.65-1.55-.75,4.07-.75,4.07Z"/>
        </g>
        <g class="cls-23">
          <path class="cls-19" d="M215.61,600.71s1.12,3.35-1.85,2.75c-2.98-.6,1.85-2.75,1.85-2.75Z"/>
        </g>
        <g class="cls-23">
          <path class="cls-19" d="M205,593.3s-1.62-.05-1.02,1.6c.6,1.65,1.02-1.6,1.02-1.6Z"/>
        </g>
        <path class="cls-19" d="M129.14,539.18c.95.36,1.82.91,2.62,1.55.8.64,1.51,1.39,2.11,2.22.58.84,1.1,1.73,1.44,2.7.2.47.31.97.45,1.46.12.49.17,1,.25,1.5-.24-.98-.49-1.96-.9-2.88-.37-.93-.88-1.8-1.47-2.61-.57-.82-1.27-1.55-2.02-2.22-.75-.66-1.58-1.25-2.48-1.71Z"/>
        <path class="cls-19" d="M126.62,533.48c.62.03,1.25.22,1.8.55.55.33,1,.85,1.23,1.47.22.62.22,1.28.12,1.91-.07.31-.15.61-.24.91-.13.29-.24.58-.38.86.07-.31.16-.6.24-.9.06-.3.12-.6.16-.91.04-.61.03-1.22-.17-1.78-.21-.56-.6-1.03-1.09-1.38-.49-.35-1.07-.59-1.68-.73Z"/>
        <path class="cls-19" d="M126.61,533.49c-.5-.54-.82-1.23-1.03-1.93-.21-.71-.33-1.44-.37-2.17-.04-.73,0-1.46.01-2.19.02-.73.13-1.46-.08-2.15-.17-.69-.55-1.32-1.04-1.82-.49-.51-1.14-.82-1.79-1.13-1.31-.59-2.72-.95-4.16-1.16v-.03c1.46.04,2.93.32,4.28.92.67.29,1.35.65,1.86,1.21.52.55.86,1.25,1,1.97.16.74.01,1.47.02,2.19-.01.73.05,1.45.12,2.17.15,1.42.37,2.89,1.19,4.1l-.02.02Z"/>
        <path class="cls-19" d="M126.19,533.93c-.37.6-.84,1.15-1.35,1.65-.53.48-1.09.93-1.71,1.29-1.23.74-2.65,1.15-4.09,1.26h-1.08c-.36,0-.71-.09-1.07-.12-.72-.06-1.4-.3-2.09-.49-.68-.22-1.32-.54-1.98-.8l-1.85-1.06,1.91.93c.67.24,1.31.53,1.99.72,1.35.39,2.75.62,4.15.54,1.4-.09,2.77-.49,3.99-1.17,1.23-.68,2.32-1.61,3.17-2.76Z"/>
        <path class="cls-19" d="M129.14,539.18c-.25.63-.47,1.27-.65,1.92-.2.65-.37,1.3-.53,1.96-.31,1.31-.54,2.65-.65,3.99-.15,1.34-.11,2.69,0,4.03l.12,1c.05.33.13.66.2.99.1.67.35,1.3.53,1.96-.51-1.25-.91-2.57-1.07-3.93-.16-1.35-.2-2.73-.07-4.08.14-1.36.37-2.7.72-4.02.36-1.31.81-2.6,1.39-3.82Z"/>
        <polygon class="cls-19" points="138.73 505.97 138.52 512.58 138.25 519.19 137.73 532.41 137.11 545.63 136.8 552.24 136.44 558.84 136.66 552.23 136.92 545.62 137.44 532.4 138.07 519.19 138.38 512.58 138.73 505.97"/>
        <path class="cls-19" d="M138.57,502.37c-.16-1.17-.4-2.31-.72-3.44-.31-1.13-.69-2.24-1.16-3.31-.21-.54-.48-1.06-.73-1.59-.29-.51-.55-1.03-.87-1.52-.59-1.01-1.32-1.93-2.05-2.85.82.84,1.6,1.74,2.24,2.73.66.98,1.21,2.04,1.67,3.12.45,1.09.84,2.21,1.11,3.36.27,1.15.47,2.32.5,3.5Z"/>
        <path class="cls-19" d="M213.7,506.66c-.08,4.34-.53,8.68-1.08,12.99-.56,4.31-1.29,8.6-2.23,12.85-.98,4.24-2.18,8.43-3.76,12.48-1.62,4.02-3.61,7.99-6.6,11.17,1.46-1.61,2.66-3.44,3.69-5.34,1.05-1.9,1.94-3.88,2.73-5.9,1.55-4.05,2.72-8.24,3.66-12.48.97-4.23,1.73-8.51,2.32-12.81.3-2.15.55-4.31.77-6.47.22-2.16.44-4.32.5-6.49Z"/>
        <path class="cls-19" d="M198.38,540.83c-.2,1.7-.35,3.4-.47,5.11-.13,1.7-.24,3.41-.31,5.12-.14,3.41-.19,6.83,0,10.24.19,3.4.56,6.83,1.58,10.08.52,1.61,1.22,3.21,2.36,4.47.56.63,1.25,1.16,2.05,1.47.79.32,1.66.42,2.51.35-.85.1-1.73.01-2.53-.29-.81-.29-1.53-.81-2.12-1.44-1.19-1.27-1.92-2.88-2.46-4.5-.55-1.63-.89-3.32-1.14-5.02-.25-1.7-.41-3.41-.51-5.12-.17-3.42-.13-6.85.06-10.27.19-3.42.51-6.83,1-10.21Z"/>
        <path class="cls-19" d="M134.86,602.52c3.02.14,6.04.19,9.07.17,3.02-.02,6.04-.13,9.06-.26,6.03-.3,12.07-.88,18.01-2.02,1.49-.26,2.96-.6,4.44-.91,1.47-.36,2.94-.7,4.39-1.11,2.91-.79,5.79-1.71,8.6-2.82,2.8-1.12,5.57-2.33,8.18-3.85,2.62-1.5,5.11-3.22,7.4-5.19l.02.02c-4.49,4.08-9.86,7.1-15.5,9.3-1.4.57-2.84,1.06-4.27,1.54-1.45.44-2.89.9-4.36,1.27-2.92.79-5.89,1.41-8.87,1.92-2.98.53-5.98.93-8.98,1.28-3,.35-6.02.62-9.04.8-3.02.2-6.05.26-9.07.24-3.03-.01-6.05-.09-9.07-.34v-.03Z"/>
        <path class="cls-19" d="M213.38,553.87c1.05-.96,2.21-1.8,3.44-2.53,1.23-.73,2.53-1.32,3.88-1.81,1.35-.48,2.75-.79,4.17-.95,1.42-.19,2.86-.06,4.26.13l-1.06-.06-.53-.03-.53.02-1.06.03-1.05.12c-1.4.2-2.78.5-4.11,1-1.34.46-2.62,1.05-3.86,1.73-.62.34-1.23.71-1.82,1.1-.6.38-1.18.79-1.73,1.24Z"/>
        <path class="cls-19" d="M225.99,556.78c-1.1-.42-2.22-.79-3.35-1.1-1.13-.3-2.28-.58-3.44-.71-1.16-.16-2.33-.19-3.48-.01-1.14.19-2.26.67-3.07,1.54.36-.47.83-.85,1.35-1.15.52-.29,1.1-.48,1.68-.61,1.18-.23,2.38-.2,3.56-.06,1.18.16,2.34.43,3.46.78,1.13.36,2.23.78,3.29,1.31Z"/>
        <path class="cls-19" d="M209.86,584.71c1.07-.22,2.17-.24,3.26-.13,1.09.11,2.16.39,3.18.79,1.01.42,1.98.97,2.82,1.68.44.33.81.74,1.19,1.13.37.4.68.86,1.01,1.29-.72-.81-1.45-1.61-2.33-2.24-.42-.34-.88-.61-1.34-.9-.48-.24-.95-.51-1.45-.69-.99-.42-2.04-.69-3.1-.84-1.07-.15-2.15-.19-3.23-.09Z"/>
        <path class="cls-10" d="M162.55,640.32c.92.59,1.74,1.32,2.5,2.11.76.79,1.44,1.65,2.05,2.56.59.92,1.13,1.88,1.53,2.9.43,1.01.71,2.07.92,3.14-.33-1.04-.65-2.07-1.12-3.05-.44-.99-.96-1.94-1.57-2.83-.58-.91-1.25-1.76-1.97-2.57-.72-.81-1.5-1.57-2.34-2.26Z"/>
        <path class="cls-10" d="M133.66,626.94c.88-.53,1.73-1.1,2.56-1.69.83-.6,1.64-1.21,2.42-1.88.78-.66,1.51-1.37,2.2-2.12.68-.76,1.29-1.58,1.82-2.46-.43.93-1.01,1.8-1.66,2.6-.67.79-1.4,1.51-2.18,2.2-.79.66-1.61,1.28-2.48,1.85-.86.56-1.75,1.08-2.69,1.51Z"/>
        <path class="cls-10" d="M124.2,694.51c.17.81.38,1.6.63,2.38.25.78.53,1.55.9,2.28.35.74.78,1.43,1.26,2.09.51.64,1.1,1.2,1.77,1.69-.73-.38-1.39-.92-1.94-1.55-.54-.64-.97-1.36-1.35-2.1-.35-.76-.64-1.54-.85-2.34-.21-.8-.37-1.62-.42-2.45Z"/>
        <path class="cls-10" d="M202.64,712.52c-.3.56-.69,1.08-1.11,1.57-.42.49-.89.93-1.39,1.33-.5.4-1.06.74-1.64,1.02-.58.28-1.21.46-1.83.57.6-.22,1.19-.45,1.73-.76.54-.32,1.07-.65,1.56-1.05.99-.78,1.87-1.69,2.67-2.68Z"/>
        <path class="cls-10" d="M191.17,782.85c-1.29.09-2.59.08-3.89,0-1.3-.07-2.59-.23-3.87-.42-1.28-.21-2.56-.47-3.81-.82-1.26-.33-2.48-.78-3.68-1.26.62.18,1.23.4,1.86.56.62.18,1.24.35,1.87.49,1.25.3,2.52.56,3.8.75,1.27.22,2.56.37,3.84.48,1.29.11,2.58.2,3.87.21Z"/>
        <path class="cls-10" d="M137.11,783.58c-1.32.28-2.65.47-3.99.62-1.34.15-2.69.22-4.03.27-1.35.02-2.7,0-4.04-.11-1.34-.11-2.68-.32-3.99-.63,1.33.21,2.66.34,4,.42,1.34.06,2.68.09,4.02.05,1.34-.02,2.68-.1,4.02-.2,1.34-.11,2.68-.23,4.01-.4Z"/>
        <path class="cls-10" d="M194.01,607.86c.54.39,1.09.76,1.66,1.12.56.36,1.13.71,1.7,1.04,1.15.67,2.32,1.29,3.54,1.84,1.2.57,2.45,1.02,3.72,1.42.64.18,1.28.37,1.93.48.65.17,1.31.22,1.97.32-1.33-.05-2.67-.25-3.96-.6-1.29-.36-2.55-.82-3.77-1.37-1.21-.57-2.4-1.2-3.53-1.91-1.13-.71-2.23-1.48-3.25-2.34Z"/>
        <g>
          <path class="cls-10" d="M163.58,651.6s-.04,0-.06-.01c-.07-.03-.1-.12-.07-.19.37-.84.57-1.3.57-1.3.03-.07.12-.1.19-.07.07.03.1.12.07.19,0,0-.2.46-.57,1.3-.02.05-.08.09-.13.09Z"/>
          <path class="cls-10" d="M145.2,708.93s-.01,0-.02,0c-.08,0-.13-.08-.12-.16.11-.87.24-1.79.4-2.72.01-.08.09-.13.16-.12.08.01.13.09.12.16-.15.93-.28,1.84-.39,2.71,0,.07-.07.12-.14.12ZM146.07,703.52s-.02,0-.03,0c-.08-.01-.13-.09-.11-.17.17-.87.35-1.78.55-2.69.02-.08.09-.12.17-.11.08.02.13.09.11.17-.2.91-.39,1.82-.55,2.68-.01.07-.07.12-.14.12ZM147.24,698.16s-.02,0-.03,0c-.08-.02-.12-.09-.1-.17.21-.87.43-1.77.67-2.66.02-.08.09-.12.17-.1.08.02.12.1.1.17-.23.9-.46,1.79-.66,2.66-.02.06-.07.11-.14.11ZM148.62,692.84s-.03,0-.04,0c-.08-.02-.12-.1-.1-.17.24-.88.49-1.76.75-2.64.02-.08.1-.12.18-.1.08.02.12.1.1.18-.26.88-.51,1.76-.75,2.64-.02.06-.07.1-.14.1ZM150.15,687.57s-.03,0-.04,0c-.08-.02-.12-.1-.09-.18.27-.88.54-1.75.82-2.62.02-.07.1-.12.18-.09.07.02.12.1.09.18-.28.87-.55,1.75-.82,2.62-.02.06-.08.1-.14.1ZM151.81,682.34s-.03,0-.04,0c-.07-.02-.12-.1-.09-.18.29-.87.58-1.74.87-2.6.03-.07.11-.12.18-.09.07.02.11.11.09.18-.29.86-.58,1.73-.87,2.6-.02.06-.08.1-.13.1ZM153.57,677.15s-.03,0-.05,0c-.07-.03-.11-.11-.09-.18.3-.87.61-1.73.92-2.59.03-.07.11-.11.18-.09.07.03.11.11.09.18-.31.85-.61,1.71-.92,2.59-.02.06-.08.09-.13.09ZM155.43,671.98s-.03,0-.05,0c-.07-.03-.11-.11-.08-.18.32-.87.64-1.73.96-2.57.03-.07.11-.11.18-.08.07.03.11.11.08.18-.32.84-.64,1.7-.96,2.57-.02.06-.08.09-.13.09ZM157.36,666.84s-.03,0-.05,0c-.07-.03-.11-.11-.08-.18.34-.88.67-1.73.99-2.56.03-.07.11-.11.18-.08.07.03.11.11.08.18-.32.83-.66,1.68-.99,2.56-.02.06-.08.09-.13.09ZM159.36,661.73s-.04,0-.05,0c-.07-.03-.11-.11-.08-.18.36-.89.7-1.74,1.03-2.55.03-.07.11-.11.19-.08.07.03.11.11.08.19-.33.81-.67,1.66-1.03,2.54-.02.06-.08.09-.13.09ZM161.44,656.65s-.04,0-.05-.01c-.07-.03-.11-.11-.08-.19.39-.93.75-1.78,1.06-2.53.03-.07.12-.11.19-.08.07.03.11.11.08.19-.32.75-.67,1.6-1.06,2.53-.02.05-.08.09-.13.09Z"/>
          <path class="cls-10" d="M144.82,713.02h0c-.08,0-.14-.07-.13-.15.02-.47.06-.94.1-1.42,0-.08.07-.14.15-.13.08,0,.14.07.13.15-.04.48-.07.95-.1,1.41,0,.08-.07.13-.14.13Z"/>
        </g>
        <g>
          <path class="cls-10" d="M144.64,718.3s-.01,0-.02,0c-.08-.01-.13-.08-.12-.16l.18-1.41c0-.08.08-.13.16-.12.08,0,.13.08.12.16l-.18,1.41c0,.07-.07.12-.14.12Z"/>
          <path class="cls-10" d="M138.05,778.88s0,0-.01,0c-.08,0-.14-.08-.13-.15.08-.92.17-1.84.25-2.76,0-.08.08-.14.15-.13.08,0,.14.08.13.15-.09.92-.17,1.84-.25,2.76,0,.07-.07.13-.14.13ZM138.57,773.37s0,0-.01,0c-.08,0-.14-.08-.13-.15.09-.92.18-1.84.26-2.75,0-.08.08-.13.16-.13.08,0,.14.08.13.16-.09.91-.18,1.83-.26,2.75,0,.07-.07.13-.14.13ZM139.1,767.86s0,0-.01,0c-.08,0-.14-.08-.13-.16.09-.92.18-1.84.27-2.76,0-.08.08-.14.16-.13.08,0,.14.08.13.16-.09.91-.18,1.83-.27,2.76,0,.07-.07.13-.14.13ZM139.65,762.35s0,0-.01,0c-.08,0-.13-.08-.13-.16.09-.92.19-1.84.28-2.76,0-.08.08-.14.16-.13.08,0,.13.08.13.16-.09.91-.19,1.83-.28,2.76,0,.07-.07.13-.14.13ZM140.22,756.84s0,0-.02,0c-.08,0-.13-.08-.13-.16.1-.93.19-1.85.29-2.76,0-.08.08-.13.16-.13.08,0,.13.08.13.16-.1.91-.19,1.83-.29,2.76,0,.07-.07.13-.14.13ZM140.81,751.33s-.01,0-.02,0c-.08,0-.13-.08-.13-.16.1-.93.2-1.85.3-2.75,0-.08.08-.14.16-.13.08,0,.13.08.13.16-.1.91-.2,1.83-.3,2.75,0,.07-.07.13-.14.13ZM141.41,745.82s-.01,0-.02,0c-.08,0-.13-.08-.13-.16l.31-2.75c0-.08.08-.13.16-.13.08,0,.13.08.13.16l-.31,2.75c0,.07-.07.13-.14.13ZM142.03,740.31s-.01,0-.02,0c-.08,0-.13-.08-.13-.16l.31-2.75c0-.08.08-.13.16-.12.08,0,.13.08.13.16l-.31,2.75c0,.07-.07.13-.14.13ZM142.66,734.81s-.01,0-.02,0c-.08,0-.13-.08-.12-.16l.32-2.75c0-.08.08-.13.16-.12.08,0,.13.08.12.16l-.32,2.75c0,.07-.07.13-.14.13ZM143.3,729.3s-.01,0-.02,0c-.08,0-.13-.08-.12-.16.11-.97.22-1.88.33-2.75,0-.08.08-.13.16-.12.08,0,.13.08.12.16-.1.87-.21,1.79-.33,2.75,0,.07-.07.13-.14.13ZM143.96,723.8s-.01,0-.02,0c-.08,0-.13-.08-.12-.16l.34-2.75c0-.08.08-.13.16-.12.08,0,.13.08.12.16l-.34,2.75c0,.07-.07.12-.14.12Z"/>
          <path class="cls-10" d="M137.68,783.04s0,0-.01,0c-.08,0-.14-.08-.13-.15l.12-1.42c0-.08.08-.14.15-.13.08,0,.14.08.13.15l-.12,1.42c0,.07-.07.13-.14.13Z"/>
        </g>
        <g>
          <path class="cls-10" d="M179.51,710.09s-.01,0-.02,0c-.08,0-.13-.08-.12-.16.12-.92.19-1.41.19-1.41.01-.08.08-.13.16-.12.08.01.13.08.12.16,0,0-.07.49-.19,1.41,0,.07-.07.12-.14.12Z"/>
          <path class="cls-10" d="M174.75,774.93h0c-.08,0-.14-.07-.14-.14.01-.99.03-1.97.04-2.96,0-.08.06-.14.14-.14h0c.08,0,.14.07.14.14-.02.98-.03,1.97-.04,2.95,0,.08-.06.14-.14.14ZM174.86,769.02h0c-.08,0-.14-.07-.14-.15.02-.99.05-1.97.08-2.95,0-.08.07-.15.15-.14.08,0,.14.07.14.15-.03.98-.06,1.96-.08,2.95,0,.08-.07.14-.14.14ZM175.05,763.12h0c-.08,0-.14-.07-.14-.15.04-.99.08-1.98.12-2.96,0-.08.07-.14.15-.14.08,0,.14.07.14.15-.04.98-.08,1.97-.12,2.95,0,.08-.07.14-.14.14ZM175.31,757.21h0c-.08,0-.14-.07-.13-.15.05-.99.1-1.98.15-2.95,0-.08.08-.13.15-.13.08,0,.14.07.13.15-.05.98-.11,1.96-.15,2.95,0,.08-.07.13-.14.13ZM175.63,751.3h0c-.08,0-.14-.07-.13-.15.06-.99.12-1.98.19-2.95,0-.08.07-.15.15-.13.08,0,.14.07.13.15-.06.97-.13,1.96-.19,2.95,0,.08-.07.13-.14.13ZM176.02,745.4s0,0-.01,0c-.08,0-.14-.07-.13-.15.07-.99.14-1.98.22-2.95,0-.08.07-.14.15-.13.08,0,.14.07.13.15-.07.97-.15,1.95-.22,2.95,0,.07-.07.13-.14.13ZM176.47,739.5s0,0-.01,0c-.08,0-.14-.08-.13-.15.08-1,.16-1.98.24-2.95,0-.08.08-.14.15-.13.08,0,.14.08.13.15-.08.97-.16,1.95-.24,2.95,0,.07-.07.13-.14.13ZM176.96,733.61s0,0-.01,0c-.08,0-.14-.08-.13-.15.09-1,.18-1.99.27-2.95,0-.08.08-.14.15-.13.08,0,.14.08.13.15-.09.96-.18,1.94-.27,2.94,0,.07-.07.13-.14.13ZM177.52,727.72s0,0-.01,0c-.08,0-.14-.08-.13-.16.1-1.01.2-2,.3-2.94,0-.08.08-.13.16-.13.08,0,.13.08.13.16-.1.95-.2,1.93-.3,2.94,0,.07-.07.13-.14.13ZM178.12,721.84s-.01,0-.02,0c-.08,0-.13-.08-.13-.16.11-1.03.22-2.01.32-2.94,0-.08.08-.13.16-.12.08,0,.13.08.13.16-.1.93-.21,1.91-.32,2.94,0,.07-.07.13-.14.13ZM178.79,715.96s-.01,0-.02,0c-.08,0-.13-.08-.12-.16.13-1.09.25-2.07.35-2.94,0-.08.08-.13.16-.12.08,0,.13.08.12.16-.11.86-.23,1.85-.35,2.94,0,.07-.07.13-.14.13Z"/>
          <path class="cls-10" d="M174.73,779.29c-.08,0-.14-.06-.14-.14,0-.47,0-.95,0-1.42,0-.08.06-.14.14-.14h0c.08,0,.14.06.14.14,0,.47,0,.95,0,1.42,0,.08-.06.14-.14.14Z"/>
        </g>
        <g>
          <path class="cls-10" d="M171.73,658.89c-.07,0-.13-.05-.14-.12l-.24-1.4c-.01-.08.04-.15.12-.16.07-.02.15.04.16.12l.24,1.4c.01.08-.04.15-.12.16,0,0-.02,0-.02,0Z"/>
          <path class="cls-10" d="M178.91,699.16c-.07,0-.13-.05-.14-.12-.18-.96-.35-1.92-.53-2.87-.01-.08.04-.15.11-.17.07-.02.15.04.17.11.17.96.35,1.92.53,2.87.01.08-.04.15-.11.17,0,0-.02,0-.03,0ZM177.86,693.41c-.07,0-.13-.05-.14-.12l-.52-2.87c-.01-.08.04-.15.11-.17.08-.02.15.04.17.11l.52,2.87c.01.08-.04.15-.11.17,0,0-.02,0-.03,0ZM176.82,687.66c-.07,0-.13-.05-.14-.12l-.52-2.88c-.01-.08.04-.15.11-.16.07-.01.15.04.16.11l.52,2.88c.01.08-.04.15-.11.16,0,0-.02,0-.03,0ZM175.79,681.91c-.07,0-.13-.05-.14-.12l-.51-2.88c-.01-.08.04-.15.11-.16.08-.02.15.04.16.11l.51,2.88c.01.08-.04.15-.11.16,0,0-.02,0-.03,0ZM174.76,676.16c-.07,0-.13-.05-.14-.12l-.51-2.88c-.01-.08.04-.15.12-.16.07-.02.15.04.16.11l.51,2.88c.01.08-.04.15-.11.16,0,0-.02,0-.03,0ZM173.74,670.4c-.07,0-.13-.05-.14-.12l-.51-2.88c-.01-.08.04-.15.12-.16.07-.01.15.04.16.12l.51,2.88c.01.08-.04.15-.12.16,0,0-.02,0-.02,0ZM172.73,664.64c-.07,0-.13-.05-.14-.12l-.5-2.88c-.01-.08.04-.15.12-.16.08-.02.15.04.16.12l.5,2.88c.01.08-.04.15-.12.16,0,0-.02,0-.02,0Z"/>
          <path class="cls-10" d="M179.7,703.42c-.07,0-.13-.05-.14-.12l-.26-1.4c-.01-.08.04-.15.11-.17.08-.02.15.04.17.11l.26,1.4c.01.08-.04.15-.11.17,0,0-.02,0-.03,0Z"/>
        </g>
        <path class="cls-10" d="M162.47,611.23c-.16.9-.3,1.81-.41,2.72-.12.91-.23,1.82-.32,2.73-.17,1.82-.28,3.66-.2,5.48.09,1.81.27,3.69,1.14,5.28.42.79,1.15,1.43,2.03,1.62.88.21,1.81.03,2.68-.25-.85.32-1.78.56-2.71.39-.93-.17-1.73-.83-2.19-1.64-.49-.81-.75-1.72-.93-2.62-.17-.91-.26-1.83-.31-2.76-.05-1.85.05-3.69.27-5.52.22-1.83.53-3.64.95-5.43Z"/>
        <path class="cls-10" d="M168.14,610.75c-.09,2.35-.2,4.69-.24,7.03-.04,1.17-.03,2.34-.04,3.52,0,1.17.04,2.34.07,3.52-.32-2.33-.35-4.69-.32-7.04.04-1.17.08-2.35.17-3.52.09-1.17.19-2.34.35-3.51Z"/>
        <path class="cls-19" d="M208.86,581.23c1.06-1.5,1.84-3.19,2.43-4.91.58-1.73,1-3.53,1.16-5.35.06-.45.06-.91.09-1.37l.04-.68c0-.23-.01-.46-.01-.69l-.04-1.37-.14-1.37-.07-.68c-.03-.23-.08-.45-.12-.68l-.25-1.35c-.18-.9-.45-1.78-.67-2.67.27.88.58,1.75.81,2.64l.29,1.35c.05.23.1.45.14.68l.09.69.17,1.38.05,1.39c0,.23.02.46.02.69l-.03.69c-.03.46-.02.93-.08,1.38-.18,1.84-.6,3.66-1.24,5.39-.31.87-.7,1.71-1.12,2.53-.45.8-.93,1.59-1.51,2.31Z"/>
        <path class="cls-19" d="M209.86,580.57c.57-.3,1.13-.63,1.67-.99.55-.35,1.08-.71,1.59-1.1,1.03-.77,2.02-1.6,2.92-2.52.93-.89,1.72-1.91,2.45-2.97l.52-.81c.16-.28.3-.57.45-.85l.23-.43c.07-.15.12-.3.19-.45l.37-.9c-.38,1.24-.86,2.46-1.57,3.56-.7,1.1-1.51,2.13-2.43,3.05-.93.91-1.93,1.76-3,2.5-1.07.74-2.2,1.39-3.39,1.91Z"/>
        <path class="cls-19" d="M208.94,584.89c-.48,1.38-1.25,2.64-2.13,3.8-.45.57-.94,1.11-1.43,1.65l-.74.8c-.25.26-.47.54-.64.86-.69,1.26-.52,2.85.33,3.97.83,1.18,1.75,2.29,2.85,3.24l-.02.02c-1.21-.81-2.23-1.9-3.07-3.09-.45-.59-.73-1.33-.77-2.08-.05-.75.16-1.51.55-2.13.19-.32.45-.59.7-.85.25-.26.5-.52.73-.8.48-.54.89-1.14,1.31-1.73.84-1.17,1.63-2.38,2.29-3.67h.03Z"/>
        <path class="cls-19" d="M213.71,503.52c-.13-1.13-.14-2.28-.09-3.42.05-1.14.18-2.28.4-3.4.25-1.12.55-2.23,1.02-3.28.48-1.04,1.1-2.02,1.92-2.83-.72.88-1.28,1.87-1.72,2.91-.43,1.05-.72,2.14-.95,3.25-.24,1.1-.36,2.23-.46,3.36-.09,1.13-.14,2.27-.12,3.4Z"/>
        <path class="cls-19" d="M154.15,478.92c.24.71.6,1.37,1,2l.31.47.34.45c.21.3.47.57.72.86,1,1.1,2.16,2.05,3.42,2.84l.95.58c.33.18.66.34,1,.51.65.36,1.37.59,2.05.89.7.27,1.42.48,2.12.72l2.18.57-2.21-.44c-.72-.22-1.45-.4-2.16-.65-.7-.28-1.42-.51-2.09-.87-.34-.17-.68-.33-1.01-.5l-.97-.58c-1.26-.83-2.45-1.79-3.43-2.94-.97-1.15-1.79-2.46-2.2-3.91Z"/>
        <path class="cls-19" d="M175.34,489.39c1.08.02,2.16-.02,3.24-.12,1.08-.08,2.14-.23,3.21-.41,2.12-.37,4.22-.91,6.23-1.66,2.03-.71,3.94-1.74,5.73-2.93l1.32-.93,1.22-1.06.61-.53.55-.59,1.11-1.18c-1.38,1.66-2.87,3.26-4.69,4.47-1.78,1.23-3.71,2.28-5.75,3.02-2.04.74-4.15,1.29-6.29,1.61-2.14.32-4.32.45-6.48.31Z"/>
        <path class="cls-19" d="M186.89,551.91c-.81,2.62-1.86,5.16-3,7.66-1.14,2.5-2.41,4.94-3.83,7.29-1.41,2.36-2.95,4.63-4.62,6.81-1.67,2.17-3.42,4.29-5.33,6.26-3.83,3.92-8.26,7.34-13.26,9.65-4.98,2.37-10.48,3.52-15.96,3.59v-.03s2.05-.15,2.05-.15l1.02-.07,1.02-.15c.68-.1,1.36-.18,2.03-.3l2-.44c2.65-.67,5.26-1.53,7.71-2.72,4.95-2.32,9.39-5.65,13.27-9.5,1.91-1.96,3.73-4.02,5.36-6.22,1.64-2.2,3.14-4.49,4.52-6.86,1.37-2.37,2.67-4.78,3.84-7.26,1.16-2.48,2.24-5,3.15-7.59h.03Z"/>
        <g>
          <path class="cls-10" d="M132.21,513.97h-11.57c-1.26,0-2.38-.81-2.78-2l-9.68-29.12c-.33-1,.41-2.03,1.46-2.03h11.57c1.26,0,2.38.81,2.78,2l9.68,29.12c.33,1-.41,2.03-1.46,2.03Z"/>
          <path class="cls-6" d="M123.36,483.63c.86,2.41,1.7,4.82,2.52,7.24l2.45,7.27,2.39,7.29c.79,2.43,1.56,4.87,2.32,7.31-.86-2.41-1.7-4.82-2.52-7.24l-2.45-7.27-2.39-7.29c-.79-2.43-1.56-4.87-2.32-7.31Z"/>
          <path class="cls-6" d="M109.02,481.63c1.27-.05,2.54-.09,3.81-.11l3.81-.03,3.81.03c.65,0,1.31.18,1.84.56.52.38.91.94,1.09,1.55-.44-1.21-1.69-1.98-2.93-1.89l-3.81.03-3.81-.03c-1.27-.02-2.54-.06-3.81-.11Z"/>
          <path class="cls-6" d="M115.33,490h-2.51c-.27,0-.52-.18-.6-.44l-2.1-6.32c-.07-.22.09-.44.32-.44h2.51c.27,0,.52.18.6.44l2.1,6.32c.07.22-.09.44-.32.44Z"/>
        </g>
        <g>
          <path class="cls-17" d="M122.27,525.45s-6.92,4.19-10.28,1.06c0,0,.87-5.61.24-10.63l-1.23-3.44c-.13-.36-.36-.66-.67-.88h0c-.49-.34-.78-.9-.78-1.49v-1.86c0-.31-.08-.62-.23-.89l-.48-.85c-.32-.57-.31-1.27.03-1.83l4.79-7.96,6.61-4.94c.65-.48,1.57-.34,2.04.33h0c.41.59.33,1.39-.2,1.88l-5.69,5.27-2,3.71,3.78-1.96,4.89-2.82,5.95-2.38c.77-.31,1.66,0,2.06.73h0c.41.73.21,1.64-.46,2.14l-3.36,2.48,3.92-.97c.7-.17,1.44.16,1.77.8h0c.39.75.11,1.67-.62,2.08l-3.22,1.83-5.79,3.36c-1.14.66-2.1,1.58-2.8,2.68l-.56.87.74-.13c1.12-.2,2.19-.62,3.14-1.26,1.33-.89,3.14-2.08,3.34-2.15.22-.07,1.92-1.25,2.94-1.96.44-.31,1.04-.25,1.41.13h0c.43.44.42,1.16-.04,1.58l-3.29,3.04c-.31.28-.63.54-.98.77l-4.93,3.28s.79,4.02-.74,6.38l.71,3.99Z"/>
          <path class="cls-20" d="M127.27,500.77c-1.06.63-2.14,1.21-3.25,1.74-1.12.51-2.26.98-3.3,1.63-1.04.64-1.91,1.51-2.87,2.28-.95.78-1.92,1.54-2.92,2.26l-.02-.02c.89-.85,1.81-1.67,2.75-2.46.94-.78,1.88-1.61,2.98-2.19.54-.3,1.11-.54,1.65-.83.55-.28,1.08-.59,1.62-.88,1.09-.57,2.2-1.09,3.35-1.55v.03Z"/>
          <path class="cls-20" d="M119.96,511.42c-.1.28-.26.54-.45.78-.18.24-.4.45-.64.64-.47.37-1.04.64-1.64.71.26-.15.52-.27.76-.43.24-.15.48-.32.7-.49.45-.35.86-.75,1.26-1.19Z"/>
          <path class="cls-20" d="M119.93,515.93c-.64.61-1.53,1.03-2.45,1.01-.46-.01-.91-.16-1.3-.38-.2-.1-.38-.24-.56-.36l-.5-.44c-.31-.3-.73-.38-1.16-.52-.42-.14-.84-.27-1.26-.42-.45-.16-.83-.49-1.06-.89-.24-.42-.25-.88-.33-1.31h.03c.16.41.25.85.49,1.19.24.34.58.6.97.73.42.14.83.29,1.25.45.21.08.41.15.62.25.21.1.4.24.56.42.53.7,1.4,1.15,2.25,1.06.85-.03,1.68-.35,2.43-.8l.02.02Z"/>
          <path class="cls-20" d="M114.41,502.56c-.22.28-.48.51-.76.73-.27.22-.57.41-.88.59-.62.34-1.29.59-1.99.69.31-.16.63-.3.94-.46.31-.16.61-.31.91-.48.6-.33,1.19-.69,1.78-1.07Z"/>
        </g>
        <path class="cls-17" d="M205,593.3s7.9,1.09,10.61,7.41l-5.24,7.76-1.82,4.19s-9.78-.12-15.21-6.17h0c-1.17.27-2.19.97-2.85,1.98-.99,1.53-2.88,3.68-5.67,3.74-1.41.03-2.16-1.66-1.27-2.74.93-1.13,2.01-2.55,2.65-3.8.36-.72.85-1.36,1.47-1.88l2.92-2.42c.91-.75,2.03-1.2,3.2-1.29l4.65-.33c1.62-.12,3.08-.99,3.95-2.36l2.6-4.09Z"/>
        <g>
          <path class="cls-11" d="M146.42,441.75s-1.03,5.64.21,8.41c1.24,2.77,2.64,1.72,2.64,1.72,0,0-3.55-5.19-2.45-10.26l-.4.13Z"/>
          <path class="cls-11" d="M186.44,454.02l10.52-10.44s1.73,6.19-1.8,10.83c-2.2,2.89-.67,5.62-.67,5.62,0,0-3.3-.15-2.52-3.4,0,0,0,0,0,0-.11.19-1.2,1.21-1.11,4.36,0,0-1.2,0-1.61-.96-.28-.67.01-1.31.01-1.31-.82.65-1.97,1.04-2.78.63l1.23-1.66c-.3.38-1.24,1.4-3,1.85-2.5.65-3.96-.43-3.96-.43l5.69-5.11Z"/>
          <g>
            <g>
              <path class="cls-17" d="M186.59,467.7v-10.01h-24.77v18.32c0,.64-.38,1.21-.97,1.45l-2.85,1.18s3.95,8.02,19.32,7.17c13.57-.75,17.21-7.17,17.21-7.17,0,0-4.86-.73-7.09-6.29-.59-1.47-.84-3.06-.84-4.64Z"/>
              <rect class="cls-17" x="153.84" y="421.85" width="33" height="53.15" rx="15.22" ry="15.22" transform="translate(340.68 896.86) rotate(-180)"/>
              <path class="cls-20" d="M161.81,472.64v3.34s4.91-.23,8.61-2.25c0,0-3.49,1.28-8.61-1.09Z"/>
            </g>
            <g>
              <g>
                <path class="cls-11" d="M158.5,446.49c0,.82.66,1.49,1.49,1.49s1.49-.66,1.49-1.49-.66-1.49-1.49-1.49-1.49.66-1.49,1.49Z"/>
                <path class="cls-11" d="M157.22,444.68c.22-.17.46-.31.7-.44.12-.06.25-.12.37-.18.13-.05.25-.1.38-.14.52-.17,1.06-.27,1.6-.25.14-.01.27.02.4.03l.2.02c.07,0,.13.03.2.04l.4.08c.13.04.26.09.39.13l.2.06.19.08.38.17c.25.12.48.27.73.4-.22-.16-.45-.33-.68-.48l-.37-.2-.19-.1-.2-.08c-.13-.05-.26-.1-.39-.15-.14-.04-.27-.07-.41-.1-.07-.02-.14-.03-.21-.04l-.21-.02c-.14,0-.28-.04-.42-.03-.57-.02-1.13.1-1.65.31-.52.21-1.01.51-1.4.9Z"/>
              </g>
              <g>
                <path class="cls-11" d="M174.09,446.49c0,.82.66,1.49,1.49,1.49s1.49-.66,1.49-1.49-.66-1.49-1.49-1.49-1.49.66-1.49,1.49Z"/>
                <path class="cls-11" d="M172.8,444.68c.22-.17.46-.31.7-.44.12-.06.25-.12.37-.18.13-.05.25-.1.38-.14.52-.17,1.06-.27,1.6-.25.14-.01.27.02.4.03l.2.02c.07,0,.13.03.2.04l.4.08c.13.04.26.09.39.13l.2.06.19.08.38.17c.25.12.48.27.73.4-.22-.16-.45-.33-.68-.48l-.37-.2-.19-.1-.2-.08c-.13-.05-.26-.1-.39-.15-.14-.04-.27-.07-.41-.1-.07-.02-.14-.03-.21-.04l-.21-.02c-.14,0-.28-.04-.42-.03-.57-.02-1.13.1-1.65.31-.52.21-1.01.51-1.4.9Z"/>
              </g>
              <path class="cls-11" d="M166.3,450.89c-.13.63-.24,1.26-.34,1.9-.11.63-.2,1.27-.29,1.9-.04.31-.1.65-.06.98.03.33.11.66.26.96.15.3.36.57.66.74.29.15.57.3.86.45-.27-.18-.54-.35-.81-.53-.26-.17-.45-.43-.57-.72-.12-.29-.19-.59-.21-.9-.03-.31.03-.62.07-.94.09-.64.17-1.27.25-1.91.07-.64.14-1.28.19-1.92Z"/>
              <path class="cls-3" d="M166.03,460.81c.27.66.78,1.14,1.42,1.45.63.32,1.47.38,2.21.13.74-.25,1.34-.77,1.69-1.37.18-.3.3-.62.37-.96.06-.34.09-.68,0-1.03-.32.19-.6.37-.86.53-.23.15-.44.28-.65.4-.44.25-.81.43-1.18.55-.18.06-.37.11-.57.14-.1.03-.21.03-.32.05-.11,0-.23.03-.35.03-.27.02-.56.03-.88.04-.27,0-.57.01-.89.03Z"/>
              <path class="cls-18" d="M166.92,460.78c.15.15.33.27.52.38.51.28,1.21.35,1.83.14.62-.21,1.12-.65,1.38-1.16.09-.18.17-.37.21-.57-.23.15-.44.28-.65.4-.44.25-.81.43-1.18.55-.18.06-.37.11-.57.14-.1.03-.21.03-.32.05-.11,0-.23.03-.35.03-.27.02-.56.03-.88.04Z"/>
              <path class="cls-11" d="M157.22,440.54c.68-.04,1.2-.08,1.7-.1.49-.02.91-.03,1.34-.02.05,0,.11,0,.16,0h.16c.05,0,.11,0,.16,0,.06,0,.11.01.17.01.11,0,.23,0,.34,0,.12.01.23.02.36.03.06,0,.13,0,.19,0,.06,0,.13.02.19.02.13.01.27.02.41.02.28.02.58.04.94.01-.05-.16-.12-.31-.2-.46-.08-.14-.16-.29-.27-.41-.1-.12-.22-.24-.33-.35-.06-.06-.12-.11-.18-.16-.07-.05-.13-.09-.2-.14-.14-.09-.28-.17-.42-.25-.15-.07-.31-.12-.47-.17-.08-.03-.16-.05-.24-.07l-.25-.04c-.17-.02-.33-.06-.5-.05-.68-.02-1.36.18-1.91.54-.07.04-.13.1-.2.15-.06.05-.13.1-.19.16-.12.11-.23.23-.33.36-.2.26-.37.55-.43.9Z"/>
              <path class="cls-11" d="M172.8,440.54c.68-.04,1.2-.08,1.7-.1.49-.02.91-.03,1.34-.02.05,0,.11,0,.16,0h.16c.05,0,.11,0,.16,0,.06,0,.11.01.17.01.11,0,.23,0,.34,0,.12.01.23.02.36.03.06,0,.13,0,.19,0,.06,0,.13.02.19.02.13.01.27.02.41.02.28.02.58.04.94.01-.05-.16-.12-.31-.2-.46-.08-.14-.16-.29-.27-.41-.1-.12-.22-.24-.33-.35-.06-.06-.12-.11-.18-.16-.07-.05-.13-.09-.2-.14-.14-.09-.28-.17-.42-.25-.15-.07-.31-.12-.47-.17-.08-.03-.16-.05-.24-.07l-.25-.04c-.17-.02-.33-.06-.5-.05-.68-.02-1.36.18-1.91.54-.07.04-.13.1-.2.15-.06.05-.13.1-.19.16-.12.11-.23.23-.33.36-.2.26-.37.55-.43.9Z"/>
            </g>
          </g>
          <g>
            <path class="cls-11" d="M178.88,429.08c-.99-2.26-3.52-3.45-5.88-2.71-1.77.56-3.92,2.04-6.13,5.43-.78,1.19-1.43,2.47-1.99,3.8-1,2.38-4.01,8.16-10.42,10.24l-.62,9.67-.24-.11c-3.69-2.85-6.25-7.11-7.1-11.93-.06-.37-.12-.74-.18-1.12,0,0,.17,1.26-.85,2.14-.93.8-2.35.45-2.35.45,0,0,2.65-3.38,1.41-9.41-1.12-5.45,1.23-8.95,6.16-11.65,0,0-3.6.46-4.24-2.88,0,0,7.91,3.49,13.33-2.92,6.65-7.87,15.19-6.65,17.11.44,0,0,1.82-4.04,4.89-1.67,3.07,2.37,6.13,6.25,11.13,8.38,5,2.13,1.32,15.52,8.9,18.51,0,0-4.07,1.8-5.42-2.71,0,0,4.22,9.96-9.64,16.65l1.02-9.62s-5.73-1.11-6.77-7.96c-.79-5.26-.97-8.4-2.12-11.04Z"/>
            <path class="cls-11" d="M176.95,418.53c.33-.62.73-1.21,1.19-1.7.46-.49,1.01-.87,1.59-1.01.29-.07.59-.09.9-.05.3.03.6.14.9.26.59.25,1.17.6,1.72,1.01,1.12.81,2.11,1.86,2.89,3.04.4.58.73,1.21,1.19,1.8.46.59,1.05,1.09,1.69,1.47.64.39,1.31.67,1.98.94l.51.2.51.18c.34.12.68.23,1.03.34.36.11.66.19.96.31.29.12.57.27.82.44.24.18.46.38.63.63.17.24.3.52.4.81.19.6.23,1.28.23,1.97,0,.69-.05,1.4-.07,2.11-.03.71-.03,1.44.03,2.16.07.72.2,1.44.47,2.11l.1-.03c-.27-1.39-.12-2.79.06-4.19.09-.7.19-1.41.25-2.14.05-.73.05-1.49-.14-2.26-.1-.38-.26-.77-.49-1.12-.23-.35-.52-.65-.85-.9-.33-.25-.68-.44-1.04-.59-.36-.15-.74-.25-1.07-.35-1.35-.38-2.7-.77-3.94-1.35-.16-.07-.3-.15-.45-.23-.15-.08-.29-.17-.44-.25-.28-.19-.55-.38-.79-.62-.49-.47-.89-1.07-1.32-1.64-.42-.58-.86-1.14-1.29-1.72-.44-.57-.89-1.14-1.4-1.66-.52-.52-1.11-1-1.83-1.31-.36-.15-.75-.26-1.15-.29-.4-.04-.82,0-1.21.13-.39.13-.75.33-1.05.58-.3.25-.56.54-.77.85-.21.31-.39.64-.53.98-.14.34-.25.69-.32,1.05l.09.03Z"/>
            <path class="cls-11" d="M177.56,427.14c-.32-.3-.73-.5-1.16-.62-.43-.12-.88-.16-1.33-.13-.22,0-.44.04-.66.07-.22.05-.43.09-.65.16-.43.12-.83.29-1.22.5-.77.42-1.44.98-2.1,1.53-.66.55-1.3,1.12-1.93,1.71-.63.59-1.21,1.23-1.75,1.91-.53.68-1.04,1.37-1.5,2.11-.9,1.47-1.67,3.01-2.24,4.63l.05.03c.92-1.45,1.79-2.91,2.72-4.32l.34-.53.35-.53c.23-.36.48-.7.72-1.05.25-.34.5-.69.76-1.02l.38-.51.4-.5c.54-.65,1.14-1.27,1.81-1.78.67-.52,1.44-.9,2.2-1.23.76-.33,1.54-.61,2.35-.72.81-.11,1.65-.05,2.41.34l.04-.05Z"/>
            <path class="cls-11" d="M188.14,448.04c-1.11-.11-2.21-.3-3.24-.67-.51-.18-1.01-.4-1.48-.66-.47-.27-.91-.57-1.32-.92-.41-.35-.79-.74-1.13-1.17-.33-.43-.61-.91-.83-1.42-.43-1.02-.6-2.14-.61-3.24,0-1.11.11-2.21.27-3.3.18-1.11.3-2.25.27-3.38-.03-1.14-.2-2.29-.58-3.37-.1-.27-.2-.54-.33-.79-.12-.26-.26-.51-.42-.75-.16-.24-.34-.47-.53-.67-.2-.21-.41-.4-.66-.55l-.03.05c.41.37.71.84.95,1.33.25.49.43,1,.57,1.53.27,1.06.39,2.15.39,3.24.02,1.1-.05,2.19-.19,3.3-.14,1.12-.15,2.26-.04,3.39.12,1.12.35,2.24.74,3.3.39,1.06.96,2.09,1.8,2.89.42.4.9.74,1.41,1.01.51.27,1.05.49,1.6.64,1.1.31,2.25.4,3.37.29v-.06Z"/>
            <path class="cls-11" d="M144.86,436.31c.02-.34.01-.68,0-1.01-.01-.33-.02-.66-.05-.98-.02-.32-.03-.64-.07-.96-.02-.32-.04-.64-.09-.96-.07-.63-.22-1.29-.16-1.94.02-.33.1-.64.18-.95.11-.31.22-.61.38-.89.14-.29.33-.55.49-.81.09-.13.17-.26.26-.38l.28-.37c.39-.48.84-.88,1.32-1.27.47-.38.99-.73,1.53-1.04.55-.31,1.14-.58,1.76-.82v-.1c-.7-.09-1.39.01-2.06.2-.67.19-1.31.5-1.88.92-.57.42-1.05.96-1.43,1.56-.09.15-.18.3-.27.45-.08.16-.15.31-.22.48-.07.16-.12.33-.17.49-.06.16-.09.33-.13.5-.15.67-.25,1.33-.37,1.99-.13.66-.29,1.32-.35,2.01-.01.34,0,.68.04,1.01.05.33.1.67.18,1,.09.33.17.65.29.97.13.31.26.62.43.92l.1-.02Z"/>
          </g>
          <g>
            <rect class="cls-17" x="184.52" y="446.24" width="7" height="11.62" rx="3.23" ry="3.23" transform="translate(376.04 904.09) rotate(-180)"/>
            <g>
              <path class="cls-20" d="M187.98,449.49c.35.11.64.3.83.57.2.26.33.57.4.89.14.64.1,1.33-.13,1.93-.12.3-.28.57-.5.79-.11.11-.24.21-.35.27-.05.03-.1.04-.12.04-.02,0-.05,0-.08-.04-.07-.08-.13-.24-.17-.4-.04-.16-.06-.33-.08-.51-.04-.35-.05-.71-.06-1.07-.11.35-.18.7-.21,1.07-.02.18-.02.37,0,.56.02.19.04.39.18.61.07.1.2.21.35.25.15.03.29,0,.4-.04.22-.09.38-.2.53-.33.31-.27.53-.62.68-.98.28-.74.29-1.55.02-2.28-.07-.18-.15-.36-.26-.52-.11-.16-.24-.31-.38-.44-.3-.26-.69-.39-1.05-.36Z"/>
              <path class="cls-20" d="M187.22,450.94c.07-.23.11-.44.15-.64.03-.2.06-.39.1-.55.04-.17.08-.3.16-.4.08-.11.26-.19.49-.28-.18-.16-.46-.24-.74-.12-.14.06-.26.17-.33.29-.08.12-.13.25-.16.37-.06.25-.04.49.01.71.06.22.15.44.32.62Z"/>
            </g>
          </g>
          <path class="cls-11" d="M196.38,440.88c.11.61.25,1.19.4,1.76.07.29.15.57.23.85.07.28.16.56.26.84.2.55.47,1.1.57,1.69.11.58.08,1.19-.03,1.77l-.09.43c-.04.14-.07.28-.1.43-.03.14-.07.28-.1.42-.03.14-.07.28-.11.42-.07.28-.17.54-.26.81-.11.26-.19.53-.31.79-.39,1.06-.96,2.04-1.59,3.11l.07.07c.13-.08.27-.16.4-.25.13-.09.26-.17.38-.28.12-.1.24-.2.36-.31.11-.11.22-.22.32-.34.22-.23.4-.49.58-.75.16-.27.33-.54.46-.84.14-.29.23-.59.32-.9.07-.31.14-.62.18-.93.02-.16.05-.31.06-.47.01-.16.03-.31.02-.47,0-.16,0-.31-.02-.47l-.05-.47c-.08-.62-.16-1.22-.2-1.82-.04-.6,0-1.23-.09-1.85-.04-.31-.12-.61-.22-.9-.1-.29-.22-.58-.35-.86-.27-.55-.59-1.09-1.04-1.54l-.09.05Z"/>
          <path class="cls-11" d="M168.3,412.78c-.38-.08-.76-.1-1.14-.08-.38.01-.76.06-1.14.14-.37.08-.74.18-1.1.32l-.27.1c-.09.04-.17.08-.26.12-.17.08-.34.17-.51.27-.32.21-.64.42-.92.68-.14.12-.3.23-.44.36-.14.13-.28.25-.43.36-.07.06-.15.12-.22.17l-.22.18c-.14.12-.29.23-.44.34-.3.23-.59.47-.89.69-.15.11-.29.25-.43.37-.14.12-.28.25-.42.38-.27.25-.52.5-.77.75-.13.12-.27.23-.4.35-.14.11-.26.24-.4.34-.28.2-.55.43-.84.6l-.21.15c-.07.05-.15.08-.22.13l-.22.12-.11.06-.11.05c-.3.14-.61.26-.94.34-.64.16-1.35.17-2.04-.1l-.06.08c.54.59,1.39.82,2.2.8.82-.02,1.61-.32,2.28-.73.35-.2.65-.45.94-.71.29-.26.55-.55.81-.83.24-.29.49-.59.71-.89.22-.28.41-.6.63-.88.12-.14.23-.28.35-.42.12-.14.23-.28.37-.4.13-.12.27-.24.41-.36.07-.06.14-.12.21-.17.07-.05.15-.1.23-.15.15-.1.31-.19.47-.28.16-.08.33-.16.5-.23.33-.15.68-.26,1.01-.4.17-.07.33-.12.5-.2.08-.03.16-.07.24-.11.08-.03.16-.07.25-.1.33-.14.66-.27.99-.4.67-.25,1.35-.48,2.07-.7v-.1Z"/>
          <path class="cls-2" d="M148.75,423.68c1.01.41,2.12.6,3.22.6,1.1,0,2.21-.19,3.25-.58.52-.2,1.02-.43,1.5-.71.24-.13.47-.3.7-.45.22-.17.45-.32.65-.51.84-.71,1.57-1.55,2.16-2.47-.72.82-1.5,1.58-2.35,2.23-.1.08-.21.16-.33.24l-.33.23c-.23.14-.45.29-.69.41-.46.26-.95.49-1.45.67-1,.38-2.06.58-3.12.64-.53.03-1.07.02-1.61-.03-.54-.04-1.07-.13-1.6-.26Z"/>
          <path class="cls-2" d="M145.41,444.54c.31-.19.55-.47.74-.77.19-.31.35-.64.45-.99.22-.69.3-1.43.27-2.15,0-.18-.02-.36-.04-.54l-.05-.54c-.07-.35-.12-.71-.21-1.05-.1-.34-.19-.69-.3-1.03-.13-.33-.25-.67-.4-.99.06.35.13.7.21,1.04.07.34.12.69.19,1.04.05.35.09.69.14,1.04l.04.52c.02.17.03.35.03.52v.52s-.02.52-.02.52c-.03.34-.07.68-.15,1.02-.07.34-.18.66-.32.98-.14.32-.33.61-.57.87Z"/>
          <path class="cls-2" d="M159.05,443.39c-.66.48-1.34.91-2.03,1.31-.7.39-1.42.74-2.17,1.01-.37.14-.75.26-1.14.36-.38.11-.77.17-1.17.23-.79.11-1.59.11-2.4.01.77.25,1.61.35,2.43.29.83-.05,1.64-.24,2.41-.53.38-.15.76-.31,1.13-.5.36-.19.72-.39,1.06-.62.68-.45,1.33-.97,1.87-1.57Z"/>
          <path class="cls-2" d="M169.16,423.89c-.75.29-1.44.73-2.05,1.25-.61.53-1.15,1.14-1.61,1.81-.93,1.33-1.58,2.82-2.17,4.3-.58,1.49-1.08,3.01-1.66,4.49-.3.74-.61,1.47-.99,2.16-.37.7-.82,1.36-1.37,1.94.61-.52,1.1-1.17,1.54-1.84.43-.68.79-1.41,1.11-2.14.65-1.47,1.17-2.98,1.75-4.46.28-.74.59-1.48.92-2.19.33-.72.7-1.42,1.13-2.08.85-1.32,1.97-2.5,3.41-3.23Z"/>
          <path class="cls-2" d="M169.16,423.89c.38-.1.75-.22,1.11-.34l.56-.13c.19-.04.37-.1.56-.12.19-.02.38-.05.56-.08.09-.01.19-.03.28-.04h.28c.19-.01.38-.04.56-.03l.56.04c.74.08,1.47.3,2.13.65.66.35,1.27.84,1.76,1.44-.35-.7-.93-1.28-1.6-1.71l-.25-.16-.27-.13-.27-.13c-.09-.04-.19-.07-.28-.1-.19-.06-.38-.13-.58-.16l-.29-.06c-.1-.02-.2-.04-.3-.05l-.6-.03c-.2,0-.4.02-.6.03l-.3.02c-.1,0-.19.03-.29.05-.19.04-.39.08-.58.12-.38.1-.75.24-1.12.37-.35.17-.71.34-1.05.52Z"/>
          <path class="cls-2" d="M197.38,446.79c.1-.77.13-1.56.03-2.35l-.04-.29c-.02-.1-.04-.19-.06-.29-.02-.1-.04-.19-.07-.29l-.09-.29c-.12-.38-.28-.74-.44-1.1-.34-.71-.69-1.39-.97-2.1-.29-.71-.52-1.45-.76-2.19.08.78.23,1.55.47,2.3.12.38.27.74.42,1.1.16.36.33.71.49,1.06.34.69.6,1.4.75,2.15.16.75.21,1.52.27,2.29Z"/>
          <path class="cls-2" d="M190.72,446.24c-.54-.27-1.05-.59-1.53-.94-.49-.34-.95-.72-1.39-1.12-.88-.8-1.68-1.69-2.34-2.67-.17-.24-.33-.5-.48-.75-.15-.26-.3-.51-.43-.78-.28-.52-.52-1.07-.74-1.62-.42-1.11-.74-2.27-.97-3.45.07,1.2.29,2.4.68,3.56.38,1.15.93,2.26,1.62,3.26.69,1.01,1.52,1.91,2.46,2.68.94.77,1.99,1.42,3.13,1.82Z"/>
          <path class="cls-2" d="M177.56,420.49c.03-.59.1-1.17.27-1.71.09-.26.2-.52.37-.71.16-.2.38-.32.63-.35.5-.07,1.06.14,1.57.39.52.25,1.01.56,1.52.87-.41-.43-.86-.82-1.37-1.14-.25-.17-.53-.29-.82-.4-.3-.09-.62-.15-.95-.11-.33.05-.66.23-.86.5-.2.27-.32.57-.38.87-.13.6-.1,1.21.03,1.79Z"/>
          <path class="cls-2" d="M176.9,421.97c-.44-1.21-1.32-2.24-2.39-2.98-.53-.38-1.12-.67-1.73-.9-.61-.22-1.25-.38-1.89-.48-1.28-.2-2.61-.13-3.86.2-1.25.33-2.44.91-3.41,1.74.53-.36,1.1-.65,1.68-.89.58-.24,1.19-.43,1.8-.56,1.23-.26,2.5-.31,3.73-.11,1.24.19,2.44.59,3.5,1.26.53.33,1.02.73,1.45,1.18.44.45.82.97,1.1,1.54Z"/>
          <g>
            <path class="cls-2" d="M149.71,438.65c-.43-.4-.7-.9-.86-1.42-.15-.53-.17-1.09-.11-1.64,0-.28.09-.55.13-.82.07-.27.15-.54.22-.81.1-.26.18-.54.28-.81.11-.27.22-.53.31-.81-.17.23-.33.48-.48.73-.15.25-.27.52-.4.78-.06.13-.11.27-.16.41-.05.14-.1.28-.14.42l-.1.43c-.04.14-.05.29-.07.44-.04.3-.03.6,0,.9l.08.45c.04.15.09.29.14.43.23.56.62,1.06,1.15,1.32Z"/>
            <path class="cls-2" d="M151.71,438.91c-.26,0-.51-.05-.74-.13-.23-.08-.42-.21-.58-.37-.15-.17-.28-.36-.38-.57-.05-.11-.08-.22-.13-.33-.03-.12-.06-.23-.09-.35l-.35.04c.03.24.06.49.1.73.04.24.09.48.16.72.04-.25.06-.49.07-.74.01-.25.02-.49.02-.74l-.35.04c.02.13.04.27.07.4.04.13.08.26.14.39.11.25.28.49.5.68.22.18.5.3.77.33.27.04.55,0,.79-.1Z"/>
            <path class="cls-2" d="M155.65,427.76c-.88.6-1.65,1.34-2.33,2.17-.34.41-.65.85-.94,1.3-.28.46-.52.94-.73,1.43-.21.5-.37,1.02-.48,1.54-.11.53-.17,1.07-.16,1.61,0,.27.02.54.04.81.05.27.07.53.14.79.11.52.3,1.02.52,1.51-.13-.51-.27-1.02-.33-1.54-.05-.26-.05-.52-.07-.78,0-.26-.02-.52,0-.78,0-.26.05-.52.07-.77.05-.25.08-.51.15-.76.12-.5.27-1,.48-1.47.39-.96.93-1.86,1.54-2.7.62-.84,1.32-1.63,2.09-2.36Z"/>
          </g>
          <path class="cls-2" d="M164.42,428.81c-.37.68-.75,1.35-1.16,2.01-.4.66-.81,1.31-1.24,1.95-.43.64-.87,1.27-1.34,1.88-.46.61-.94,1.22-1.45,1.79-1.01,1.15-2.13,2.22-3.39,3.07-.63.42-1.31.78-2.03,1.04-.72.27-1.48.41-2.25.43.77.07,1.56-.04,2.31-.25.75-.22,1.47-.55,2.14-.97.67-.41,1.29-.89,1.88-1.41.58-.52,1.13-1.08,1.65-1.67,1.03-1.18,1.94-2.44,2.75-3.77.81-1.32,1.54-2.7,2.14-4.13Z"/>
          <path class="cls-2" d="M193.52,453.97c-.32.29-.62.59-.89.92-.27.33-.5.71-.68,1.11-.17.41-.27.85-.26,1.3,0,.44.13.88.35,1.25-.06-.43-.09-.84-.04-1.24.05-.4.16-.79.32-1.16.15-.37.36-.73.57-1.09.21-.36.45-.71.64-1.1Z"/>
          <path class="cls-2" d="M193.54,433.33c-.14.87-.22,1.75-.28,2.63-.03.44-.05.88-.06,1.32,0,.44-.02.88,0,1.32.02,1.76.15,3.53.43,5.27.08.43.15.87.24,1.3l.29,1.29c.2.85.37,1.71.48,2.57.1.86.14,1.73-.03,2.57-.08.42-.22.83-.41,1.22-.19.39-.42.76-.66,1.14.57-.66,1.09-1.42,1.31-2.3.23-.87.23-1.79.15-2.67-.04-.44-.11-.88-.19-1.32-.08-.44-.17-.87-.28-1.3-.1-.43-.19-.85-.29-1.28-.09-.43-.16-.86-.25-1.29-.3-1.72-.46-3.47-.54-5.22-.07-1.75-.05-3.51.1-5.26Z"/>
          <path class="cls-2" d="M199.46,444.05c-.77-.23-1.42-.63-1.98-1.13-.27-.26-.54-.53-.78-.83-.07-.07-.12-.15-.18-.23l-.18-.23c-.11-.16-.22-.33-.35-.49.05.2.11.39.17.58.09.18.16.37.27.55.2.35.47.67.77.96.31.27.67.5,1.05.65.38.15.8.24,1.2.19Z"/>
          <path class="cls-2" d="M184.04,427.76c.64.74,1.27,1.48,1.87,2.24.6.76,1.16,1.55,1.62,2.39.47.83.85,1.72,1.1,2.65.25.93.38,1.89.43,2.87.12-.97.08-1.97-.12-2.94-.2-.97-.57-1.9-1.06-2.77-.49-.86-1.08-1.66-1.73-2.39-.65-.74-1.36-1.42-2.11-2.04Z"/>
          <path class="cls-2" d="M177.72,422.96c.09-.53.21-1.06.39-1.57.09-.25.19-.5.32-.73.13-.22.3-.44.52-.53.21-.1.45-.03.66.11.2.15.39.34.56.54.33.4.54.88.7,1.38.17.5.28,1.03.45,1.55.16.52.37,1.04.63,1.53.52.98,1.25,1.82,2.09,2.51-.71-.83-1.33-1.71-1.78-2.67-.11-.24-.22-.48-.31-.73-.1-.25-.18-.5-.26-.76-.15-.51-.29-1.04-.47-1.56-.18-.52-.44-1.04-.84-1.46-.19-.21-.41-.38-.65-.54-.12-.08-.26-.14-.42-.17-.15-.03-.32,0-.46.07-.28.15-.44.4-.57.64-.13.25-.22.51-.29.77-.15.53-.24,1.06-.28,1.6Z"/>
          <path class="cls-2" d="M186.43,420.49c.07.37.25.71.45,1.02.1.16.22.31.33.46.12.14.24.29.38.42.26.27.56.51.85.74l.47.32c.16.11.32.19.48.29.32.19.67.34,1.01.5.35.14.69.27,1.05.4.36.11.71.21,1.07.3.36.07.73.15,1.09.21-.34-.14-.69-.27-1.04-.39l-1.02-.41c-.33-.15-.67-.29-1-.45-.32-.17-.66-.31-.97-.5-.64-.34-1.24-.75-1.79-1.22-.14-.11-.26-.25-.4-.37-.13-.13-.25-.26-.37-.4-.24-.27-.45-.57-.61-.91Z"/>
        </g>
      </g>
      <path class="cls-9" d="M624.44,270.03h-340.53c-.75-.02-1.34-.69-1.33-1.49.02-.78.6-1.41,1.33-1.43h340.53c.75.02,1.34.69,1.33,1.49-.02.78-.6,1.41-1.33,1.43Z"/>
      <ellipse class="cls-22" cx="310.22" cy="250.15" rx="8.95" ry="9.15"/>
      <ellipse class="cls-14" cx="341.14" cy="250.15" rx="8.95" ry="9.15"/>
      <ellipse class="cls-1" cx="372.07" cy="250.15" rx="8.95" ry="9.15"/>
      <path class="cls-22" d="M608.26,246.4h-21.97c-.92.02-1.65.78-1.63,1.7.02.89.74,1.61,1.63,1.63h21.97c.92-.02,1.65-.78,1.63-1.7-.02-.89-.74-1.61-1.63-1.63Z"/>
      <path class="cls-22" d="M608.26,252.65h-21.97c-.92.02-1.65.78-1.63,1.7.02.89.74,1.61,1.63,1.63h21.97c.92-.02,1.65-.78,1.63-1.7-.02-.89-.74-1.61-1.63-1.63Z"/>
      <path class="cls-22" d="M608.26,258.88h-21.97c-.92.02-1.65.78-1.63,1.7.02.89.74,1.61,1.63,1.63h21.97c.92-.02,1.65-.78,1.63-1.7-.02-.89-.74-1.61-1.63-1.63Z"/>
      <circle class="cls-12" cx="522.43" cy="318.61" r="11.07"/>
      <path class="cls-12" d="M615.71,343.12h-101.05c-1.82,0-3.3-1.47-3.3-3.29s1.47-3.3,3.29-3.3c0,0,0,0,.01,0h101.05c1.82,0,3.3,1.47,3.3,3.29s-1.47,3.3-3.29,3.3c0,0,0,0-.01,0Z"/>
      <path class="cls-12" d="M539.75,356.14h-25.1c-1.82,0-3.3-1.48-3.3-3.3s1.48-3.3,3.3-3.3h25.1c1.82,0,3.3,1.48,3.3,3.3s-1.48,3.3-3.3,3.3Z"/>
      <circle class="cls-12" cx="522.43" cy="491.35" r="11.07"/>
      <path class="cls-12" d="M615.71,515.86h-101.05c-1.82,0-3.3-1.48-3.3-3.3s1.48-3.3,3.3-3.3h101.05c1.82,0,3.3,1.48,3.3,3.3s-1.48,3.3-3.3,3.3h0Z"/>
      <path class="cls-12" d="M539.75,528.88h-25.1c-1.82,0-3.3-1.47-3.3-3.29,0-1.82,1.47-3.3,3.29-3.3h25.11c1.82,0,3.29,1.48,3.29,3.3,0,1.82-1.47,3.29-3.29,3.29Z"/>
      <circle class="cls-12" cx="522.43" cy="398.47" r="11.07"/>
      <path class="cls-12" d="M615.71,422.98h-101.05c-1.82,0-3.3-1.48-3.3-3.3s1.48-3.3,3.3-3.3h101.05c1.82,0,3.3,1.48,3.3,3.3s-1.48,3.3-3.3,3.3h0Z"/>
      <path class="cls-12" d="M575.38,436h-60.72c-1.82,0-3.3-1.47-3.3-3.29,0-1.82,1.47-3.3,3.29-3.3h60.73c1.82,0,3.29,1.48,3.29,3.3,0,1.82-1.47,3.29-3.29,3.29Z"/>
      <path class="cls-12" d="M558.46,449.02h-43.8c-1.82,0-3.3-1.47-3.3-3.29,0-1.82,1.47-3.3,3.29-3.3h43.81c1.82,0,3.29,1.48,3.29,3.3,0,1.82-1.47,3.29-3.29,3.29Z"/>
      <path class="cls-5" d="M140.55,160h116.91c3.8,0,6.89,3.09,6.89,6.89v51.71c0,3.8-3.09,6.89-6.89,6.89h-10c-.11,2.92.33,8.3,4.39,11.79,0,0-11.18-.9-14.28-11.79h-97.02c-3.81,0-6.89-3.09-6.89-6.89v-51.71c0-3.8,3.08-6.89,6.89-6.89Z"/>
      <path class="cls-15" d="M16.67,473.82h34.9c1.14,0,2.06.92,2.06,2.06v15.44c0,1.14-.92,2.06-2.06,2.06h-2.99c-.03.87.1,2.48,1.31,3.52,0,0-3.34-.27-4.26-3.52h-28.97c-1.14,0-2.06-.92-2.06-2.06v-15.44c0-1.14.92-2.06,2.06-2.06Z"/>
      <path class="cls-1" d="M51.07,408.5H16.17c-1.14,0-2.06.92-2.06,2.06v15.44c0,1.14.92,2.06,2.06,2.06h2.99c.03.87-.1,2.48-1.31,3.52,0,0,3.34-.27,4.26-3.52h28.97c1.14,0,2.06-.92,2.06-2.06v-15.44c0-1.14-.92-2.06-2.06-2.06Z"/>
      <path class="cls-16" d="M43.61,436.61h47.81c1.56,0,2.82,1.26,2.82,2.82v21.14c0,1.56-1.26,2.82-2.82,2.82h-4.09c-.04,1.19.13,3.39,1.8,4.82,0,0-4.57-.37-5.84-4.82h-39.67c-1.56,0-2.82-1.26-2.82-2.82v-21.14c0-1.56,1.26-2.82,2.82-2.82Z"/>
      <path class="cls-7" d="M89.64,468.42l-.53-.04s-4.62-.42-5.95-4.82h-39.55c-1.65,0-2.99-1.34-2.99-2.99v-21.14c0-1.65,1.34-2.99,2.99-2.99h47.81c1.65,0,2.99,1.34,2.99,2.99v21.14c0,1.65-1.34,2.99-2.99,2.99h-3.92c-.02,1.19.21,3.2,1.74,4.52l.4.34ZM43.61,436.78c-1.46,0-2.65,1.19-2.65,2.65v21.14c0,1.46,1.19,2.65,2.65,2.65h39.8l.04.12c.97,3.4,3.94,4.36,5.16,4.61-1.35-1.46-1.5-3.46-1.46-4.57v-.17h4.26c1.46,0,2.65-1.19,2.65-2.65v-21.14c0-1.46-1.19-2.65-2.65-2.65h-47.81Z"/>
      <g>
        <path class="cls-7" d="M81.41,450c0,1.01.82,1.84,1.84,1.84s1.84-.82,1.84-1.84-.82-1.84-1.84-1.84-1.84.82-1.84,1.84Z"/>
        <path class="cls-7" d="M70.92,450c0,1.01.82,1.84,1.84,1.84s1.84-.82,1.84-1.84-.82-1.84-1.84-1.84-1.84.82-1.84,1.84Z"/>
        <path class="cls-7" d="M60.44,450c0,1.01.82,1.84,1.84,1.84s1.84-.82,1.84-1.84-.82-1.84-1.84-1.84-1.84.82-1.84,1.84Z"/>
        <path class="cls-7" d="M49.96,450c0,1.01.82,1.84,1.84,1.84s1.84-.82,1.84-1.84-.82-1.84-1.84-1.84-1.84.82-1.84,1.84Z"/>
      </g>
      <path class="cls-15" d="M259.92,358.48H106.84c-5.07,0-9.19-4.12-9.19-9.19v-67.71c0-5.07,4.12-9.19,9.19-9.19h153.08c5.07,0,9.19,4.12,9.19,9.19v67.71c0,5.07-4.12,9.19-9.19,9.19ZM106.84,272.74c-4.88,0-8.85,3.97-8.85,8.85v67.71c0,4.88,3.97,8.85,8.85,8.85h153.08c4.88,0,8.85-3.97,8.85-8.85v-67.71c0-4.88-3.97-8.85-8.85-8.85H106.84Z"/>
      <path class="cls-4" d="M250.79,282.04H97.72c-4.98,0-9.02,4.04-9.02,9.02v67.71c0,4.98,4.04,9.02,9.02,9.02h13.1c.14,3.82-.43,10.87-5.75,15.44,0,0,14.64-1.18,18.7-15.44h127.04c4.98,0,9.02-4.04,9.02-9.02v-67.71c0-4.98-4.04-9.02-9.02-9.02Z"/>
      <g>
        <circle class="cls-18" cx="123.91" cy="324.92" r="5.88"/>
        <circle class="cls-18" cx="157.47" cy="324.92" r="5.88"/>
        <circle class="cls-18" cx="191.04" cy="324.92" r="5.88"/>
        <circle class="cls-18" cx="224.6" cy="324.92" r="5.88"/>
      </g>
      <g>
        <path class="cls-18" d="M480.56,344.59v459.17c0,12.71-9.46,23.01-21.14,23.01h-212.65c-11.67,0-21.13-10.3-21.13-23.01v-459.17c0-.15,0-.31,0-.46.22-12.5,9.59-22.55,21.13-22.55h212.65c11.53,0,20.91,10.05,21.13,22.55,0,.15,0,.31,0,.46Z"/>
        <rect class="cls-5" x="229.01" y="344.13" width="248.18" height="29.59"/>
        <path class="cls-6" d="M480.4,440.9c-.95,0-1.72-.77-1.72-1.72v-52.65c0-.95.77-1.72,1.72-1.72s1.72.77,1.72,1.72v52.65c0,.95-.77,1.72-1.72,1.72Z"/>
        <path class="cls-6" d="M480.4,488.18c-.95,0-1.72-.77-1.72-1.72v-29.71c0-.95.77-1.72,1.72-1.72s1.72.77,1.72,1.72v29.71c0,.95-.77,1.72-1.72,1.72Z"/>
        <path class="cls-22" d="M459.43,325.01c4.61,0,8.98,1.95,12.3,5.5,3.39,3.62,5.3,8.48,5.4,13.68v.04s0,.04,0,.04c0,.11,0,.22,0,.33v459.17c0,10.79-7.94,19.57-17.7,19.57h-212.65c-9.76,0-17.7-8.78-17.7-19.57v-459.17c0-.11,0-.22,0-.33v-.04s0-.04,0-.04c.09-5.2,2.01-10.06,5.4-13.68,3.32-3.55,7.69-5.5,12.3-5.5h212.65M459.43,321.58h-212.65c-11.53,0-20.9,10.05-21.13,22.55,0,.15,0,.31,0,.46v459.17c0,12.71,9.46,23.01,21.13,23.01h212.65c11.67,0,21.14-10.3,21.14-23.01v-459.17c0-.15,0-.31,0-.46-.22-12.5-9.59-22.55-21.13-22.55h0Z"/>
        <path class="cls-22" d="M480.56,781.66v22.09c0,12.71-9.46,23.01-21.14,23.01h-212.65c-11.67,0-21.13-10.3-21.13-23.01v-22.09h254.92Z"/>
        <path class="cls-22" d="M480.55,344.13h-254.9c.22-12.5,9.59-22.55,21.13-22.55h212.65c11.53,0,20.91,10.05,21.13,22.55Z"/>
        <rect class="cls-5" x="229.31" y="752.08" width="247.58" height="29.59"/>
      </g>
      <path class="cls-6" d="M476.16,345.16v435.47h-246.12v-435.47h246.12M477.19,344.13h-248.18v437.53h248.18v-437.53h0Z"/>
      <rect class="cls-8" x="318.03" y="354.74" width="70.15" height="8.36"/>
      <rect class="cls-8" x="318.03" y="762.69" width="70.15" height="8.36"/>
      <g>
        <rect class="cls-12" x="309.2" y="329.89" width="61.25" height="5.92" rx="2.96" ry="2.96"/>
        <rect class="cls-12" x="382.64" y="329.89" width="14.36" height="5.92" rx="2.96" ry="2.96"/>
      </g>
      <path class="cls-8" d="M384.22,811.15h-62.24c-3.83,0-6.94-3.11-6.94-6.94h0c0-3.83,3.11-6.94,6.94-6.94h62.24c3.83,0,6.94,3.11,6.94,6.94h0c0,3.83-3.11,6.94-6.94,6.94Z"/>
      <path class="cls-19" d="M152.88,479.12c.06-.25.19-.49.34-.7.15-.21.34-.4.54-.56.21-.16.44-.29.68-.38.24-.1.51-.13.76-.13-.23.13-.44.24-.65.37-.21.13-.4.26-.59.41-.38.29-.73.62-1.09.98Z"/>
      <path class="cls-19" d="M192.47,477.11c.27.08.53.21.76.36.24.15.46.33.66.52.4.39.75.85.95,1.38-.22-.18-.41-.38-.6-.57l-.58-.56c-.39-.37-.79-.73-1.19-1.12Z"/>
      <path class="cls-19" d="M184.68,482.4c.21.17.37.38.52.6.15.22.27.46.37.7.2.49.33,1.02.3,1.55-.12-.24-.22-.48-.32-.71l-.29-.71c-.19-.47-.39-.93-.57-1.44Z"/>
      <path class="cls-19" d="M159.4,484.8c-.05-.26-.04-.52,0-.78.04-.26.11-.51.21-.75.1-.24.23-.47.4-.68.16-.21.36-.39.58-.52-.12.24-.25.44-.36.67-.11.22-.22.44-.31.67-.2.45-.35.91-.53,1.4Z"/>
      <path class="cls-19" d="M171.64,487.54c-.14-.46-.15-.93-.11-1.39.05-.46.15-.92.38-1.34.04.48,0,.92-.04,1.38-.05.45-.1.9-.23,1.36Z"/>
      <rect class="cls-6" x="85.38" y="826.24" width="535.44" height="1.03"/>
      <g>
        <path class="cls-16" d="M410.62,613.27l-19.79-19.79c-3.94-3.92-10.47-3.8-14.55.27l-9.97,9.97c-.63-.35-1.28-.71-1.97-1.1-6.29-3.49-14.91-8.27-23.98-17.34-9.09-9.09-13.88-17.72-17.38-24.02-.37-.67-.73-1.31-1.07-1.92l6.69-6.68,3.29-3.29c4.09-4.08,4.2-10.61.27-14.55l-19.79-19.79c-3.93-3.93-10.46-3.81-14.55.27l-5.58,5.61.15.15c-1.87,2.39-3.43,5.14-4.59,8.11-1.08,2.82-1.74,5.52-2.05,8.22-2.61,21.66,7.29,41.46,34.15,68.32,37.13,37.13,67.06,34.33,68.35,34.19,2.81-.34,5.51-1.01,8.24-2.07,2.95-1.15,5.69-2.71,8.08-4.58l.12.11,5.65-5.53c4.08-4.09,4.19-10.61.26-14.56Z"/>
        <g>
          <path class="cls-16" d="M424.86,560.59h-10.01c0-32.67-26.57-59.24-59.24-59.24v-10c38.18-.02,69.25,31.05,69.25,69.24Z"/>
          <path class="cls-16" d="M349.43,515.81v10c23.14,0,41.97,18.83,41.95,41.96h10.01c0-28.65-23.31-51.96-51.97-51.96Z"/>
        </g>
      </g>
      <g>
        <path class="cls-4" d="M597.12,674.74l-120.9-103.98-120.9,103.98c-.13.11-.26.23-.38.35h0s121.28,109.41,121.28,109.41l121.28-109.4v-.02c-.12-.12-.25-.24-.38-.35Z"/>
        <g>
          <rect class="cls-13" x="391.87" y="603.54" width="168.69" height="204.78" transform="translate(1182.15 229.72) rotate(90)"/>
          <rect class="cls-18" x="375.6" y="623.37" width="201.22" height="165.13"/>
          <rect class="cls-13" x="402.22" y="650.89" width="147.53" height="2.71"/>
          <rect class="cls-13" x="402.22" y="667.58" width="147.53" height="2.71"/>
          <rect class="cls-13" x="402.22" y="684.28" width="147.53" height="2.71"/>
          <rect class="cls-13" x="402.22" y="700.97" width="147.53" height="2.71"/>
          <rect class="cls-13" x="402.22" y="717.66" width="147.53" height="2.71"/>
          <rect class="cls-13" x="402.22" y="734.36" width="147.53" height="2.71"/>
          <rect class="cls-13" x="402.22" y="751.05" width="147.53" height="2.71"/>
          <rect class="cls-13" x="402.22" y="767.74" width="147.53" height="2.71"/>
        </g>
        <path class="cls-4" d="M597.5,675.11l-121.28,109.4-121.28-109.4h0c-1.16,1.18-1.89,2.8-1.89,4.6v137.83c0,3.64,2.95,6.6,6.6,6.6h233.14c3.64,0,6.6-2.95,6.6-6.6v-137.83c0-1.8-.72-3.43-1.89-4.62v.02Z"/>
        <path class="cls-15" d="M436.9,748.46c-23.21,18.6-53.52,44.49-81.96,73.7l84.23-71.95-2.27-1.75Z"/>
        <path class="cls-15" d="M513.82,750.51l83.68,71.66c-29.27-30.07-58.13-54.75-81.59-73.45l-2.09,1.79Z"/>
      </g>
    </g>
  </g>
</svg>