<?xml version="1.0" encoding="UTF-8"?><svg id="a" xmlns="http://www.w3.org/2000/svg" width="500" height="400" xmlns:xlink="http://www.w3.org/1999/xlink" viewBox="0 0 500 400"><defs><radialGradient id="b" cx="-181.445" cy="-71.306" fx="-181.445" fy="-71.306" r="216.651" gradientTransform="translate(447.77 260.907) scale(1.116 .889)" gradientUnits="userSpaceOnUse"><stop offset="0" stop-color="#c7e5ea"/><stop offset=".375" stop-color="rgba(199,229,234,.992)" stop-opacity=".992"/><stop offset=".51" stop-color="rgba(201,229,234,.963)" stop-opacity=".963"/><stop offset=".606" stop-color="rgba(203,231,235,.912)" stop-opacity=".912"/><stop offset=".684" stop-color="rgba(207,233,237,.84)" stop-opacity=".84"/><stop offset=".751" stop-color="rgba(213,235,239,.746)" stop-opacity=".746"/><stop offset=".81" stop-color="rgba(219,238,241,.63)" stop-opacity=".63"/><stop offset=".864" stop-color="rgba(227,242,244,.491)" stop-opacity=".491"/><stop offset=".913" stop-color="rgba(236,246,248,.33)" stop-opacity=".33"/><stop offset=".957" stop-color="rgba(246,250,251,.154)" stop-opacity=".154"/><stop offset=".989" stop-color="#fff" stop-opacity="0"/></radialGradient></defs><ellipse cx="250" cy="200" rx="239.5" ry="195.5" fill="url(#b)" stroke-width="0"/><path d="M228.057,143.353h-118.615V62.203h118.615v81.149ZM110.379,142.416h116.741V63.14h-116.741v79.276Z" fill="#ececec" stroke-width="0"/><path d="M118.717,67.432c0,1.304-1.057,2.361-2.361,2.361s-2.361-1.057-2.361-2.361,1.057-2.361,2.361-2.361,2.361,1.057,2.361,2.361Z" fill="#a8a8a8" stroke-width="0"/><path d="M128.357,67.432c0,1.304-1.057,2.361-2.361,2.361s-2.361-1.057-2.361-2.361,1.057-2.361,2.361-2.361,2.361,1.057,2.361,2.361Z" fill="#ececec" stroke-width="0"/><path d="M137.997,67.432c0,1.304-1.057,2.361-2.361,2.361s-2.361-1.057-2.361-2.361,1.057-2.361,2.361-2.361,2.361,1.057,2.361,2.361Z" fill="#ececec" stroke-width="0"/><rect x="109.911" y="71.588" width="117.678" height=".937" fill="#ececec" stroke-width="0"/><path d="M69.784,77.578c.653.377,1.013,1.094.974,1.847-.01.204-.016.41-.016.616,0,.209.005.416.016.621.038.751-.32,1.465-.971,1.841l-2.226,1.284,4.183,7.249,2.225-1.283c.653-.376,1.456-.339,2.087.073.347.227.707.436,1.079.625.669.341,1.099,1.017,1.099,1.768v2.563h8.372v-2.563c0-.751.43-1.427,1.099-1.768.371-.189.732-.398,1.079-.625.631-.413,1.434-.45,2.087-.073l2.225,1.283,4.183-7.249-2.235-1.291c-.65-.376-1.007-1.089-.969-1.839.01-.204.016-.41.016-.616s-.005-.412-.016-.616c-.039-.753.321-1.47.974-1.846l2.229-1.283-4.183-7.249-2.219,1.282c-.652.377-1.455.341-2.086-.071-.349-.228-.711-.437-1.084-.626-.67-.34-1.101-1.017-1.101-1.768v-2.562h-8.372v2.562c0,.751-.431,1.428-1.101,1.768-.373.19-.735.399-1.084.626-.631.412-1.434.448-2.086.071l-2.218-1.282-4.183,7.249,2.222,1.282ZM82.416,73.182c3.786,0,6.859,3.073,6.859,6.859s-3.073,6.852-6.859,6.852-6.853-3.066-6.853-6.852,3.067-6.859,6.853-6.859Z" fill="#ececec" stroke-width="0"/><rect x="85.519" y="140.728" width="65.439" height="29.399" fill="#d9d8e3" stroke-width="0"/><path d="M104.987,156.732h-2.717v4.795c0,.663-.552,1.216-1.237,1.216-.665,0-1.217-.552-1.217-1.216v-13.039c0-.685.553-1.215,1.217-1.215h3.954c2.63,0,4.754,2.122,4.754,4.751,0,2.586-2.124,4.708-4.754,4.708ZM102.27,154.279h2.717c1.283,0,2.276-1.017,2.299-2.255-.023-1.281-1.016-2.298-2.299-2.298h-2.717v4.553Z" fill="#fff" stroke-width="0"/><path d="M112.702,161.527v-13.039c0-.685.529-1.215,1.214-1.215s1.237.53,1.237,1.215v5.304h5.724v-5.304c0-.685.532-1.215,1.217-1.215s1.237.53,1.237,1.215v13.039c0,.686-.552,1.216-1.237,1.216s-1.217-.53-1.217-1.216v-5.304h-5.724v5.304c0,.686-.552,1.216-1.237,1.216s-1.214-.53-1.214-1.216Z" fill="#fff" stroke-width="0"/><path d="M133.542,156.732h-2.719v4.795c0,.663-.553,1.216-1.238,1.216-.662,0-1.214-.552-1.214-1.216v-13.039c0-.685.553-1.215,1.214-1.215h3.957c2.63,0,4.751,2.122,4.751,4.751,0,2.586-2.121,4.708-4.751,4.708ZM130.823,154.279h2.719c1.28,0,2.276-1.017,2.299-2.255-.023-1.281-1.019-2.298-2.299-2.298h-2.719v4.553Z" fill="#fff" stroke-width="0"/><rect x="206.142" y="53.175" width="55.844" height="20.675" fill="#d9d8e3" stroke-width="0"/><path d="M214.2,68.479v-9.17c0-.482.374-.855.855-.855s.87.373.87.855v3.73h4.025v-3.73c0-.482.374-.855.855-.855s.87.373.87.855v9.17c0,.482-.389.855-.87.855s-.855-.373-.855-.855v-3.73h-4.025v3.73c0,.482-.389.855-.87.855s-.855-.373-.855-.855Z" fill="#fff" stroke-width="0"/><path d="M231.871,60.181h-2.471v8.299c0,.482-.373.855-.855.855-.467,0-.854-.373-.854-.855v-8.299h-2.456c-.482,0-.855-.404-.855-.871,0-.482.373-.855.855-.855h6.636c.467,0,.855.373.855.855,0,.466-.389.871-.855.871Z" fill="#fff" stroke-width="0"/><path d="M244.647,59.31v9.17c0,.467-.405.855-.87.855-.483,0-.855-.389-.855-.855v-6.543l-2.238,3.109c-.171.233-.42.357-.699.357h-.031c-.279,0-.543-.124-.714-.357l-2.223-3.109v6.543c0,.467-.389.855-.87.855-.467,0-.855-.389-.855-.855v-9.17c0-.466.388-.855.855-.855h.046c.249,0,.528.124.684.357l3.093,4.29,3.092-4.29c.171-.233.42-.357.699-.357h.016c.465.016.87.389.87.855Z" fill="#fff" stroke-width="0"/><path d="M248.408,68.479v-9.17c0-.466.373-.855.855-.855s.87.389.87.855v8.299h4.213c.45,0,.854.389.854.87,0,.467-.404.855-.854.855h-5.083c-.482,0-.855-.389-.855-.855Z" fill="#fff" stroke-width="0"/><rect x="174.608" y="114.456" width="201.902" height="151.712" fill="#fff" stroke="#000" stroke-miterlimit="10"/><rect x="323" y="217" width="44" height="35" fill="#f5f5f5" stroke-width="0"/><rect x="269" y="217" width="44" height="35" fill="#f5f5f5" stroke-width="0"/><rect x="215" y="217" width="44" height="35" fill="#f5f5f5" stroke-width="0"/><g id="c"><path d="M418,349.21c0,.095-62.33.176-139.2.176s-139.214-.081-139.214-.176,62.317-.176,139.248-.176,139.166.081,139.166.176h0Z" fill="#263238" stroke-width="0"/></g><path d="M376.51,266.168v-2.785c0-1.825,0-4.529-.034-8.064,0-7.057-.041-17.426-.074-30.662-.034-26.43-.088-64.324-.149-110.181l.291.291-201.882.061h0l.351-.351v151.712l-.318-.318,145.723.156,41.389.088,10.984.041h3.555-3.501l-10.923.041-41.315.088-145.933.156h-.385v-.318c0-45.512,0-97.162-.034-151.712v-.351h.372l201.882.068h.297v.284c-.061,45.965-.108,83.913-.149,110.384-.034,13.208-.054,23.55-.074,30.594v10.038c0,.446-.074.743-.074.743h0Z" fill="#263238" stroke-width="0"/><path d="M375.496,133.039c-.171.022-.343.033-.515.034h-1.526l-5.854.061c-5.078.041-12.437.061-21.521.054-18.182,0-43.289-.129-71.022-.351l-71.022-.561-21.528-.169-5.848-.068-1.526-.041c-.171.019-.344.019-.515,0,.17-.03.343-.042.515-.034h1.526l5.848-.061c5.085-.041,12.437-.061,21.528-.061,18.175,0,43.289.135,71.029.358l71.015.561,21.528.162,5.848.074h1.526c.173-.004.346.009.515.041h0Z" fill="#263238" stroke-width="0"/><path d="M187.796,122.135c.004,1.314-1.059,2.382-2.373,2.386-1.314.004-2.382-1.059-2.386-2.373-.004-1.314,1.059-2.382,2.373-2.386h.014c1.309.004,2.369,1.064,2.373,2.373Z" fill="#263238" stroke-width="0"/><path d="M197.306,122.135c.004,1.314-1.059,2.382-2.373,2.386-1.314.004-2.382-1.059-2.386-2.373s1.059-2.382,2.373-2.386h.007c1.311,0,2.375,1.061,2.379,2.373Z" fill="#263238" stroke-width="0"/><circle cx="204.438" cy="122.162" r="2.379" fill="#263238" stroke-width="0"/><polygon points="211.858 279.961 213.958 333.694 134.24 333.694 131.856 282.093 131.805 280.99 211.858 279.961" fill="#fff" stroke-width="0"/><polygon points="177.795 332.551 152.893 316.681 143.931 341.329 168.42 346.658 177.795 332.551" fill="#ffb573" stroke-width="0"/><path d="M220.756,346.474h-53.772l3.611-19.966s22.808-9.828,47.739,4.762c0,0,6.145,7.512,2.422,15.204h0Z" fill="#fff" stroke-width="0"/><path d="M182.543,341.668c-.23,0-.415-.186-.415-.415v-12.244c0-.229.186-.415.415-.415s.415.186.415.415v12.244c0,.229-.186.415-.415.415Z" fill="#363e44" stroke-width="0"/><path d="M186.017,341.668c-.23,0-.415-.186-.415-.415v-12.244c0-.229.186-.415.415-.415s.415.186.415.415v12.244c0,.229-.186.415-.415.415Z" fill="#363e44" stroke-width="0"/><path d="M165.556,312.431l-15.105,34.043s-42.007-8.858-71.225-27.136c-10.209-6.387-13.504-19.741-7.423-30.136.087-.148.174-.296.262-.444,5.197-8.687,15.719-12.622,25.415-9.715,15.528,4.656,44.491,15.062,68.075,33.387h0Z" fill="#0788a5" stroke-width="0"/><polygon points="164.347 332.551 189.249 316.681 198.212 341.329 173.723 346.658 164.347 332.551" fill="#ffb573" stroke-width="0"/><path d="M121.96,346.474h53.198l-3.611-18.865s-19.672-11.443-43.163-2.634c0,0-3.13,6.694-6.423,21.499h0Z" fill="#fff" stroke-width="0"/><path d="M159.6,341.668c-.23,0-.415-.186-.415-.415v-12.244c0-.229.186-.415.415-.415s.415.186.415.415v12.244c0,.229-.186.415-.415.415Z" fill="#363e44" stroke-width="0"/><path d="M156.125,341.668c-.23,0-.415-.186-.415-.415v-12.244c0-.229.186-.415.415-.415s.415.186.415.415v12.244c0,.229-.186.415-.415.415Z" fill="#363e44" stroke-width="0"/><path d="M176.587,312.431l15.105,34.043s42.007-8.858,71.225-27.136c10.209-6.387,13.504-19.741,7.423-30.136-.087-.148-.174-.296-.262-.444-5.197-8.687-15.719-12.622-25.415-9.715-15.528,4.656-44.491,15.062-68.075,33.387h0Z" fill="#0788a5" stroke-width="0"/><path d="M114.35,292.828l-4.219-.74c-7.556-1.325-12.316-8.861-10.301-16.263,1.921-7.057,4.692-15.698,8.31-23.18,3.554-7.349,10.345-12.615,18.358-14.173,16.895-3.285,51.233-7.779,86.665.422,7.297,1.689,13.526,6.448,17.024,13.071,3.003,5.688,6.521,13.336,8.974,21.765,2.325,7.989-2.545,16.298-10.622,18.293l-18.866-4.095-95.322,4.902h0Z" fill="#606060" stroke-width="0"/><path d="M104.286,277.224c-.31,1.116-.498,2.331-.51,3.646-.055,5.936,3.734,11.235,9.273,13.369l27.66,7.379,6.022-20.536-28.467-10.784c-5.787-2.192-12.32.964-13.978,6.926Z" fill="#ffb573" stroke-width="0"/><path d="M233.843,283.706c-.385,1.092-.928,2.195-1.672,3.28-3.358,4.895-9.499,7.066-15.261,5.64l-27.876-6.897,7.817-23.19,29.508,7.479c5.998,1.52,9.543,7.852,7.484,13.687h0Z" fill="#ffb573" stroke-width="0"/><rect x="134.947" y="254.47" width="71.793" height="43.042" fill="#363e44" stroke-width="0"/><rect x="134.947" y="298.685" width="71.793" height="4.407" fill="#363e44" stroke-width="0"/><path d="M174.745,278.511h-7.804c-.23,0-.415-.186-.415-.415v-7.804c0-.229.186-.415.415-.415h7.804c.23,0,.415.186.415.415v7.804c0,.229-.186.415-.415.415ZM167.356,277.681h6.974v-6.974h-6.974v6.974Z" fill="#40484c" stroke-width="0"/><path d="M203.633,258.343h-65.579c-.23,0-.415-.186-.415-.415s.186-.415.415-.415h65.579c.23,0,.415.186.415.415s-.186.415-.415.415Z" fill="#40484c" stroke-width="0"/><path d="M160.365,209.495c1.572,2.121,1.382,4.924-.422,6.261-1.805,1.337-4.542.702-6.113-1.418-1.572-2.121-1.382-4.924.422-6.261,1.805-1.338,4.542-.702,6.113,1.418Z" fill="#ffb573" stroke-width="0"/><path d="M179.766,208.508c-1.348,2.269-.875,5.038,1.056,6.186,1.931,1.147,4.589.238,5.937-2.031,1.348-2.269.875-5.038-1.056-6.186s-4.589-.238-5.937,2.031Z" fill="#ffb573" stroke-width="0"/><path d="M169.117,245.504c-4.713-.216-8.358-4.212-8.142-8.925l.792-24.227,17.067.783-.792,24.227c-.216,4.713-4.212,8.358-8.925,8.142h0Z" fill="#ffb573" stroke-width="0"/><path d="M172.175,226.116c-13.69.718-14.199-19.562-14.199-19.562l24.259-.728s3.214,19.594-10.061,20.29Z" fill="#ffb573" stroke-width="0"/><circle cx="162.677" cy="203.226" r="8.705" fill="#363e44" stroke-width="0"/><path d="M181.982,210.781c.387,7.607-4.547,3.606-11.022,3.935-6.474.33-12.036,4.865-12.423-2.742-.387-7.607,4.547-11.952,11.022-12.281,6.474-.33,12.036,3.481,12.423,11.088h0Z" fill="#ffb573" stroke-width="0"/><path d="M181.98,214.89c-.025,0-.049-.002-.074-.007-.226-.041-.376-.257-.335-.483.214-1.175.291-2.385.228-3.598-.055-1.083-.22-2.155-.49-3.186-.058-.222.074-.449.297-.507.219-.058.449.074.507.296.284,1.086.458,2.214.516,3.354.065,1.277-.016,2.552-.241,3.789-.037.201-.211.341-.408.341h0Z" fill="#363e44" stroke-width="0"/><path d="M158.895,215.979c-.18,0-.347-.119-.399-.302-.338-1.188-.542-2.427-.606-3.683-.059-1.163.002-2.325.183-3.453.037-.227.249-.381.476-.344.226.036.381.249.344.476-.172,1.071-.23,2.175-.174,3.28.06,1.194.254,2.37.575,3.497.063.22-.065.451-.286.513-.038.011-.077.016-.115.016h0Z" fill="#363e44" stroke-width="0"/><path d="M171.074,215.424c-.125,0-.248-.056-.33-.162-.14-.182-.106-.443.076-.582.263-.203.409-.399.412-.553.002-.106-.064-.204-.193-.383-.157-.218-.351-.488-.437-.901-.077-.37-.045-.76.094-1.159.076-.217.312-.331.529-.255.217.075.331.312.255.529-.089.254-.111.495-.065.716.049.24.17.408.298.585.167.233.356.496.349.884-.008.423-.256.826-.737,1.196-.075.058-.164.086-.253.086h0Z" fill="#363e44" stroke-width="0"/><path d="M172.786,219.356c-.468.171-1.202.335-2.048.144-.537-.122-1.049-.374-1.481-.729-.177-.146-.202-.408-.057-.584.146-.177.407-.202.585-.057.232.191.617.442,1.137.56.789.178,1.455-.047,1.781-.196.204-.096.455-.004.551.204s.004.455-.205.551c-.074.034-.161.071-.261.108h0Z" fill="#fff" stroke-width="0"/><path d="M156.99,207.984s6.268.929,12.768-6.732c0,0,12.071,15.785,21.357-3.25,0,0-5.439,2.401-8.357-1.393-4.643-6.036-15.785-10.91-20.196.232l-5.571,11.143h0Z" fill="#363e44" stroke-width="0"/><path d="M177.958,208.875h-.029c-.012.058-.047.135-.11.136-.07.092-.097.236-.142.332-.081.174-.345.036-.264-.137.055-.116-.337.121-.51.198-.552.245-1.113.465-1.682.667-.265.094-.531.191-.8.276-.215.068-.924.332-.983.301-.7.709-1.074,1.366-1.074,1.366,0,0,1.077.414,2.442.418.003-.018.006-.037.009-.056.022-.184,3.125-1.083,3.217-.948,1.286-.913,1.991-2.146,1.991-2.146,0,0-.884-.34-2.065-.407h0Z" fill="#fff" stroke-width="0"/><path d="M175.668,209.173c-.929.331-1.678.919-2.227,1.475.101.585.409,1.136.915,1.528.13.101.268.187.409.258.615.005,1.292-.072,1.955-.308.48-.171.91-.413,1.291-.681.462-.813.418-1.807-.082-2.569-.693-.037-1.485.021-2.262.298h0Z" fill="#363e44" stroke-width="0"/><path d="M162.58,209.864l.028-.004c.018.058.061.131.123.126.079.084.12.225.175.316.098.164.347.001.248-.163-.066-.11.348.087.527.146.574.188,1.154.35,1.741.495.274.067.548.137.823.194.221.046.953.237,1.008.2.768.635,1.206,1.251,1.206,1.251,0,0-1.03.521-2.388.662-.005-.018-.01-.036-.014-.054-.041-.181-3.218-.763-3.295-.62-1.371-.779-2.197-1.935-2.197-1.935,0,0,.845-.428,2.014-.613h0Z" fill="#fff" stroke-width="0"/><path d="M164.889,209.929c.957.236,1.762.746,2.364,1.243-.042.592-.293,1.171-.757,1.612-.119.114-.247.212-.381.297-.612.067-1.292.058-1.977-.11-.495-.122-.946-.319-1.353-.548-.542-.762-.597-1.756-.177-2.564.686-.106,1.48-.128,2.28.069h0Z" fill="#363e44" stroke-width="0"/><g id="d"><path d="M341.419,196.76h-121.474c-7.931,0-14.36-6.429-14.36-14.36h0c0-7.931,6.429-14.36,14.36-14.36h121.474c7.931,0,14.36,6.429,14.36,14.36h0c0,7.931-6.429,14.36-14.36,14.36Z" fill="#fff" stroke="#000" stroke-miterlimit="10"/><path d="M341.419,196.76l.853-.063c.352-.006.703-.042,1.049-.105.483-.06.962-.152,1.434-.273l.853-.224c.294-.098.595-.217.917-.336l.49-.182.496-.245c.354-.156.698-.336,1.028-.539,1.615-.93,3.03-2.17,4.162-3.651.338-.422.644-.869.917-1.336.299-.481.564-.984.79-1.504.245-.542.46-1.098.643-1.665.077-.294.154-.587.231-.895l.119-.455.07-.468.147-.958.042-.979v-1.007c0-.343,0-.699-.063-1.028-.173-1.426-.548-2.82-1.112-4.141-1.297-2.924-3.525-5.337-6.337-6.862-1.523-.814-3.183-1.343-4.896-1.56-1.762-.196-3.616-.098-5.498-.119l-117.782.056c-1.42.019-2.832.229-4.197.623-1.34.434-2.616,1.048-3.791,1.826-1.143.789-2.174,1.731-3.064,2.798-.864,1.087-1.571,2.29-2.098,3.574-.509,1.282-.839,2.628-.979,4.001-.113,1.363-.042,2.734.21,4.078.527,2.666,1.812,5.124,3.7,7.078,1.851,1.926,4.211,3.287,6.806,3.924.635.159,1.28.275,1.931.349.657,0,1.301.091,1.966.077h19.235l52.956.042,35.672.056,9.709.035h3.385-13.094l-35.672.063-52.956.035h-19.235c-.657,0-1.336-.049-2-.077-.667-.077-1.328-.196-1.98-.357-2.665-.647-5.091-2.04-6.995-4.015-.957-.998-1.771-2.123-2.42-3.343-.641-1.237-1.112-2.554-1.399-3.917-.257-1.383-.327-2.795-.21-4.197.266-2.844,1.363-5.547,3.155-7.771,1.817-2.257,4.267-3.918,7.036-4.77,1.394-.407,2.836-.624,4.288-.643l117.782.049c1.881,0,3.721-.07,5.526.14,1.752.216,3.448.757,5.001,1.595,2.853,1.558,5.109,4.018,6.414,6.995.569,1.339.944,2.752,1.112,4.197.035.349.035.699.056,1.042v1.014c0,.336-.035.699-.049,1s-.105.651-.154.965l-.07.476-.119.462c-.084.308-.161.609-.238.903-.231.574-.385,1.161-.657,1.686-.235.524-.507,1.031-.811,1.518-.278.466-.589.913-.93,1.336-1.143,1.487-2.569,2.733-4.197,3.665-.337.196-.685.374-1.042.532l-.504.238-.49.182c-.329.119-.629.238-.93.329l-.853.217c-.476.12-.96.206-1.448.259-.347.056-.698.087-1.049.091l-.86.182h0Z" fill="#263238" stroke-width="0"/><circle cx="335.912" cy="181.618" r="6.393" transform="translate(-30.037 290.72) rotate(-45)" fill="#fff" stroke-width="0"/><path d="M335.908,188.353c-3.724.004-6.746-3.012-6.75-6.736-.004-3.724,3.012-6.746,6.736-6.75,3.724-.004,6.746,3.012,6.75,6.736v.014c-.004,3.718-3.017,6.732-6.736,6.736h0ZM335.908,175.574c-3.337-.004-6.046,2.699-6.05,6.036s2.699,6.046,6.036,6.05,6.046-2.699,6.05-6.036v-.007c0-3.335-2.701-6.04-6.036-6.043h0Z" fill="#263238" stroke-width="0"/><rect x="343.418" y="183.904" width=".699" height="6.4" transform="translate(2.022 377.878) rotate(-57.73)" fill="#263238" stroke-width="0"/></g><path d="M228.439,185.099c0,.508-.123.949-.369,1.324s-.604.664-1.075.867-1.042.305-1.714.305c-.297,0-.587-.02-.87-.059s-.555-.097-.814-.173-.507-.171-.741-.284v-1.688c.406.18.828.342,1.266.486s.871.217,1.301.217c.297,0,.536-.039.718-.117s.313-.186.396-.322.123-.293.123-.469c0-.215-.072-.398-.217-.551s-.343-.295-.595-.428-.536-.275-.853-.428c-.199-.094-.416-.208-.65-.343s-.457-.3-.668-.495-.384-.433-.519-.712-.202-.614-.202-1.005c0-.512.117-.949.352-1.312s.569-.642,1.005-.835.95-.29,1.544-.29c.445,0,.87.052,1.274.155s.827.253,1.269.448l-.586,1.412c-.395-.16-.748-.284-1.061-.372s-.631-.132-.955-.132c-.227,0-.42.036-.58.108s-.281.174-.363.305-.123.282-.123.454c0,.203.06.374.179.513s.299.272.539.401.54.279.899.451c.438.207.812.423,1.122.647s.55.488.718.791.252.679.252,1.128Z" fill="#000" stroke-width="0"/><path d="M234.926,187.478h-4.934v-8.566h4.934v1.488h-3.117v1.881h2.9v1.488h-2.9v2.209h3.117v1.5Z" fill="#000" stroke-width="0"/><path d="M244.488,183.183c0,.66-.082,1.261-.246,1.802s-.413,1.007-.747,1.397-.757.69-1.269.899-1.117.313-1.816.313-1.305-.104-1.816-.313-.935-.509-1.269-.899-.583-.857-.747-1.4-.246-1.146-.246-1.811c0-.887.146-1.659.437-2.317s.739-1.169,1.345-1.532,1.375-.545,2.309-.545,1.694.182,2.294.545,1.045.875,1.336,1.535.437,1.436.437,2.326ZM238.236,183.183c0,.598.075,1.112.226,1.544s.386.764.706.996.734.349,1.242.349c.516,0,.934-.116,1.254-.349s.554-.564.7-.996.22-.946.22-1.544c0-.898-.168-1.605-.504-2.121s-.889-.773-1.658-.773c-.512,0-.929.116-1.251.349s-.559.564-.709.996-.226.948-.226,1.55Z" fill="#000" stroke-width="0"/><rect x="320.749" y="69.671" width="69.495" height="44.782" fill="#fff" stroke-width="0"/><path d="M390.584,114.793h-70.175v-45.462h70.175v45.462ZM321.09,114.113h68.814v-44.101h-68.814v44.101Z" fill="#000333" stroke-width="0"/><rect x="320.911" y="69.564" width="69.171" height="5.76" fill="#000333" stroke-width="0"/><path d="M326.334,72.444c0,.602-.488,1.09-1.09,1.09s-1.09-.488-1.09-1.09.488-1.09,1.09-1.09,1.09.488,1.09,1.09Z" fill="#c8c8c8" stroke-width="0"/><path d="M330.785,72.444c0,.602-.488,1.09-1.09,1.09s-1.09-.488-1.09-1.09.488-1.09,1.09-1.09,1.09.488,1.09,1.09Z" fill="#fff" stroke-width="0"/><path d="M335.235,72.444c0,.602-.488,1.09-1.09,1.09s-1.09-.488-1.09-1.09.488-1.09,1.09-1.09,1.09.488,1.09,1.09Z" fill="#ffc800" stroke-width="0"/><rect x="329.412" y="82.712" width="1.789" height=".35" fill="#ececec" stroke-width="0"/><rect x="333.313" y="82.712" width="29.226" height=".35" fill="#ececec" stroke-width="0"/><rect x="363.638" y="82.712" width="3.399" height=".35" fill="#0788a5" stroke-width="0"/><rect x="369.077" y="90.985" width="9.056" height=".35" fill="#ececec" stroke-width="0"/><rect x="367.775" y="82.712" width="10.827" height=".35" fill="#a8a8a8" stroke-width="0"/><rect x="329.412" y="84.366" width="1.789" height=".35" fill="#ececec" stroke-width="0"/><rect x="335.057" y="84.366" width="13.469" height=".35" fill="#a8a8a8" stroke-width="0"/><rect x="363.175" y="90.985" width="5.095" height=".35" fill="#a8a8a8" stroke-width="0"/><rect x="333.313" y="89.331" width="12.865" height=".35" fill="#a8a8a8" stroke-width="0"/><rect x="335.057" y="86.021" width="9.025" height=".35" fill="#0788a5" stroke-width="0"/><rect x="365.91" y="87.676" width="13.09" height=".35" fill="#a8a8a8" stroke-width="0"/><rect x="355.877" y="95.797" width="6.662" height=".35" fill="#a8a8a8" stroke-width="0"/><rect x="345.084" y="86.021" width="23.114" height=".35" fill="#a8a8a8" stroke-width="0"/><rect x="333.313" y="90.985" width="28.697" height=".35" fill="#0788a5" stroke-width="0"/><rect x="349.372" y="84.366" width="17.285" height=".35" fill="#ececec" stroke-width="0"/><rect x="369.632" y="86.021" width="5.803" height=".35" fill="#ececec" stroke-width="0"/><rect x="329.412" y="86.021" width="1.789" height=".35" fill="#ececec" stroke-width="0"/><rect x="329.412" y="87.676" width="1.789" height=".35" fill="#a8a8a8" stroke-width="0"/><rect x="333.313" y="87.676" width="10.575" height=".35" fill="#ececec" stroke-width="0"/><rect x="335.057" y="92.64" width="10.575" height=".35" fill="#ececec" stroke-width="0"/><rect x="363.476" y="94.295" width="14.763" height=".35" fill="#0788a5" stroke-width="0"/><rect x="344.62" y="94.295" width="17.932" height=".35" fill="#ececec" stroke-width="0"/><rect x="335.057" y="94.295" width="7.949" height=".35" fill="#a8a8a8" stroke-width="0"/><rect x="346.906" y="89.331" width="20.13" height=".35" fill="#ececec" stroke-width="0"/><rect x="367.775" y="89.331" width="10.827" height=".35" fill="#0788a5" stroke-width="0"/><rect x="344.962" y="87.676" width="20.117" height=".35" fill="#0788a5" stroke-width="0"/><rect x="329.412" y="89.331" width="1.789" height=".35" fill="#ececec" stroke-width="0"/><rect x="329.412" y="90.985" width="1.789" height=".35" fill="#ececec" stroke-width="0"/><rect x="329.412" y="92.64" width="1.789" height=".35" fill="#a8a8a8" stroke-width="0"/><rect x="329.412" y="94.295" width="1.789" height=".35" fill="#ececec" stroke-width="0"/><rect x="329.412" y="95.797" width="1.789" height=".35" fill="#ececec" stroke-width="0"/><rect x="333.313" y="95.797" width="20.98" height=".35" fill="#ececec" stroke-width="0"/><rect x="329.412" y="97.452" width="1.789" height=".35" fill="#ececec" stroke-width="0"/><rect x="335.057" y="97.452" width="13.469" height=".35" fill="#a8a8a8" stroke-width="0"/><rect x="333.313" y="102.416" width="12.865" height=".35" fill="#a8a8a8" stroke-width="0"/><rect x="335.057" y="99.107" width="9.025" height=".35" fill="#0788a5" stroke-width="0"/><rect x="355.726" y="105.726" width="6.606" height=".35" fill="#0788a5" stroke-width="0"/><rect x="335.057" y="109.035" width="9.025" height=".35" fill="#0788a5" stroke-width="0"/><rect x="345.084" y="99.107" width="23.114" height=".35" fill="#a8a8a8" stroke-width="0"/><rect x="333.313" y="104.071" width="28.697" height=".35" fill="#0788a5" stroke-width="0"/><rect x="349.372" y="97.452" width="17.285" height=".35" fill="#ececec" stroke-width="0"/><rect x="366.735" y="100.762" width="5.793" height=".35" fill="#ececec" stroke-width="0"/><rect x="329.412" y="99.107" width="1.789" height=".35" fill="#ececec" stroke-width="0"/><rect x="329.412" y="100.762" width="1.789" height=".35" fill="#a8a8a8" stroke-width="0"/><rect x="333.313" y="100.762" width="10.575" height=".35" fill="#ececec" stroke-width="0"/><rect x="346.906" y="102.416" width="20.13" height=".35" fill="#ececec" stroke-width="0"/><rect x="344.962" y="100.762" width="20.117" height=".35" fill="#0788a5" stroke-width="0"/><rect x="329.412" y="102.416" width="1.789" height=".35" fill="#ececec" stroke-width="0"/><rect x="329.412" y="105.726" width="1.789" height=".35" fill="#ececec" stroke-width="0"/><rect x="333.313" y="105.726" width="20.98" height=".35" fill="#ececec" stroke-width="0"/><rect x="329.412" y="107.38" width="1.789" height=".35" fill="#ececec" stroke-width="0"/><rect x="335.057" y="107.38" width="13.469" height=".35" fill="#a8a8a8" stroke-width="0"/><rect x="345.084" y="109.035" width="23.114" height=".35" fill="#a8a8a8" stroke-width="0"/><rect x="329.412" y="109.035" width="1.789" height=".35" fill="#ececec" stroke-width="0"/><path d="M330.28,79.564c.048.05.048.125,0,.174-.025.023-.054.035-.085.035-.033,0-.064-.012-.089-.035l-.542-.55c-.006-.002-.008-.006-.01-.012-.002-.002-.006-.004-.006-.004-.004-.006-.004-.01-.006-.015-.004-.002-.006-.006-.006-.008-.002-.004-.002-.01-.004-.012,0-.006-.004-.008-.004-.01v-.013s-.002-.006-.002-.012c0-.002.002-.008.002-.01v-.013s.004-.006.004-.008c.002-.006.002-.01.004-.016,0-.002.002-.002.002-.004.004-.006.006-.014.01-.017,0,0,0-.004.004-.004.002-.004.006-.01.012-.013l.542-.55c.048-.046.127-.046.173,0,.048.048.048.125,0,.174l-.457.461.457.461Z" fill="#0788a5" stroke-width="0"/><path d="M330.771,79.626l.472-1.124c.023-.054.085-.079.141-.056.052.021.077.085.054.137l-.472,1.126c-.018.04-.058.064-.098.064-.012,0-.027-.002-.038-.008-.056-.021-.081-.085-.058-.139Z" fill="#0788a5" stroke-width="0"/><path d="M332.371,79.173s0,.002-.002.002c-.004.004-.008.01-.014.014l-.542.55c-.023.023-.056.035-.087.035-.033,0-.062-.012-.087-.035-.048-.048-.048-.123,0-.174l.457-.461-.457-.461c-.048-.048-.048-.125,0-.174.046-.046.125-.046.173,0l.542.55c.006.004.01.01.014.013.002,0,.002.004.002.004.004.008.008.012.01.017,0,.002.002.002.002.004.002.006.002.01.006.017,0,.002.002.002.002.006v.013s.002.008.002.01c0,.002-.002.008-.002.01v.015s-.002.002-.002.004c-.004.008-.004.013-.006.017,0,.002-.002.002-.002.006-.002.004-.006.01-.01.017Z" fill="#0788a5" stroke-width="0"/><rect x="357.66" y="99.136" width="81.092" height="59.275" fill="#fff" stroke-width="0"/><path d="M439,158.659h-81.588v-59.771h81.588v59.771ZM357.908,158.164h80.596v-58.779h-80.596v58.779Z" fill="#000333" stroke-width="0"/><rect x="357.778" y="99.058" width="80.856" height="4.198" fill="#000333" stroke-width="0"/><path d="M361.73,101.157c0,.439-.356.794-.794.794s-.794-.356-.794-.794.356-.794.794-.794.794.356.794.794Z" fill="#c8c8c8" stroke-width="0"/><path d="M364.974,101.157c0,.439-.356.794-.794.794s-.794-.356-.794-.794.356-.794.794-.794.794.356.794.794Z" fill="#fff" stroke-width="0"/><path d="M368.217,101.157c0,.439-.356.794-.794.794s-.794-.356-.794-.794.356-.794.794-.794.794.356.794.794Z" fill="#0788a5" stroke-width="0"/><path d="M393.515,148.537l7.937-4.58-1.403-2.429c-.413-.714-.373-1.593.077-2.284.249-.382.478-.778.686-1.187.373-.733,1.114-1.205,1.936-1.205h2.805v-9.167h-2.805c-.823,0-1.563-.472-1.936-1.205-.208-.409-.437-.805-.686-1.187-.45-.691-.49-1.57-.077-2.284l1.403-2.429-7.937-4.58-1.405,2.44c-.412.715-1.197,1.109-2.022,1.067-.224-.011-.449-.017-.675-.017s-.451.006-.674.017c-.821.042-1.602-.349-2.013-1.06l-1.414-2.447-7.937,4.58,1.405,2.436c.412.715.372,1.594-.08,2.285-.248.38-.477.775-.684,1.181-.373.732-1.114,1.203-1.936,1.203h-2.806v9.167h2.806c.822,0,1.562.471,1.936,1.203.207.407.436.801.684,1.181.451.691.492,1.57.08,2.285l-1.405,2.436,7.937,4.58,1.406-2.437c.411-.713,1.194-1.105,2.016-1.063.225.011.451.017.68.017.226,0,.451-.006.675-.017.825-.042,1.61.351,2.023,1.067l1.404,2.433ZM389.414,139.775c-4.145,0-7.503-3.358-7.503-7.503s3.357-7.51,7.503-7.51,7.51,3.365,7.51,7.51-3.365,7.503-7.51,7.503Z" fill="none" stroke="#0788a5" stroke-miterlimit="10"/><path d="M420.246,126.537l3.546-2.046-.627-1.085c-.185-.319-.167-.712.035-1.02.111-.171.214-.348.306-.53.167-.328.498-.538.865-.538h1.253v-4.096h-1.253c-.368,0-.699-.211-.865-.538-.093-.183-.195-.36-.306-.53-.201-.309-.219-.701-.035-1.021l.627-1.085-3.546-2.046-.628,1.09c-.184.32-.535.496-.903.477-.1-.005-.201-.008-.301-.008s-.201.003-.301.008c-.367.019-.716-.156-.899-.474l-.632-1.093-3.546,2.046.628,1.088c.184.319.166.712-.036,1.021-.111.17-.213.346-.306.528-.167.327-.498.538-.865.538h-1.254v4.096h1.254c.367,0,.698.21.865.538.093.182.195.358.306.528.202.309.22.702.036,1.021l-.628,1.088,3.546,2.046.628-1.089c.184-.319.533-.494.901-.475.1.005.202.008.304.008.101,0,.201-.003.301-.008.368-.019.719.157.904.477l.627,1.087ZM418.414,122.622c-1.852,0-3.352-1.5-3.352-3.352s1.5-3.356,3.352-3.356,3.355,1.503,3.355,3.356-1.503,3.352-3.355,3.352Z" fill="#0788a5" stroke-width="0"/><g id="e"><path d="M328.832,324.256c-1.147-.164-1.943-1.227-1.78-2.374l2.596-18.061c.17-.945,1.072-1.575,2.018-1.409l1.695.246c.676.104,1.353-.18,1.752-.735l.472-.69c.399-.555,1.076-.839,1.752-.735l8.074,1.159c.617.082,1.15.473,1.413,1.037l.307.686c.262.563.793.954,1.409,1.037l10.274,1.477c.954.106,1.642.964,1.538,1.918l-2.656,18.469c-.164,1.145-1.226,1.941-2.371,1.777,0,0-.002,0-.002,0l-26.49-3.803Z" fill="#455a64" stroke-width="0"/><g opacity=".3"><path d="M328.832,324.256c-1.147-.164-1.943-1.227-1.78-2.374l2.596-18.061c.17-.945,1.072-1.575,2.018-1.409l1.695.246c.676.104,1.353-.18,1.752-.735l.472-.69c.399-.555,1.076-.839,1.752-.735l8.074,1.159c.617.082,1.15.473,1.413,1.037l.307.686c.262.563.793.954,1.409,1.037l10.274,1.477c.954.106,1.642.964,1.538,1.918l-2.656,18.469c-.164,1.145-1.226,1.941-2.371,1.777,0,0-.002,0-.002,0l-26.49-3.803Z" fill="#000" stroke-width="0"/></g><path d="M347.511,304.278l-6.532-.957-.428-1.175c-.3-.782-1.003-1.336-1.833-1.445l-6.386-.916c-1.09-.194-2.133.527-2.337,1.615l-.105.747-2.826,19.607c-.135,1.254.766,2.381,2.018,2.527l25.961,3.762c1.243.218,2.429-.611,2.652-1.853l2.664-18.521c.122-.823-.446-1.588-1.269-1.71-.004,0-.007-.001-.011-.002l-11.57-1.679Z" fill="#455a64" stroke-width="0"/><rect x="341.286" y="306.673" width="6.564" height="15.602" transform="translate(-15.733 610.792) rotate(-81.82)" fill="#fff" stroke-width="0"/><path d="M349.957,314.862c0,.057-2.39-.238-5.321-.658s-5.3-.807-5.288-.868,2.39.238,5.321.658c2.931.42,5.296.811,5.288.868Z" fill="#263238" stroke-width="0"/><path d="M349.76,316.247c0,.057-2.39-.238-5.321-.658-2.931-.42-5.3-.807-5.292-.868s2.39.238,5.321.658,5.3.811,5.292.868Z" fill="#263238" stroke-width="0"/><path d="M375.696,316.231c-.713.269-1.51-.091-1.779-.804,0-.001,0-.002-.001-.003l-4.279-11.182c-.206-.594.109-1.242.703-1.448.001,0,.002,0,.003-.001l1.05-.404c.419-.159.715-.537.771-.981l.048-.545c.051-.447.349-.826.771-.981l4.99-1.913c.381-.147.81-.093,1.142.145l.404.295c.331.237.759.291,1.138.145l6.362-2.422c.582-.243,1.251.029,1.498.61l4.376,11.436c.27.711-.086,1.506-.797,1.776-.004.001-.007.003-.011.004l-16.39,6.273Z" fill="#2c9ab2" stroke-width="0"/><g opacity=".3"><path d="M375.696,316.231c-.713.269-1.51-.091-1.779-.804,0-.001,0-.002-.001-.003l-4.279-11.182c-.206-.594.109-1.242.703-1.448.001,0,.002,0,.003-.001l1.05-.404c.419-.159.715-.537.771-.981l.048-.545c.051-.447.349-.826.771-.981l4.99-1.913c.381-.147.81-.093,1.142.145l.404.295c.331.237.759.291,1.138.145l6.362-2.422c.582-.243,1.251.029,1.498.61l4.376,11.436c.27.711-.086,1.506-.797,1.776-.004.001-.007.003-.011.004l-16.39,6.273Z" fill="#000" stroke-width="0"/></g><path d="M380.024,298.804l-4.037,1.542-.622-.537c-.419-.354-1.001-.447-1.51-.242l-3.956,1.514c-.686.244-1.047.996-.807,1.683l.178.46,4.646,12.143c.325.763,1.203,1.123,1.97.807l16.071-6.152c.786-.271,1.203-1.128.933-1.913l-4.392-11.473c-.197-.512-.772-.766-1.284-.569l-7.19,2.737Z" fill="#717072" stroke-width="0"/><rect x="376.473" y="303.428" width="10.242" height="4.307" transform="translate(-84.036 156.641) rotate(-20.95)" fill="#fff" stroke-width="0"/><path d="M384.808,304.092c-1.055.518-2.14.971-3.25,1.356-1.083.453-2.192.84-3.322,1.159,1.05-.513,2.128-.966,3.229-1.356,1.09-.452,2.206-.839,3.343-1.159Z" fill="#263238" stroke-width="0"/><path d="M385.135,304.952c-1.05.512-2.128.964-3.229,1.352-1.094.45-2.214.834-3.355,1.151,1.055-.518,2.14-.971,3.25-1.356,1.087-.449,2.201-.832,3.334-1.146Z" fill="#263238" stroke-width="0"/></g></svg>