<?xml version="1.0" encoding="UTF-8"?><svg id="a" xmlns="http://www.w3.org/2000/svg" width="500" height="400" xmlns:xlink="http://www.w3.org/1999/xlink" viewBox="0 0 500 400"><defs><radialGradient id="b" cx="-1156.875" cy="471.823" fx="-1156.875" fy="471.823" r="177.535" gradientTransform="translate(1831.065 -314.172) scale(1.371 1.085)" gradientUnits="userSpaceOnUse"><stop offset="0" stop-color="#fee5e1"/><stop offset=".369" stop-color="rgba(254,229,225,.993)" stop-opacity=".993"/><stop offset=".502" stop-color="rgba(254,229,226,.966)" stop-opacity=".966"/><stop offset=".597" stop-color="rgba(254,231,227,.919)" stop-opacity=".919"/><stop offset=".673" stop-color="rgba(254,232,229,.853)" stop-opacity=".853"/><stop offset=".739" stop-color="rgba(254,235,232,.766)" stop-opacity=".766"/><stop offset=".797" stop-color="rgba(254,237,235,.659)" stop-opacity=".659"/><stop offset=".85" stop-color="rgba(254,241,239,.531)" stop-opacity=".531"/><stop offset=".898" stop-color="rgba(254,245,243,.383)" stop-opacity=".383"/><stop offset=".943" stop-color="rgba(254,249,248,.213)" stop-opacity=".213"/><stop offset=".983" stop-color="rgba(254,254,254,.032)" stop-opacity=".032"/><stop offset=".989" stop-color="#fff" stop-opacity="0"/></radialGradient></defs><ellipse cx="250" cy="200" rx="241" ry="195.5" fill="url(#b)" stroke-width="0"/><path d="M366.044,247.38c3.192-15.136,10.962-33.816,22.151-44.337-3.153,16.245-11.032,32.015-22.151,44.337" fill="#ffd9d4" stroke-width="0"/><path d="M372.967,316.628c-12.082-6.531-25.662-18.416-30.945-31.917,13.061,6.736,24.068,18.089,30.945,31.917" fill="#ffd9d4" stroke-width="0"/><path d="M372.179,296.377c-12.082-6.531-25.662-18.416-30.945-31.917,13.061,6.736,24.068,18.089,30.945,31.917" fill="#ffd9d4" stroke-width="0"/><path d="M370.374,276.581c-12.082-6.531-25.662-18.416-30.945-31.917,13.061,6.736,24.068,18.089,30.945,31.917" fill="#ffd9d4" stroke-width="0"/><path d="M367.731,255.787c-11.209-8.167-23.269-21.854-26.911-35.982,12.156,8.508,21.728,21.306,26.911,35.982" fill="#ffd9d4" stroke-width="0"/><path d="M364.324,239.744c-7.584-12.135-14.059-29.735-12.576-44.319,8.345,12.837,12.818,28.6,12.576,44.319" fill="#ffd9d4" stroke-width="0"/><path d="M368.532,264.503c4.57-15.487,14.199-34.264,26.718-44.248-4.62,16.645-14.124,32.383-26.718,44.248" fill="#ffd9d4" stroke-width="0"/><path d="M371.278,285.357c4.57-15.487,14.199-34.264,26.718-44.248-4.621,16.645-14.124,32.383-26.718,44.248" fill="#ffd9d4" stroke-width="0"/><path d="M372.662,310.771c4.57-15.487,14.199-34.264,26.718-44.248-4.621,16.645-14.124,32.383-26.718,44.248" fill="#ffd9d4" stroke-width="0"/><path d="M364.021,236.69c.008-.002.034.081.075.245.045.192.102.432.172.729.149.68.354,1.62.615,2.812.533,2.442,1.23,5.992,2.023,10.391.802,4.398,1.643,9.655,2.47,15.507.802,5.856,1.574,12.31,2.206,19.102.616,6.796,1.032,13.284,1.31,19.189.255,5.906.384,11.229.399,15.699.023,4.47-.015,8.087-.092,10.585-.038,1.219-.069,2.181-.09,2.877-.015.305-.027.551-.036.748-.011.168-.021.255-.029.254-.009,0-.016-.087-.021-.255-.003-.197-.008-.443-.013-.749,0-.696-.001-1.657-.002-2.877.018-2.498.002-6.113-.065-10.579-.06-4.466-.225-9.782-.505-15.681-.303-5.898-.732-12.377-1.348-19.165-.632-6.784-1.389-13.232-2.166-19.085-.802-5.85-1.606-11.107-2.363-15.509-.748-4.403-1.393-7.961-1.867-10.414-.222-1.199-.397-2.145-.523-2.829-.051-.301-.091-.544-.124-.739-.025-.167-.034-.253-.026-.255Z" fill="#1a2e35" stroke-width="0"/><path d="M376.021,320.719c-7.35-9.707-14.198-24.07-14.102-36.401,8.047,10.248,13.063,23.195,14.102,36.401" fill="#fe765d" stroke-width="0"/><path d="M381.706,305.026c-7.35-9.707-14.198-24.07-14.102-36.401,8.047,10.248,13.063,23.195,14.102,36.401" fill="#fe765d" stroke-width="0"/><path d="M386.46,289.28c-7.35-9.707-14.198-24.07-14.102-36.401,8.047,10.248,13.063,23.195,14.102,36.401" fill="#fe765d" stroke-width="0"/><path d="M390.874,272.446c-6.163-10.607-11.272-25.742-9.707-37.904,6.793,11.238,10.245,24.72,9.707,37.904" fill="#fe765d" stroke-width="0"/><path d="M393.218,258.921c-2.115-12.197-1.67-28.111,4.017-38.606,2.488,13.029,1.059,26.761-4.017,38.606" fill="#fe765d" stroke-width="0"/><path d="M392.178,265.397c7.186-10.244,19.027-21.381,30.986-24.978-7.5,11.102-18.521,19.986-30.986,24.978" fill="#fe765d" stroke-width="0"/><path d="M388.786,279.381c8.364-9.969,21.679-20.45,34.504-23.116-8.763,10.829-21.036,19.051-34.504,23.116" fill="#fe765d" stroke-width="0"/><path d="M384.434,296.301c8.364-9.969,21.679-20.45,34.504-23.116-8.763,10.829-21.036,19.051-34.504,23.116" fill="#fe765d" stroke-width="0"/><path d="M377.605,316.15c8.364-9.969,21.679-20.45,34.504-23.116-8.763,10.829-21.036,19.051-34.504,23.116" fill="#fe765d" stroke-width="0"/><path d="M393.932,256.482c.008.001.003.073-.015.212-.024.165-.054.367-.09.613-.095.575-.225,1.36-.388,2.351-.339,2.041-.894,4.984-1.636,8.608-1.483,7.249-3.839,17.208-7.086,28.025-1.632,5.407-3.327,10.515-4.952,15.131-1.649,4.607-3.207,8.73-4.599,12.158-1.382,3.432-2.549,6.19-3.396,8.077-.412.916-.738,1.641-.978,2.172-.106.225-.193.409-.265.56-.062.125-.097.188-.105.185-.007-.003.014-.072.062-.203.06-.156.133-.346.223-.578.22-.54.519-1.276.898-2.206.796-1.908,1.916-4.683,3.258-8.127,1.353-3.44,2.877-7.57,4.502-12.179,1.601-4.618,3.281-9.722,4.911-15.123,3.243-10.803,5.645-20.735,7.209-27.96.782-3.613,1.386-6.544,1.779-8.574.199-.984.357-1.763.473-2.334.054-.243.098-.442.134-.605.033-.136.054-.205.061-.203Z" fill="#1a2e35" stroke-width="0"/><polygon points="387.548 360.245 361.71 360.245 356.893 324.637 392.502 324.637 387.548 360.245" fill="#000333" stroke-width="0"/><rect x="353.693" y="324.274" width="42.01" height="5.535" fill="#000333" stroke-width="0"/><path d="M395.703,329.906c0,.102-9.297.185-20.763.185s-20.765-.083-20.765-.185,9.295-.185,20.765-.185,20.763.083,20.763.185Z" fill="#1a2e35" stroke-width="0"/><rect x="212.216" y="63.059" width="149.334" height="295.718" rx="25.345" ry="25.345" fill="#000333" stroke-width="0"/><rect x="141.376" y="138.605" width="291.013" height="144.628" rx="22.226" ry="22.226" transform="translate(497.802 -75.964) rotate(90)" fill="#2d3139" stroke-width="0"/><path d="M276.158,74.732c-.916,0-1.661-.745-1.661-1.661s.745-1.661,1.661-1.661h21.358c.916,0,1.661.745,1.661,1.661s-.745,1.661-1.661,1.661h-21.358Z" fill="#fff" stroke-width="0"/><path d="M264.707,74.732c-.916,0-1.661-.745-1.661-1.661s.745-1.661,1.661-1.661,1.66.745,1.66,1.661-.745,1.661-1.66,1.661Z" fill="#fff" stroke-width="0"/><path d="M270.819,74.732c-.916,0-1.661-.745-1.661-1.661s.745-1.661,1.661-1.661,1.66.745,1.66,1.661-.745,1.661-1.66,1.661Z" fill="#fff" stroke-width="0"/><path d="M309.06,74.732c-.916,0-1.661-.745-1.661-1.661s.745-1.661,1.661-1.661,1.66.745,1.66,1.661-.745,1.661-1.66,1.661Z" fill="#fff" stroke-width="0"/><path d="M302.947,74.732c-.916,0-1.661-.745-1.661-1.661s.745-1.661,1.661-1.661,1.66.745,1.66,1.661-.745,1.661-1.66,1.661Z" fill="#fff" stroke-width="0"/><path d="M345.573,67.408h-25.852c-1.95,0-3.666,1.289-4.21,3.162l-1.644,5.664c-.609,2.097-2.53,3.54-4.714,3.54h-44.539c-2.184,0-4.105-1.443-4.714-3.54l-1.644-5.664c-.544-1.873-2.26-3.162-4.21-3.162h-20.103c-8.841,0-16.008,7.167-16.008,16.008v258.268c0,5.975,4.844,10.819,10.819,10.819h117.577c5.248,0,9.502-4.254,9.502-9.502V77.667c0-5.666-4.593-10.26-10.26-10.26Z" fill="#fafafa" stroke-width="0"/><g opacity=".2"><path d="M351.215,72.175c-2.902-2.941-6.932-4.767-11.391-4.767h-23.395l-3.59,12.366h-51.912l-3.589-12.366h-28.944c-5.777,0-10.46,4.683-10.46,10.46v187.001l.41.046c13.44,1.46,26.517-6.989,33.895-18.318,7.378-11.329,9.984-25.084,11.283-38.541,1.299-13.457,1.461-27.105,4.622-40.25,5.307-22.07,19.299-41.927,38.297-54.349,9.378-6.132,19.878-10.502,28.82-17.255,7.867-5.941,14.634-14.441,15.954-24.026Z" fill="#878787" stroke-width="0"/></g><g opacity=".2"><path d="M355.832,346.018v-82.745c-21.23,2.152-41.101,15.006-51.768,33.488-9.621,16.67-11.527,37.533-5.382,55.743h50.664c3.582,0,6.486-2.904,6.486-6.486Z" fill="#878787" stroke-width="0"/></g><path d="M362.504,127.334h.022v33.987h-.022c-.528,0-.957-.429-.957-.957v-32.074c0-.528.429-.957.957-.957Z" transform="translate(724.073 288.656) rotate(180)" fill="#fe765d" stroke-width="0"/><path d="M212.193,148.28h.022v21.519h-.022c-.548,0-.992-.445-.992-.992v-19.534c0-.548.445-.992.992-.992Z" fill="#fe765d" stroke-width="0"/><path d="M212.193,120.167h.022v21.518h-.022c-.548,0-.992-.445-.992-.992v-19.534c0-.548.445-.992.992-.992Z" fill="#fe765d" stroke-width="0"/><path d="M212.196,99.065h.019v10.005h-.019c-.472,0-.856-.383-.856-.856v-8.294c0-.472.383-.856.856-.856Z" fill="#fe765d" stroke-width="0"/><rect x="322.356" y="77.029" width="1.025" height="1.438" fill="#fe765d" stroke-width="0"/><rect x="324.025" y="76.389" width="1.025" height="2.079" fill="#fe765d" stroke-width="0"/><rect x="325.695" y="75.908" width="1.025" height="2.559" fill="#fe765d" stroke-width="0"/><rect x="327.364" y="74.979" width="1.025" height="3.488" fill="#fe765d" stroke-width="0"/><path d="M343.533,78.54h-5.148c-.203,0-.369-.165-.369-.369v-2.559c0-.204.164-.369.365-.369h5.152c.025,0,.049.01.067.027.018.018.027.042.027.067v.844h.551c.052,0,.094.042.094.094v1.233c0,.052-.042.094-.094.094h-.551v.844c0,.052-.042.094-.094.094ZM343.438,75.431h-5.058c-.099,0-.177.08-.177.181v2.559c0,.1.081.181.181.181h5.054v-.844c0-.052.042-.094.094-.094h.551v-1.045h-.551c-.052,0-.094-.042-.094-.094v-.844Z" fill="#fe765d" stroke-width="0"/><polygon points="338.624 77.931 338.624 75.851 343.019 75.851 343.019 76.789 343.019 76.993 343.019 77.931 338.624 77.931" fill="#fe765d" stroke-width="0"/><path d="M333.299,78.343c0-.208-.168-.376-.376-.376s-.376.168-.376.376.169.376.376.376.376-.168.376-.376Z" fill="#fe765d" stroke-width="0"/><path d="M331.639,77.436l.48.48c.206-.206.49-.333.803-.333s.597.127.803.333l.48-.48c-.329-.329-.783-.532-1.283-.532s-.954.204-1.283.532Z" fill="#fe765d" stroke-width="0"/><path d="M332.923,75.833c-.796,0-1.517.324-2.04.846l.48.48c.4-.4.951-.647,1.56-.647s1.16.247,1.559.647l.48-.48c-.523-.523-1.244-.846-2.04-.846Z" fill="#fe765d" stroke-width="0"/><path d="M330.102,75.898l.48.48c.6-.6,1.428-.971,2.341-.971s1.741.371,2.341.971l.48-.48c-.723-.723-1.721-1.17-2.821-1.17s-2.098.448-2.821,1.17Z" fill="#fe765d" stroke-width="0"/><circle cx="302.465" cy="178.707" r="18.215" transform="translate(22.97 391.555) rotate(-67.867)" fill="#f5f5f5" stroke-width="0"/><path d="M335.157,118.166h-93.58c-5.14,0-9.307-4.167-9.307-9.307h0c0-5.14,4.167-9.307,9.307-9.307h93.58c5.14,0,9.307,4.167,9.307,9.307h0c0,5.14-4.167,9.307-9.307,9.307Z" fill="#e1e1e1" stroke-width="0"/><path d="M332.73,112.41c-1.959,0-3.552-1.593-3.552-3.551s1.593-3.551,3.552-3.551,3.551,1.593,3.551,3.551-1.593,3.551-3.551,3.551ZM332.73,106.017c-1.568,0-2.843,1.275-2.843,2.842s1.275,2.842,2.843,2.842,2.842-1.275,2.842-2.842-1.275-2.842-2.842-2.842Z" fill="#1a2e35" stroke-width="0"/><path d="M337.496,113.33c-.083,0-.166-.029-.233-.088l-2.335-2.043c-.147-.129-.163-.353-.033-.5.129-.148.353-.162.5-.034l2.335,2.043c.147.129.163.353.033.5-.07.08-.168.121-.267.121Z" fill="#1a2e35" stroke-width="0"/><circle cx="281.815" cy="325.571" r="3.004" fill="#ececec" stroke-width="0"/><circle cx="291.859" cy="325.571" r="3.004" fill="#e1e1e1" stroke-width="0"/><circle cx="301.904" cy="325.571" r="3.004" fill="#e1e1e1" stroke-width="0"/><circle cx="311.949" cy="325.571" r="3.004" fill="#e1e1e1" stroke-width="0"/><rect x="236.055" y="144.373" width="107" height="17.915" fill="#fe765d" stroke-width="0"/><rect x="298.289" y="188.06" width="44.766" height="40.697" fill="#fe765d" stroke-width="0"/><rect x="299.289" y="253.06" width="44.766" height="40.697" fill="#fe765d" stroke-width="0"/><rect x="242.289" y="205.373" width="44.766" height="83" fill="#fe765d" stroke-width="0"/><rect x="252.179" y="213.069" width="24.504" height="25.543" fill="#fafafa" stroke-width="0"/><rect x="252.179" y="252.069" width="24.504" height="25.543" fill="#fafafa" stroke-width="0"/><path d="M310.921,207.886s-.837,10.087,10.087,10.087c0-5.383-4.441-9.632-10.087-10.087Z" fill="#fafafa" stroke-width="0"/><path d="M330.909,207.893s-10.087-.837-10.087,10.087c5.383,0,9.632-4.441,10.087-10.087Z" fill="#fafafa" stroke-width="0"/><path d="M320.523,202.373s-8.24,7.397.451,15.6c4.042-4.283,3.7-10.998-.451-15.6Z" fill="#fafafa" stroke-width="0"/><polygon points="300.055 284.373 316.055 272.373 324.055 281.373 343.055 263.373 343.055 293.373 300.055 293.373 300.055 284.373" fill="#fafafa" stroke-width="0"/><circle cx="325.055" cy="269.373" r="4" fill="#fafafa" stroke-width="0"/><g id="c"><path d="M430.396,359.631c0,.107-70.494.199-157.432.199s-157.447-.092-157.447-.199,70.479-.199,157.486-.199,157.394.092,157.394.199Z" fill="#263238" stroke-width="0"/></g><g id="d"><path d="M190.481,169.879l.266.321.36.415c.258.274.509.564.783.83.54.564,1.128,1.112,1.723,1.668,1.19,1.097,2.437,2.13,3.736,3.094,1.324.987,2.718,1.888,4.112,2.781.783.423,1.426.869,2.162,1.277l1.7.94c.247.109.525.126.783.047.548-.165,3.697-3.282,4.7-4.441,2.225-2.546,5.593-5.898,7.41-8.75l2.029,2.796c-1.282,3.493-2.984,6.818-5.068,9.901-1.121,1.667-2.465,3.172-3.995,4.473-.919.774-1.955,1.395-3.071,1.841-1.414.564-2.967.682-4.449.337-.383-.093-.758-.219-1.12-.376l-.705-.305-1.269-.58c-.854-.376-1.676-.83-2.507-1.245-1.66-.886-3.271-1.861-4.825-2.922-1.567-1.078-3.071-2.244-4.504-3.494-.744-.65-1.41-1.308-2.091-2.021-.337-.352-.681-.721-1.01-1.104l-.486-.595c-.18-.219-.313-.384-.556-.721l5.891-4.167Z" fill="#ffb573" stroke-width="0"/><path d="M217.897,168.493l3.635-7.771,3.47,6.22s-2.279,3.917-4.755,3.917l-2.35-2.366Z" fill="#ffb573" stroke-width="0"/><polygon points="225.652 157.495 229.318 162.211 225.033 166.934 221.563 160.722 225.652 157.495" fill="#ffb573" stroke-width="0"/><path d="M224.375,169.08h5.773c.337-.002.618-.26.65-.595l1.199-13.841c.035-.357-.227-.675-.584-.71-.022-.002-.044-.003-.066-.003h-5.765c-.34.003-.622.264-.65.603l-1.214,13.833c-.03.362.239.68.601.711.019.002.038.002.057.002Z" fill="#ff725e" stroke-width="0"/><polygon points="224.438 167.694 230.219 167.694 231.3 155.325 225.519 155.325 224.438 167.694" fill="#fff" isolation="isolate" opacity=".3" stroke-width="0"/><path d="M224.062,165.939h0l1.026-.525c.522-.266,1.005-.603,1.433-1.003l.188-.681c-.225-.373-.667-.554-1.089-.446l-.854.235-4.238.321-.102,1.786,1.238,1.911h.423c.964.034,1.807-.648,1.974-1.598Z" fill="#ffb573" stroke-width="0"/><path d="M183.086,162.32c2.937-.533,23.656,17.429,23.656,17.429l-6.141,9.008s-22.654-15.776-21.933-19.583c.697-4.003.141-6.071,4.418-6.854Z" fill="#263238" stroke-width="0"/><path d="M185.703,168.062l-.227,9.4c2.35,1.825,10.841,8.335,10.841,8.335l-10.614-17.734Z" fill="#000" isolation="isolate" opacity=".2" stroke-width="0"/><polygon points="169.276 348.994 176.224 349.675 178.433 333.562 171.478 332.881 169.276 348.994" fill="#ffb573" stroke-width="0"/><polygon points="100.869 254.447 99.091 261.215 114.123 267.693 117.24 260.823 100.869 254.447" fill="#ffb573" stroke-width="0"/><path d="M181.199,351.101c.598.073,1.203-.059,1.715-.376.224-.195.341-.487.313-.783,0-.186-.103-.358-.266-.446-.838-.501-3.674.846-3.995.995-.063.029-.101.095-.094.164.009.071.063.128.133.141.72.168,1.454.271,2.193.306ZM182.46,349.699c.109-.008.218.016.313.07.067.035.109.104.11.18.017.199-.062.393-.211.525-.431.368-1.567.4-3.133.102.924-.461,1.92-.761,2.945-.885l-.024.008Z" fill="#ff725e" stroke-width="0"/><path d="M179.037,350.764h.063c.846-.353,2.546-1.809,2.436-2.608-.063-.286-.318-.489-.611-.486-.33-.061-.671.025-.932.235-.901.697-1.112,2.585-1.128,2.655-.015.058,0,.12.039.164.037.031.085.045.133.039ZM180.768,347.968h.094c.306.047.321.164.321.204.07.478-1.089,1.637-1.958,2.099.083-.794.418-1.54.956-2.131.174-.126.39-.179.603-.149l-.016-.023Z" fill="#ff725e" stroke-width="0"/><path d="M175.88,346.871l-6.267.266c-.28.003-.513.215-.54.493l-1.504,8.75c-.035.622.44,1.155,1.062,1.19.004,0,.007,0,.011,0h.125c2.734-.141,4.05-.345,7.512-.462,2.123-.07,8.617.697,11.515.039,2.898-.658,2.35-3.533,1.104-3.509-4.026.078-8.671-2.546-10.967-5.616-.4-.258-1.614-1.175-2.052-1.151Z" fill="#263238" stroke-width="0"/><path d="M102.287,262.1l3.196-5.428c.15-.238.092-.552-.133-.721l-6.517-6.008c-.504-.355-1.199-.244-1.567.251l-.07.11c-1.363,2.35-1.903,3.588-3.682,6.556-1.097,1.825-5.28,6.893-6.267,9.658-.987,2.765,1.692,3.917,2.35,2.836,2.123-3.431,6.846-5.906,10.685-6.204.368-.141,1.786-.666,2.005-1.05Z" fill="#263238" stroke-width="0"/><polygon points="178.433 333.562 177.298 341.873 170.342 341.192 171.47 332.889 178.433 333.562" fill="#000" isolation="isolate" opacity=".2" stroke-width="0"/><polygon points="121.862 262.499 118.65 269.745 108.968 265.468 111.436 258.567 121.862 262.499" fill="#000" isolation="isolate" opacity=".2" stroke-width="0"/><path d="M187.528,170.584c3.971,6.752-.885,12.447-4.943,32.625l-26.179.07c.423-10.873.376-19.661-4.261-41.054-.441-1.932.767-3.855,2.698-4.297.269-.061.543-.092.819-.09,2.162,0,4.88.07,7.645.352,4.361.357,8.693,1.014,12.964,1.966,2.316.559,4.593,1.27,6.815,2.131,1.347.454,2.969,4.12,4.441,8.295Z" fill="#263238" stroke-width="0"/><path d="M183.556,204.573s14.703,42.511,14.35,62.956c-.204,11.711-1.089,33.534-4.622,48.879-2.883,12.533-14.632,20.523-14.632,20.523l-9.4-.556s-5.092-19.113-4.206-26.719c1.762-15.142,6.987-26.515,6.353-40.419-1.003-22.763-7.739-65.016-7.739-65.016l19.896.352Z" fill="#ff725e" stroke-width="0"/><polygon points="167.365 338.826 180.642 339.609 181.849 335.622 167.013 334.252 167.365 338.826" fill="#263238" stroke-width="0"/><path d="M169.041,290.456s0-.078.078-.07c8.342.783,14.1-11.225,12.729-27.667l-4.426-41.908-8.382,69.645Z" fill="#000" isolation="isolate" opacity=".2" stroke-width="0"/><path d="M176.961,204.22s11.687,74.752-12.611,83.165c-12.823,4.857-23.609-.407-36.385-6.063-7.387-3.266-16.614-12.11-16.614-12.11l3.548-9.658c6.382-1.726,13.06-2.062,19.583-.987,12.455,1.927,12.98,5.483,17.405,2.796,9.306-22.998-6.705-41.179,4.175-57.182l20.899.039Z" fill="#ff725e" stroke-width="0"/><polygon points="115.595 257.721 110.848 270.246 114.342 272.917 119.982 258.011 115.595 257.721" fill="#263238" stroke-width="0"/><path d="M113.637,190.175c-1.183,1.747-7.183.564-7.183.564l-1.277-7.434,7.371,2.953,1.089,3.917Z" fill="#ffb573" stroke-width="0"/><path d="M106.665,182.922l1.144,7.724-4.426.658c-.497.045-.947-.293-1.042-.783l-1.7-5.483c-.06-.265.099-.53.36-.603l5.663-1.512Z" fill="#ffb573" stroke-width="0"/><path d="M104.684,186.423l2.522.446,2.389-1.794-.924-.658c-.626-.446-1.067-1.107-1.238-1.856-.178-.785-.285-1.585-.321-2.389v-.266c-.062-.485-.44-.87-.924-.94l-.627.462c-.392.854-.11,1.849-.157,2.514l-.102,1.292-1.01.439.392,2.749Z" fill="#ffb573" stroke-width="0"/><path d="M153.406,160.754l-14.82,20.366-27.22,5.374v4.465s25.583,1.896,31.333-1.449c5.75-3.345,15.392-23.633,15.392-23.633l-4.684-5.123Z" fill="#ffb573" stroke-width="0"/><path d="M153.234,121.588c-6.22-2.084-13.434,1.778-16.277,7.684-2.843,5.906-1.849,13.152,1.355,18.87.963,1.731,2.115,3.36,2.906,5.17.879,1.794,1.071,3.847.54,5.773-.642,1.872-1.3,3.071-3.619,2.773,0,0,0-1.285.885-1.128h0s-1.88,1.042-2.616.36c.854,1.316,3.133.838,3.862-.556,1.089-2.076-.916-4.888-3.266-4.864-2.35.023-4.261,2.405-4.183,4.747.2,2.388,1.709,4.467,3.917,5.397-1.306.215-2.592-.476-3.133-1.684,1.065,2.789,4.543,4.018,7.481,3.47s5.421-2.428,7.724-4.332c3.133-2.569,6.337-5.82,6.267-9.839-.07-3-1.997-5.577-3.619-8.107-1.621-2.53-3.039-5.616-2.005-8.429.869-2.389,3.235-3.83,5.319-5.287,1.504-1.042,4.559-3.368,4.199-5.569-.368-2.099-3.971-3.862-5.734-4.449Z" fill="#263238" stroke-width="0"/><path d="M139.22,191.303l-4.105-10.865.94.078c1.553.13,3.039-.66,3.799-2.021,3.133-5.577,11.225-19.732,13.504-20.437,3.251-.963,6.596,1.637,7.833,5.483.932,2.828-8.617,14.954-13.019,21.847-3.909,6.102-8.953,5.914-8.953,5.914Z" fill="#263238" stroke-width="0"/><path d="M99.185,265.672v.086c.117.306.383.531.705.595.193.061.404.016.556-.117.658-.603.235-3.133.196-3.384-.009-.067-.059-.12-.125-.133-.062-.008-.123.016-.165.063-.533.752-1.379,2.092-1.167,2.89ZM100.391,263.322c.141,1.003.204,2.35-.165,2.679-.078.043-.173.043-.251,0-.214-.04-.392-.188-.47-.392-.141-.423.157-1.285.885-2.303v.016Z" fill="#ff725e" stroke-width="0"/><path d="M100.399,263.181c.204.846,1.003,2.287,1.708,2.46.265.053.531-.083.642-.329.124-.226.141-.496.047-.736-.321-.971-2.17-1.77-2.248-1.809-.051-.028-.113-.028-.165,0-.047.038-.071.097-.063.157.019.088.045.175.078.258ZM102.53,264.747c.032.14.007.287-.07.407-.102.188-.204.188-.282.172-.478-.094-1.206-1.277-1.441-2.099.603.306,1.567.877,1.77,1.473-.005.015-.005.032,0,.047h.023Z" fill="#ff725e" stroke-width="0"/><path d="M156.312,201.956l-.728,2.546c-.094.196.133.399.462.392h27.025c.258,0,.47-.133.486-.29l.251-2.546c0-.172-.204-.329-.486-.321h-26.555c-.18-.014-.353.07-.454.219Z" fill="#ff725e" stroke-width="0"/><path d="M156.312,201.956l-.728,2.546c-.094.196.133.399.462.392h27.025c.258,0,.47-.133.486-.29l.251-2.546c0-.172-.204-.329-.486-.321h-26.555c-.18-.014-.353.07-.454.219Z" fill="#fff" isolation="isolate" opacity=".5" stroke-width="0"/><path d="M161.498,205.129h-.783c-.149,0-.274-.078-.258-.172l.352-3.313c0-.094.149-.172.305-.172h.783c.149,0,.266.078.258.18l-.352,3.306c-.047.094-.188.18-.305.172Z" fill="#ff725e" stroke-width="0"/><path d="M180.979,205.129h-.783c-.141,0-.266-.078-.251-.172l.353-3.306c0-.102.141-.18.29-.18h.783c.149,0,.274.078.258.172l-.353,3.306c-.016.102-.141.18-.298.18Z" fill="#ff725e" stroke-width="0"/><path d="M172.042,205.113h-.783c-.149,0-.274-.078-.258-.172l.352-3.306c0-.102.149-.18.298-.18h.783c.149,0,.266.078.258.172l-.36,3.306c0,.102-.133.18-.29.18Z" fill="#ff725e" stroke-width="0"/><path d="M164.529,143.936c.83,4.269,1.645,11.977-1.253,14.296,0,0,1.159,4.379,8.906,5.546,8.554,1.285,4.065-3.588,4.065-3.588-4.661-1.841-4.543-5.209-3.744-8.311l-7.974-7.943Z" fill="#ffb573" stroke-width="0"/><path d="M163.307,158.192c4.134.262,8.242.833,12.29,1.708l5.859,1.747c1.042,2.099-.666,6.415-5.569,7.238,0,0-12.353,1.7-15.995-11.021l3.415.329Z" fill="#ffb573" stroke-width="0"/><path d="M167.765,147.187l4.7,4.7c-.198.728-.327,1.473-.384,2.225-1.786-.525-4.653-2.491-4.849-4.371.002-.879.183-1.747.533-2.554Z" fill="#000" isolation="isolate" opacity=".2" stroke-width="0"/><path d="M159.297,138.547c2.099,6.627,2.836,9.478,7.136,12.087,6.408,3.917,14.1-.094,14.021-7.207-.063-6.408-3.47-16.168-10.747-17.233-5.177-.776-10.002,2.792-10.778,7.969-.219,1.462-.093,2.956.368,4.361v.023Z" fill="#ffb573" stroke-width="0"/><path d="M175.112,137.513c.741,1.163,1.64,2.218,2.671,3.133-.488.529-1.185.815-1.903.783l-.768-3.917Z" fill="#ed893e" stroke-width="0"/><path d="M174.368,144.97c.265-.029.527-.082.783-.157.084-.019.137-.103.118-.188,0,0,0,0,0,0h0c-.023-.085-.11-.137-.196-.117-1.356.374-2.809.083-3.917-.783-.067-.067-.176-.067-.243,0-.065.064-.066.168-.002.233,0,0,.002.002.002.002.972.782,2.215,1.145,3.454,1.01Z" fill="#263238" stroke-width="0"/><path d="M157.017,125.316c-1.752,1.133-2.844,3.046-2.93,5.131-.036.393.026.788.18,1.151.157.366.498.62.893.666.595,0,1.034-.533,1.363-1.034l1.52-2.35c.626-.763,1.152-1.603,1.567-2.499.509-1.543-1.661-1.661-2.593-1.065Z" fill="#ff725e" stroke-width="0"/><path d="M157.762,126.875c-4.159,4.81-6.024,18.118,6.165,21.831,2.037-1.614-1.253-4.551-2.648-8.264-.916-2.428,3.729-6.964,5.538-8.828,1.809-1.864,3.478-4.551,6.032-4.12.648.217,1.346.236,2.005.055,2.029-.916,1.042-2.131,0-2.977-1.598-1.183-3.5-1.884-5.483-2.021-4.34-.511-8.661,1.098-11.609,4.324Z" fill="#263238" stroke-width="0"/><path d="M171.29,125.261c4.896,4.081-1.567,4.183-4.99,6.768-3.282,2.483-.979,6.549-6.533,8.436-4.535,1.324-5.585.525-6.838-.352,3.194-.553,5.615-3.186,5.898-6.415.384-2.977,6.87-13.168,12.463-8.436Z" fill="#263238" stroke-width="0"/><path d="M158.561,144.116c.767,1.105,1.937,1.864,3.259,2.115,1.755.305,2.428-1.3,1.825-2.867-.572-1.41-2.162-3.266-3.862-2.867-1.217.315-1.949,1.555-1.637,2.773.08.307.221.595.415.846Z" fill="#ffb573" stroke-width="0"/><path d="M170.451,125.677c.948,2.413,3.682,2.091,5.703,4.614,1.245,1.567,3.689-3.266.36-5.17s-7.551-3.219-6.063.556Z" fill="#263238" stroke-width="0"/><path d="M167.569,135.86c.143.015.279-.064.337-.196.642-1.426,2.569-1.786,2.585-1.786.179-.039.296-.211.266-.392-.035-.177-.207-.292-.384-.258-.102,0-2.295.462-3.078,2.185-.072.167,0,.361.165.439h.11v.008Z" fill="#263238" stroke-width="0"/><path d="M177.752,132.977c.117.008.229-.049.29-.149.103-.145.068-.345-.076-.448-.003-.002-.006-.004-.01-.007h0c-.88-.61-2.003-.753-3.008-.384-.165.065-.247.251-.182.416.003.008.006.015.01.023.072.166.264.243.431.172h0c.79-.276,1.666-.154,2.35.329.061.03.128.046.196.047Z" fill="#263238" stroke-width="0"/><path d="M209.954,175.856l-4.59,2.608-4.77,10.262s4.606,2.93,8.241.556c3.635-2.373,1.12-13.426,1.12-13.426Z" fill="#ff725e" stroke-width="0"/><path d="M209.954,175.856l-4.59,2.608-4.77,10.262s4.606,2.93,8.241.556c3.635-2.373,1.12-13.426,1.12-13.426Z" fill="#fff" isolation="isolate" opacity=".5" stroke-width="0"/><path d="M129.687,179.029l5.428,1.567,5.146,10.645s-4.136,3.83-8.617.172c-3.353-2.773-1.958-12.384-1.958-12.384Z" fill="#ff725e" stroke-width="0"/><g opacity=".5"><path d="M129.687,179.029l5.428,1.567,5.146,10.645s-4.136,3.83-8.617.172c-3.353-2.773-1.958-12.384-1.958-12.384Z" fill="#fff" stroke-width="0"/></g><path d="M177.439,135.633c.376-.07.783.352.869.932s-.125,1.112-.501,1.175-.783-.352-.869-.932.125-1.12.501-1.175Z" fill="#263238" stroke-width="0"/><path d="M178.598,135.061l-1.324.65c.799.564,1.324-.65,1.324-.65Z" fill="#263238" stroke-width="0"/><path d="M170.898,136.98c.376-.07.783.352.869.932s-.125,1.112-.501,1.175-.783-.352-.869-.932.11-1.104.501-1.175Z" fill="#263238" stroke-width="0"/><path d="M172.042,136.408l-1.324.65c.799.564,1.324-.65,1.324-.65Z" fill="#263238" stroke-width="0"/><path d="M137.732,166.95c-.738.004-1.469-.134-2.154-.407-2.428-.995-3.556-3.517-3.133-6.932.028-.214.225-.365.439-.337.211.024.362.213.339.424,0,.005-.001.01-.002.014-.407,3.031.548,5.256,2.624,6.102,2.471.846,5.207.005,6.776-2.084,1.966-2.616,1.324-6.329-1.739-10.183-8.021-10.066-7.489-15.416-6.353-19.646,1.645-6.141,6.462-13.175,20.092-11.82.216.022.374.215.352.431s-.215.374-.431.352c-13.074-1.3-17.695,5.405-19.262,11.248-1.128,4.23-1.567,9.173,6.212,18.956,4.7,5.898,2.796,9.76,1.755,11.139-1.321,1.711-3.353,2.721-5.515,2.742Z" fill="#263238" stroke-width="0"/></g></svg>