<?xml version="1.0" encoding="UTF-8"?><svg id="a" xmlns="http://www.w3.org/2000/svg" width="500" height="400" xmlns:xlink="http://www.w3.org/1999/xlink" viewBox="0 0 500 400"><defs><radialGradient id="b" cx="-1141.727" cy="672.692" fx="-1141.727" fy="672.692" r="177.535" gradientTransform="translate(1810.298 -532.021) scale(1.371 1.085)" gradientUnits="userSpaceOnUse"><stop offset="0" stop-color="#fee5e1"/><stop offset=".369" stop-color="rgba(254,229,225,.993)" stop-opacity=".993"/><stop offset=".502" stop-color="rgba(254,229,226,.966)" stop-opacity=".966"/><stop offset=".597" stop-color="rgba(254,231,227,.919)" stop-opacity=".919"/><stop offset=".673" stop-color="rgba(254,232,229,.853)" stop-opacity=".853"/><stop offset=".739" stop-color="rgba(254,235,232,.766)" stop-opacity=".766"/><stop offset=".797" stop-color="rgba(254,237,235,.659)" stop-opacity=".659"/><stop offset=".85" stop-color="rgba(254,241,239,.531)" stop-opacity=".531"/><stop offset=".898" stop-color="rgba(254,245,243,.383)" stop-opacity=".383"/><stop offset=".943" stop-color="rgba(254,249,248,.213)" stop-opacity=".213"/><stop offset=".983" stop-color="rgba(254,254,254,.032)" stop-opacity=".032"/><stop offset=".989" stop-color="#fff" stop-opacity="0"/></radialGradient><linearGradient id="c" x1="366.724" y1="155.018" x2="427.641" y2="155.018" gradientUnits="userSpaceOnUse"><stop offset="0" stop-color="#fe7059" stop-opacity="0"/><stop offset=".007" stop-color="rgba(254,112,89,.032)" stop-opacity=".032"/><stop offset=".047" stop-color="rgba(254,112,89,.213)" stop-opacity=".213"/><stop offset=".092" stop-color="rgba(254,112,89,.383)" stop-opacity=".383"/><stop offset=".141" stop-color="rgba(254,112,89,.531)" stop-opacity=".531"/><stop offset=".194" stop-color="rgba(254,112,89,.659)" stop-opacity=".659"/><stop offset=".253" stop-color="rgba(254,112,89,.766)" stop-opacity=".766"/><stop offset=".319" stop-color="rgba(254,112,89,.853)" stop-opacity=".853"/><stop offset=".397" stop-color="rgba(254,112,89,.919)" stop-opacity=".919"/><stop offset=".493" stop-color="rgba(254,112,89,.966)" stop-opacity=".966"/><stop offset=".627" stop-color="rgba(254,112,89,.993)" stop-opacity=".993"/><stop offset="1" stop-color="#fe7059"/></linearGradient><linearGradient id="d" x1="103.824" y1="310.317" x2="114.614" y2="310.317" xlink:href="#c"/></defs><ellipse cx="250" cy="200" rx="241" ry="195.5" fill="url(#b)" stroke-width="0"/><path d="M282.099,209.251c0,3.327-2.696,6.024-6.023,6.024h0c-3.327,0-6.024-2.698-6.024-6.024v-4.18c0-3.326,2.697-6.023,6.024-6.023h0c3.327,0,6.023,2.697,6.023,6.023v4.18Z" fill="#fe765d" stroke-width="0"/><path d="M343.474,275.02c-1.661-8.114-8.851-30.057-26.369-37.986-17.519-7.929-33.931-1.475-40.015,2.211-6.085,3.688-13.092,18.072-16.226,31.533-3.136,13.461-13.831,13.278-22.128,16.228l3.872,14.015,85.561.553.184-2.213c22.312-1.291,16.781-16.228,15.121-24.34ZM255.977,296.503c3.411,0,18.624-11.433,21.759-11.065,1.567,8.39,1.752,12.816,1.936,13.37.185.553-22.774,4.609-23.695-2.305Z" fill="#fe765d" stroke-width="0"/><path d="M286.371,243.119c-1.106,5.285-5.654,37.618,2.091,58.885,6.022.491,14.997,0,14.997,0-1.721-11.187-5.163-42.168,1.966-59.869-7.129.122-19.054.984-19.054.984Z" fill="#fff" stroke-width="0"/><path d="M290.305,233.529c-6.085.371-7.499,6.947-4.733,11.003,2.765,4.057,7.989.736,8.912-1.291,6.578,6.208,15.121.615,16.965-8.605,0-.736-10.448-2.765-21.144-1.107Z" fill="#fff" stroke-width="0"/><path d="M307.639,200.2c-.277-6.136-6.577-17.844-21.513-17.183-10.633.818-11.924,10.891-11.924,10.891-.369,1.131-2.274,3.523-2.274,3.523-.553-4.72,2.431-17.226,15.859-17.561,15.12-.377,22.341,11.456,22.62,19.954-1.2,1.983-2.766.377-2.766.377Z" fill="#fe765d" stroke-width="0"/><path d="M277.975,188.591c-5.107,3.499-8.166,9.322-5.578,15.112,2.588,5.792,3.322,8.343.812,12.874-3.531,6.374-5.02,12.324-2.363,17.735,16.017-2.212,23.066-4.013,23.066-4.013,0,0-6.193-42.383-15.937-41.707Z" fill="#31241c" stroke-width="0"/><path d="M301.751,217.754s3.961,11.937,4.337,16.98c.341,4.624-14.961,7.71-16.047,2.862-1.131-5.768-2.813-15.574-2.813-15.574" fill="#ffb573" stroke-width="0"/><path d="M303.023,222.739l-1.272-4.985-14.523,4.269s.518,3.013,1.18,6.789c1.079.205,2.193.304,3.34.252,4.728-.209,8.809-2.687,11.275-6.325Z" fill="#ab5d2d" stroke-width="0"/><path d="M276.363,211.954c.355,7.95,7.087,14.103,15.032,13.749h0c7.948-.355,14.104-7.085,13.749-15.035l-.68-15.218c-.355-7.948-7.087-14.104-15.034-13.747h0c-7.948.355-14.103,7.085-13.748,15.033l.68,15.219Z" fill="#ffb573" stroke-width="0"/><path d="M295.373,196.197c-1.818-.976-4.206-1.429-6.106-.449-.711.367-.084,1.437.626,1.071,1.481-.764,3.452-.304,4.853.449.705.379,1.331-.692.626-1.071h0Z" fill="#31241c" stroke-width="0"/><path d="M278.004,198.206c.859-.814,2.09-1.11,3.234-.876.781.16,1.113-1.035.33-1.196-1.59-.326-3.249.064-4.442,1.194-.582.551.297,1.427.877.877h0Z" fill="#31241c" stroke-width="0"/><path d="M286.587,209.305c-.111,0-.221-.039-.31-.117l-2.806-2.472c-.114-.1-.172-.25-.156-.401s.104-.285.236-.36l2.828-1.591c.227-.127.512-.046.639.179.127.226.047.512-.178.639l-2.252,1.267,2.311,2.035c.194.171.213.468.042.662-.092.105-.222.159-.352.159Z" fill="#31241c" stroke-width="0"/><path d="M287.626,213.283c-.756,0-1.5-.2-2.079-.595-.214-.146-.269-.438-.123-.652.145-.213.437-.268.651-.123.796.544,2.135.571,3.049.062.55-.307,1.194-.939,1.136-2.207-.012-.259.188-.478.447-.49.254-.015.477.188.49.447.062,1.363-.512,2.453-1.616,3.068-.586.327-1.275.489-1.955.489Z" fill="#31241c" stroke-width="0"/><path d="M289.738,204.115c.342.904,1.353,1.361,2.257,1.018.902-.341,1.362-1.351,1.018-2.255-.342-.906-1.351-1.363-2.256-1.021-.905.342-1.36,1.352-1.019,2.258Z" fill="#1a191f" stroke-width="0"/><path d="M279.268,204.742c.342.903,1.352,1.363,2.257,1.02.903-.341,1.362-1.354,1.02-2.258-.343-.904-1.352-1.359-2.257-1.017-.905.341-1.362,1.35-1.021,2.255Z" fill="#1a191f" stroke-width="0"/><path d="M279.721,204.329c-.073,0-.147-.02-.214-.061l-1.708-1.046c-.194-.119-.255-.372-.136-.566.119-.194.373-.254.566-.136l1.707,1.047c.194.119.255.372.136.566-.078.127-.213.197-.352.197Z" fill="#1a191f" stroke-width="0"/><path d="M292.126,203.713c-.131,0-.259-.062-.339-.177-.129-.187-.083-.443.104-.573l1.786-1.238c.187-.13.443-.083.573.104.129.187.083.443-.104.573l-1.786,1.238c-.071.049-.153.073-.234.073Z" fill="#1a191f" stroke-width="0"/><path d="M318.843,212.046c-2.389-5.148.56-8.343-.711-13.248-1.115-4.29-6.22-4.157-8.854-10.233-4.035-9.317-24.797-17.705-32.538,1.202,8.606-5.835,17.427-2.802,20.775,1.512,6.752,8.699-.176,12.385,2.429,17.558,1.899,3.769,3.144,6.308.69,12.013-2.454,5.704.982,11.129.982,11.129,8.035-.89,17.118-1.68,25.37-3.077,0-13.922-5.756-11.707-8.143-16.855Z" fill="#31241c" stroke-width="0"/><path d="M282.314,283.317c-7.006.614-9.71,2.705-15.98,6.024-6.27,3.319-7.622,4.057-6.147,4.671-3.688.245-1.537,2.211,1.045,1.351-1.72.738.676,1.538,4.118.247.861,1.352,5.287.739,8.114-.86,2.828-1.598,9.589-2.951,15.735-.861.739-3.811-1.597-10.449-1.597-10.449l-5.287-.123Z" fill="#ffb573" stroke-width="0"/><path d="M286.77,283.41c3.78-.829,14.353-1.691,20.623-1.321.369,4.917-2.336,14.875-2.336,14.875l-16.72-3.689s.832-5.255-1.567-9.864Z" fill="#fe765d" stroke-width="0"/><path d="M286.454,283.497c7.465-1.079,15.014-1.058,22.538-1.27,3.624-.103,7.1-.523,10.692-.934,3.414-.39,7.456.35,10.738,1.344.387.117.551-.487.166-.603-3.03-.916-6.577-1.519-9.75-1.451-1.572.034-3.148.356-4.698.587-2.158.322-4.356.343-6.533.413-7.788.252-15.589.194-23.319,1.311-.398.057-.228.66.166.603h0Z" fill="#1f0e03" stroke-width="0"/><path d="M319.753,264.345c.711,5.192,1.082,10.413,1.096,15.653.001.403.626.403.625,0-.014-5.298-.399-10.571-1.118-15.819-.055-.398-.657-.228-.603.166h0Z" fill="#1f0e03" stroke-width="0"/><path d="M287.846,293.586c2.26-.027,4.355.975,6.499,1.557,2.548.691,5.043,1.557,7.589,2.255,5.147,1.411,10.499,2.307,15.827,2.615,8.478.49,18.735.074,25.136-6.272.286-.284-.156-.726-.442-.442-6.691,6.634-17.687,6.642-26.467,5.971-5.251-.402-10.516-1.473-15.567-2.95-2.269-.664-4.533-1.357-6.798-2.034-1.907-.57-3.754-1.35-5.777-1.326-.403.005-.404.63,0,.625h0Z" fill="#1f0e03" stroke-width="0"/><path d="M275.374,257.911c-.559,1.677-.392,3.481-.368,5.224.034,2.398.21,4.791.335,7.185.123,2.364.195,4.729.385,7.089.175,2.179.999,4.243,1.112,6.401.021.401.646.403.625,0-.104-1.973-.86-3.84-1.059-5.813-.218-2.159-.286-4.333-.382-6.5-.097-2.185-.246-4.367-.337-6.553-.091-2.187-.409-4.765.292-6.868.128-.383-.476-.546-.603-.166h0Z" fill="#1f0e03" stroke-width="0"/><path d="M284.84,236.519c-.981,3.461-1.672,7.878,2.209,9.823,1.399.702,2.994.354,4.344-.258.949-.43,1.776-1.156,2.559-1.828.793-.68,1.141.351,1.842.852,5.702,4.078,13.208-1.569,15.097-7.194.128-.383-.476-.546-.603-.166-2.015,6.003-10.626,11.517-15.582,5.394-.111-.137-.326-.104-.442,0-2.056,1.848-4.729,4.036-7.533,2.305-3.057-1.887-2.078-5.973-1.287-8.763.11-.389-.493-.553-.603-.166h0Z" fill="#1f0e03" stroke-width="0"/><path d="M265.065,296.159c1.97-.35,3.549-1.583,5.207-2.622,2.285-1.434,4.852-2.257,7.331-3.279.367-.151.207-.757-.166-.603-2.047.844-4.142,1.558-6.119,2.561-2.15,1.091-3.983,2.908-6.419,3.34-.397.071-.228.673.166.603h0Z" fill="#1f0e03" stroke-width="0"/><path d="M260.591,296.128c4.979-2.103,9.565-5.057,14.676-6.854.378-.133.215-.737-.166-.603-5.163,1.815-9.797,4.793-14.825,6.917-.37.156-.051.695.316.54h0Z" fill="#1f0e03" stroke-width="0"/><path d="M259.484,294.652c1.966-1.194,4.21-1.749,6.231-2.822,2.002-1.063,3.992-2.153,6.063-3.078.368-.164.049-.703-.316-.54-2.07.925-4.062,2.012-6.062,3.078-2.021,1.077-4.263,1.627-6.231,2.822-.344.209-.03.75.316.54h0Z" fill="#1f0e03" stroke-width="0"/><path d="M291.908,248.457c.21,1.11,1.78,1.072,2.288.214.282-.476-.024-1.038-.46-1.285-.533-.303-1.338-.252-1.703.277-.23.333.313.645.54.315.275-.398,1.425.018,1.021.465-.307.339-.985.366-1.083-.151-.075-.396-.678-.228-.603.166h0Z" fill="#1f0e03" stroke-width="0"/><path d="M291.08,253.084c-.159,1.106,1.123,1.417,1.867.802.38-.314.578-.919.258-1.346-.333-.445-.979-.372-1.445-.225-.383.121-.219.725.166.603.233-.074.538-.161.764-.027.194.114-.066.463-.17.539-.228.167-.905.29-.837-.18.057-.394-.546-.564-.603-.166h0Z" fill="#1f0e03" stroke-width="0"/><path d="M290.699,259.068c.055,1.254,1.905.754,2.091-.194.226-1.156-1.79-1.79-1.987-.535-.062.394.541.564.603.166.076-.483.766-.152.774.223.007.295-.84.697-.855.339-.018-.402-.643-.403-.625,0h0Z" fill="#1f0e03" stroke-width="0"/><path d="M278.529,293.274c-.093.922.037,1.987.38,2.85.147.37.752.209.603-.166-.327-.822-.448-1.805-.358-2.684.041-.401-.585-.397-.625,0h0Z" fill="#1f0e03" stroke-width="0"/><path d="M286.338,283.587c1.166.82,1.259,2.446,1.589,3.712.437,1.675.761,3.753.02,5.389-.165.364.374.682.54.315.837-1.846.488-3.96.043-5.871-.345-1.481-.55-3.152-1.877-4.085-.33-.233-.642.31-.315.54h0Z" fill="#1f0e03" stroke-width="0"/><path d="M271.256,212.856c-.982,7.292,9.79,7.316,14.44,7.094.401-.019.403-.644,0-.625-4.105.195-14.739.393-13.838-6.303.053-.394-.549-.564-.603-.166h0Z" fill="#fe765d" stroke-width="0"/><path d="M289.323,219.547c0,1.035-1.032,1.874-2.306,1.874s-2.304-.84-2.304-1.874,1.031-1.876,2.304-1.876,2.306.841,2.306,1.876Z" fill="#fe765d" stroke-width="0"/><path d="M287.786,179.87c-7.66.192-11.916,4.342-14.061,8.749.73.081,1.52.295,2.177.606,1.587-2.75,4.598-5.774,10.225-6.207,14.936-.661,21.236,11.047,21.513,17.183,0,0,1.567,1.606,2.766-.377-.278-8.498-7.5-20.331-22.62-19.954Z" fill="#fe765d" stroke-width="0"/><path d="M315.261,209.251c0,3.327-2.698,6.024-6.023,6.024h0c-3.329,0-6.025-2.698-6.025-6.024v-4.18c0-3.326,2.696-6.023,6.025-6.023h0c3.326,0,6.023,2.697,6.023,6.023v4.18Z" fill="#fe765d" stroke-width="0"/><path d="M313.842,208.608c-.219,4.066-5.676,4.998-7.174,1.18-.447-1.139-.192-2.753-.192-3.953,0-4.161,5.722-4.879,7.174-1.179.447,1.139.192,2.753.192,3.952,0,.403.625.403.625,0,0-2.509.245-4.929-2.134-6.492-2.883-1.893-6.317.648-6.482,3.719-.133,2.468-.153,4.991,2.133,6.493,2.883,1.893,6.318-.648,6.483-3.72.022-.403-.604-.401-.625,0Z" fill="#1f0e03" stroke-width="0"/><path d="M243.345,296.103h48.067c2.213,0,2.705,4.426-.983,4.426h-110.271c-3.32-6.639-18.194-47.207-19.669-51.018-1.475-3.811-.122-8.237,5.901-8.237h42.289c4.425,0,9.343.736,12.416,7.498,3.073,6.762,22.25,47.33,22.25,47.33Z" fill="#fff" stroke="#000333" stroke-miterlimit="10"/><path d="M291.564,300.353c.145-.051.275-.112.398-.178.012-.006.024-.01.034-.017,1.888-1.057,1.24-4.056-.583-4.056h-48.067s-.015-.033-.038-.081c-.022-.046-.052-.108-.093-.196-.171-.361-.504-1.068-.975-2.065-4.124-8.728-18.518-39.209-21.145-44.988-3.073-6.763-7.991-7.498-12.416-7.498h-3.935c4.426,0,9.343.736,12.417,7.498,3.073,6.762,22.251,47.33,22.251,47.33l1.66,4.306s2.072.049,5.38.12h43.977c.222,0,.425-.018.617-.048.122-.019.231-.053.341-.084.058-.016.122-.026.177-.044Z" fill="#000333" stroke-width="0"/><path d="M203.392,271.517c1.213,3.001-.225,5.433-3.212,5.433s-6.393-2.432-7.606-5.433c-1.213-3.002.224-5.436,3.212-5.436s6.393,2.434,7.606,5.436Z" fill="#000333" stroke-width="0"/><path d="M347.804,303.961h-173.407v27.488c19.036,4.053,44.693,6.981,69.959,7.301,34.589.437,70.454.045,103.448-1.56v-33.229Z" fill="#000333" stroke-width="0"/><path d="M355,303.276c0,1.639-1.33,2.97-2.971,2.97h-181.858c-1.64,0-2.97-1.331-2.97-2.97h0c0-1.641,1.33-2.971,2.97-2.971h181.858c1.641,0,2.971,1.33,2.971,2.971h0Z" fill="#fff" stroke-width="0"/><path d="M88.762,256.931c.01-.667.024-1.334.041-2" fill="none" stroke="#000" stroke-linecap="round" stroke-miterlimit="10"/><path d="M88.945,250.942c4.412-95.981,79.232-172.363,170.884-172.363,93.23,0,169.044,79.036,171.049,177.339" fill="none" stroke="#000" stroke-dasharray="0 0 3.991 3.991" stroke-linecap="round" stroke-miterlimit="10"/><path d="M430.909,257.914c.007.666.01,1.333.01,2" fill="none" stroke="#000" stroke-linecap="round" stroke-miterlimit="10"/><polygon points="462.56 136.313 422.402 137.54 462.56 138.767 462.56 136.313" fill="#ef7574" stroke-width="0"/><polygon points="439.435 167.763 399.276 168.99 439.435 170.217 439.435 167.763" fill="#ef7574" stroke-width="0"/><polygon points="449.986 151.176 405.103 152.403 449.986 153.63 449.986 151.176" fill="#ef7574" stroke-width="0"/><ellipse cx="397.182" cy="140.014" rx="30.46" ry="30.713" fill="#fe765d" stroke-width="0"/><path d="M397.182,140.014l30.452-.706c.003.116.005.232.006.348.195,16.848-13.394,30.872-30.103,31.069-16.709.196-30.618-13.506-30.812-30.353l30.458-.358Z" fill="url(#c)" stroke-width="0"/><ellipse cx="397.182" cy="140.014" rx="26.407" ry="26.627" fill="#feffff" stroke-width="0"/><path d="M373.685,140.29c-.151-13.085,10.246-23.815,23.223-23.968,12.977-.152,23.619,10.332,23.77,23.416.151,13.085-10.246,23.816-23.223,23.968-12.977.152-23.619-10.332-23.77-23.416Z" fill="#ff725e" stroke-width="0"/><path d="M394.168,134.879h7.312c3.706,0,6.716,3.009,6.716,6.716v12.892h-20.743v-12.892c0-3.706,3.009-6.716,6.716-6.716Z" fill="#000333" stroke-width="0"/><ellipse cx="397.824" cy="132.265" rx="7.13" ry="7.19" fill="#000333" stroke-width="0"/><circle cx="428.123" cy="300.746" r="31.57" transform="translate(-70.876 458.026) rotate(-52.582)" fill="#fe765d" stroke-width="0"/><circle cx="428.123" cy="300.746" r="24.525" fill="#feffff" stroke-width="0"/><circle cx="428.123" cy="300.746" r="16.54" transform="translate(61.229 673.742) rotate(-80.56)" fill="#fe765d" stroke-width="0"/><circle cx="428.123" cy="300.746" r="8.826" fill="#feffff" stroke-width="0"/><path d="M426.75,299.648l29.099-34.59,1.51,1.235c-9.643,11.564-19.285,23.129-28.928,34.693-.396.337-.977.35-1.384.034-.414-.322-.542-.903-.297-1.373Z" fill="#000333" stroke-width="0"/><polygon points="445.28 277.48 444.663 269.656 455.026 257.44 455.85 265.058 445.28 277.48" fill="#000333" stroke-width="0"/><polygon points="446.941 278.859 454.754 278.118 465 265.804 457.354 266.306 446.941 278.859" fill="#000333" stroke-width="0"/><path d="M113.602,272.905c-.313-.182-.704-.164-.999.046l-2.938,2.097c-9.256-10.855-25.559-12.152-36.414-2.896-10.855,9.256-12.152,25.559-2.896,36.414,7.324,8.59,21.23,15.635,31.618,11.216.469-.199.688-.742.489-1.211s-.742-.688-1.211-.489c-12.193,5.204-28.148-4.669-33.352-16.862-5.204-12.193.463-26.297,12.656-31.5,9.613-4.102,20.775-1.513,27.601,6.402l-3.54,2.521c-.416.295-.514.871-.219,1.287.154.217.394.357.659.384l7.347.735c.507.051.96-.319,1.01-.826l.644-6.429c.036-.36-.142-.708-.455-.89Z" fill="#ff725e" stroke-width="0"/><path d="M103.824,317.726s6.471-5.063,8.67-14.712c.111-.485.535-.845,1.059-.845h0c.718,0,1.152.627,1.045,1.304-.747,4.757-5.379,12.516-9.043,14.992l-1.731-.739Z" fill="url(#d)" stroke-width="0"/><path d="M76.214,310.233c-2.373-2.369-4.477-4.991-6.265-7.819-.653-1.033-.646-2.273.018-3.298l2.552-3.939c.544-.841.648-1.8.296-2.738l-4.389-11.698c-.687-1.832-2.863-2.557-4.512-1.503l-6.123,3.912c-2.794,1.785-4.092,4.995-3.322,8.221,2.369,9.928,7.537,18.862,14.679,25.928,7.066,7.142,16,12.31,25.929,14.679,3.226.77,6.435-.528,8.221-3.322l3.912-6.123c1.054-1.649.329-3.824-1.503-4.512l-11.698-4.389c-.938-.352-1.897-.248-2.738.296l-3.939,2.552c-1.025.664-2.266.671-3.298.018-2.827-1.788-5.45-3.892-7.819-6.265h0Z" fill="#ff725e" fill-rule="evenodd" stroke-width="0"/><path d="M98.676,328.377c-9.928-2.369-18.862-7.537-25.928-14.679-7.142-7.066-12.31-16-14.679-25.929-.43-1.803-.215-3.601.547-5.148l-.825.527c-2.794,1.785-4.092,4.995-3.322,8.221,2.369,9.928,7.537,18.863,14.679,25.928,7.066,7.142,16,12.31,25.929,14.679,3.226.77,6.435-.528,8.221-3.322l.527-.825c-1.547.762-3.345.977-5.148.547h0Z" fill="#000333" fill-rule="evenodd" stroke-width="0"/><path d="M79.469,300.157v-1.452l1.325-1.199c2.24-2.004,3.329-3.156,3.36-4.355,0-.836-.505-1.499-1.688-1.499-.884,0-1.656.442-2.192.852l-.679-1.72c.772-.584,1.972-1.057,3.36-1.057,2.319,0,3.598,1.357,3.598,3.219,0,1.72-1.247,3.093-2.729,4.418l-.947.789v.031h3.866v1.972h-7.273Z" fill="#000333" stroke-width="0"/><path d="M92.466,300.157v-2.446h-4.544v-1.562l3.881-6.248h2.935v6.011h1.23v1.799h-1.23v2.446h-2.271ZM92.466,295.913v-2.272c0-.615.031-1.247.078-1.909h-.062c-.332.663-.6,1.262-.947,1.909l-1.372,2.24v.031h2.304Z" fill="#000333" stroke-width="0"/><path d="M96.564,300.788l3.376-11.439h1.594l-3.377,11.439h-1.593Z" fill="#000333" stroke-width="0"/><path d="M109.547,289.902v1.515l-4.229,8.741h-2.54l4.229-8.252v-.031h-4.701v-1.972h7.241Z" fill="#000333" stroke-width="0"/><path d="M285.87,104.139h-55.509c-.958,0-1.735-.777-1.735-1.735v-34.693c.004-.958.785-1.731,1.743-1.727.358.002.707.114.998.322l23.834,17.017h5.828l23.834-17.017c.78-.556,1.864-.373,2.419.407.208.292.32.64.322.998v34.693c0,.958-.777,1.735-1.735,1.735Z" fill="#ff725e" stroke-width="0"/><path d="M285.87,104.139h-55.509c-.958-.006-1.73-.788-1.724-1.746.004-.552.27-1.07.717-1.394l24.285-17.346c.289-.219.643-.335,1.006-.33h6.939c.363-.005.717.111,1.006.33l24.285,17.346c.776.562.95,1.646.388,2.422-.324.447-.842.714-1.394.717Z" fill="#000333" stroke-width="0"/><polygon points="232.905 102.129 283.561 102.129 261.537 86.793 254.93 86.793 232.905 102.129" fill="#ff725e" stroke-width="0"/><path d="M229.669,67.712c-.958.004-1.738-.769-1.742-1.727-.002-.529.237-1.03.649-1.36l3.695-3.001c.744-.604,1.836-.491,2.44.253.002.002.004.005.006.007.594.744.478,1.828-.26,2.429l-3.695,3.018c-.31.249-.696.383-1.093.382Z" fill="#ff725e" stroke-width="0"/><path d="M256.138,48.509c-.958.004-1.738-.769-1.742-1.727-.002-.529.237-1.03.649-1.36l1.977-1.613c.637-.517,1.549-.517,2.186,0l1.977,1.613c.742.608.851,1.703.243,2.446-.608.742-1.703.851-2.446.243l-.867-.711-.885.711c-.307.255-.693.396-1.093.399Z" fill="#ff725e" stroke-width="0"/><path d="M286.563,68.329c-.397.002-.783-.133-1.093-.382l-3.469-2.81c-.747-.608-.86-1.707-.252-2.455s1.707-.86,2.455-.252l3.469,2.81c.747.599.867,1.691.268,2.438-.335.417-.843.657-1.378.649Z" fill="#ff725e" stroke-width="0"/><path d="M286.3,48.607c-.177.005-.352-.032-.512-.108-.503-.207-.832-.695-.835-1.239v-4.04h-1.347c-5.206,0-9.426-4.22-9.426-9.426s4.22-9.426,9.426-9.426h8.08c5.206-.16,9.556,3.931,9.716,9.137.16,5.206-3.931,9.556-9.137,9.716l-5.009,5.009c-.256.247-.6.383-.956.377Z" fill="#ff725e" stroke-width="0"/><path d="M283.607,37.834c-2.231,0-4.04-1.809-4.04-4.04s1.809-4.04,4.04-4.04h8.08c2.231,0,4.04,1.809,4.04,4.04s-1.809,4.04-4.04,4.04h-8.08Z" fill="#000333" stroke-width="0"/><path d="M291.687,35.141h-8.08c-.744,0-1.347-.603-1.347-1.347s.603-1.347,1.347-1.347h8.08c.744,0,1.347.603,1.347,1.347s-.603,1.347-1.347,1.347Z" fill="#fff" stroke-width="0"/><path d="M237.213,73.713l17.346,11.154h6.939l17.346-10.894v-23.609h-41.632v23.348Z" fill="#fff" stroke="#000333" stroke-miterlimit="10"/><path d="M270.258,59.038h-24.285c-.958,0-1.735-.777-1.735-1.735s.777-1.735,1.735-1.735h24.285c.958,0,1.735.777,1.735,1.735s-.777,1.735-1.735,1.735Z" fill="#ff725e" stroke-width="0"/><path d="M270.258,67.712h-24.285c-.958,0-1.735-.777-1.735-1.735s.777-1.735,1.735-1.735h24.285c.958,0,1.735.777,1.735,1.735s-.777,1.735-1.735,1.735Z" fill="#ff725e" stroke-width="0"/><path d="M265.054,76.385h-13.877c-.958,0-1.735-.777-1.735-1.735s.777-1.735,1.735-1.735h13.877c.958,0,1.735.777,1.735,1.735s-.777,1.735-1.735,1.735Z" fill="#ff725e" stroke-width="0"/><path d="M110.844,138.065l-1.443-3.33-3.894.737c-.472-.711-.996-1.375-1.568-1.983l1.601-3.621-2.915-2.162-3.005,2.586c-.756-.374-1.541-.684-2.348-.928l-.424-3.941-3.605-.415-1.307,3.737c-.834.053-1.669.179-2.501.375l-2.338-3.201-3.33,1.443.737,3.894c-.711.472-1.374.996-1.983,1.568l-3.621-1.601-2.162,2.915,2.586,3.005c-.374.755-.684,1.541-.928,2.348l-3.941.424-.415,3.605,3.737,1.307c.053.834.179,1.669.375,2.501l-3.201,2.338,1.443,3.33,3.894-.737c.472.711.996,1.374,1.568,1.983l-1.601,3.62,2.915,2.162,3.005-2.586c.755.374,1.541.684,2.348.928l.424,3.941,3.605.415,1.307-3.736c.834-.053,1.669-.179,2.5-.375l2.338,3.201,3.33-1.443-.737-3.894c.711-.472,1.375-.996,1.983-1.568l3.621,1.601,2.162-2.915-2.586-3.004c.374-.756.684-1.541.928-2.348l3.941-.424.415-3.605-3.737-1.307c-.053-.834-.179-1.669-.375-2.501l3.201-2.338h.001ZM96.614,152.437c-4.734,2.052-10.234-.122-12.286-4.856-2.052-4.734.122-10.234,4.856-12.286,4.734-2.052,10.235.122,12.286,4.856,2.052,4.734-.122,10.234-4.856,12.286h0Z" fill="#000333" stroke-width="0"/><rect x="88.475" y="140.51" width="52.203" height="57.855" rx="3.75" ry="3.75" fill="#ff725e" stroke-width="0"/><rect x="93.192" y="143.918" width="42.768" height="50.374" fill="#feffff" stroke-width="0"/><path d="M106.275,166.761l4.436,3.591,11.001-13.722c.335-.418.936-.504,1.375-.199l1.197.833c.482.336.581,1.008.216,1.468l-12.792,16.109-7.302-5.729c-.443-.348-.52-.989-.171-1.431l.599-.759c.351-.445.998-.517,1.439-.16Z" fill="#000333" stroke-width="0"/><rect x="98.616" y="136.853" width="31.92" height="8.146" rx=".854" ry=".854" fill="#ff725e" stroke-width="0"/></svg>