<?xml version="1.0" encoding="UTF-8"?><svg id="a" xmlns="http://www.w3.org/2000/svg" width="500" height="400" xmlns:xlink="http://www.w3.org/1999/xlink" viewBox="0 0 500 400"><defs><radialGradient id="b" cx="-187.281" cy="111.799" fx="-187.281" fy="111.799" r="216.651" gradientTransform="translate(454.285 98.178) scale(1.116 .889)" gradientUnits="userSpaceOnUse"><stop offset="0" stop-color="#c7e5ea"/><stop offset=".375" stop-color="rgba(199,229,234,.992)" stop-opacity=".992"/><stop offset=".51" stop-color="rgba(201,229,234,.963)" stop-opacity=".963"/><stop offset=".606" stop-color="rgba(203,231,235,.912)" stop-opacity=".912"/><stop offset=".684" stop-color="rgba(207,233,237,.84)" stop-opacity=".84"/><stop offset=".751" stop-color="rgba(213,235,239,.746)" stop-opacity=".746"/><stop offset=".81" stop-color="rgba(219,238,241,.63)" stop-opacity=".63"/><stop offset=".864" stop-color="rgba(227,242,244,.491)" stop-opacity=".491"/><stop offset=".913" stop-color="rgba(236,246,248,.33)" stop-opacity=".33"/><stop offset=".957" stop-color="rgba(246,250,251,.154)" stop-opacity=".154"/><stop offset=".989" stop-color="#fff" stop-opacity="0"/></radialGradient><linearGradient id="d" x1="159.038" y1="199.606" x2="301.508" y2="199.606" gradientUnits="userSpaceOnUse"><stop offset="0" stop-color="#0788a5"/><stop offset=".407" stop-color="rgba(7,136,165,.989)" stop-opacity=".989"/><stop offset=".553" stop-color="rgba(7,136,165,.948)" stop-opacity=".948"/><stop offset=".658" stop-color="rgba(7,136,165,.876)" stop-opacity=".876"/><stop offset=".742" stop-color="rgba(7,136,165,.773)" stop-opacity=".773"/><stop offset=".814" stop-color="rgba(7,136,165,.64)" stop-opacity=".64"/><stop offset=".878" stop-color="rgba(7,136,165,.475)" stop-opacity=".475"/><stop offset=".936" stop-color="rgba(7,136,165,.279)" stop-opacity=".279"/><stop offset=".988" stop-color="rgba(7,136,165,.059)" stop-opacity=".059"/><stop offset="1" stop-color="#0788a5" stop-opacity="0"/></linearGradient><linearGradient id="e" x1="256.88" y1="130.074" x2="331.249" y2="130.074" gradientUnits="userSpaceOnUse"><stop offset="0" stop-color="#0788a5" stop-opacity="0"/><stop offset=".012" stop-color="rgba(7,136,165,.059)" stop-opacity=".059"/><stop offset=".064" stop-color="rgba(7,136,165,.279)" stop-opacity=".279"/><stop offset=".122" stop-color="rgba(7,136,165,.475)" stop-opacity=".475"/><stop offset=".186" stop-color="rgba(7,136,165,.64)" stop-opacity=".64"/><stop offset=".258" stop-color="rgba(7,136,165,.773)" stop-opacity=".773"/><stop offset=".342" stop-color="rgba(7,136,165,.876)" stop-opacity=".876"/><stop offset=".447" stop-color="rgba(7,136,165,.948)" stop-opacity=".948"/><stop offset=".593" stop-color="rgba(7,136,165,.989)" stop-opacity=".989"/><stop offset="1" stop-color="#0788a5"/></linearGradient><linearGradient id="f" x1="353.468" y1="129.979" x2="376.535" y2="129.979" xlink:href="#e"/><linearGradient id="g" x1="400.744" y1="147.629" x2="423.811" y2="147.629" xlink:href="#e"/><linearGradient id="h" x1="412.899" y1="135.586" x2="442.172" y2="135.586" xlink:href="#e"/><linearGradient id="i" x1="383.531" y1="161.736" x2="401.524" y2="161.736" xlink:href="#e"/><linearGradient id="j" x1="327.718" y1="143.386" x2="382.9" y2="143.386" xlink:href="#e"/><linearGradient id="k" x1="338.233" y1="176.953" x2="393.416" y2="176.953" xlink:href="#e"/></defs><ellipse cx="250" cy="200" rx="239.5" ry="195.5" fill="url(#b)" stroke-width="0"/><path d="M174.057,148.353H55.442v-81.149h118.615v81.149ZM56.379,147.416h116.741v-79.276H56.379v79.276Z" fill="#ececec" stroke-width="0"/><path d="M64.717,72.432c0,1.304-1.057,2.361-2.361,2.361s-2.361-1.057-2.361-2.361,1.057-2.361,2.361-2.361,2.361,1.057,2.361,2.361Z" fill="#a8a8a8" stroke-width="0"/><path d="M74.357,72.432c0,1.304-1.057,2.361-2.361,2.361s-2.361-1.057-2.361-2.361,1.057-2.361,2.361-2.361,2.361,1.057,2.361,2.361Z" fill="#ececec" stroke-width="0"/><path d="M83.997,72.432c0,1.304-1.057,2.361-2.361,2.361s-2.361-1.057-2.361-2.361,1.057-2.361,2.361-2.361,2.361,1.057,2.361,2.361Z" fill="#ececec" stroke-width="0"/><rect x="55.911" y="76.588" width="117.678" height=".937" fill="#ececec" stroke-width="0"/><path d="M15.784,82.578c.653.377,1.013,1.094.974,1.847-.01.204-.016.41-.016.616,0,.209.005.416.016.621.038.751-.32,1.465-.971,1.841l-2.226,1.284,4.183,7.249,2.225-1.283c.653-.376,1.456-.339,2.087.073.347.227.707.436,1.079.625.669.341,1.099,1.017,1.099,1.768v2.563h8.372v-2.563c0-.751.43-1.427,1.099-1.768.371-.189.732-.398,1.079-.625.631-.413,1.434-.45,2.087-.073l2.225,1.283,4.183-7.249-2.235-1.291c-.65-.376-1.007-1.089-.969-1.839.01-.204.016-.41.016-.616s-.005-.412-.016-.616c-.039-.753.321-1.47.974-1.846l2.229-1.283-4.183-7.249-2.219,1.282c-.652.377-1.455.341-2.086-.071-.349-.228-.711-.437-1.084-.626-.67-.34-1.101-1.017-1.101-1.768v-2.562h-8.372v2.562c0,.751-.431,1.428-1.101,1.768-.373.19-.735.399-1.084.626-.631.412-1.434.448-2.086.071l-2.218-1.282-4.183,7.249,2.222,1.282ZM28.416,78.182c3.786,0,6.859,3.073,6.859,6.859s-3.073,6.852-6.859,6.852-6.853-3.066-6.853-6.852,3.067-6.859,6.853-6.859Z" fill="#ececec" stroke-width="0"/><rect x="31.519" y="145.728" width="65.439" height="29.399" fill="#d9d8e3" stroke-width="0"/><path d="M50.987,161.732h-2.717v4.795c0,.663-.552,1.216-1.237,1.216-.665,0-1.217-.552-1.217-1.216v-13.039c0-.685.553-1.215,1.217-1.215h3.954c2.63,0,4.754,2.122,4.754,4.751,0,2.586-2.124,4.708-4.754,4.708ZM48.27,159.279h2.717c1.283,0,2.276-1.017,2.299-2.255-.023-1.281-1.016-2.298-2.299-2.298h-2.717v4.553Z" fill="#fff" stroke-width="0"/><path d="M58.702,166.527v-13.039c0-.685.529-1.215,1.214-1.215s1.237.53,1.237,1.215v5.304h5.724v-5.304c0-.685.532-1.215,1.217-1.215s1.237.53,1.237,1.215v13.039c0,.686-.552,1.216-1.237,1.216s-1.217-.53-1.217-1.216v-5.304h-5.724v5.304c0,.686-.552,1.216-1.237,1.216s-1.214-.53-1.214-1.216Z" fill="#fff" stroke-width="0"/><path d="M79.542,161.732h-2.719v4.795c0,.663-.553,1.216-1.238,1.216-.662,0-1.214-.552-1.214-1.216v-13.039c0-.685.553-1.215,1.214-1.215h3.957c2.63,0,4.751,2.122,4.751,4.751,0,2.586-2.121,4.708-4.751,4.708ZM76.823,159.279h2.719c1.28,0,2.276-1.017,2.299-2.255-.023-1.281-1.019-2.298-2.299-2.298h-2.719v4.553Z" fill="#fff" stroke-width="0"/><rect x="152.142" y="58.175" width="55.844" height="20.675" fill="#d9d8e3" stroke-width="0"/><path d="M160.2,73.479v-9.17c0-.482.374-.855.855-.855s.87.373.87.855v3.73h4.025v-3.73c0-.482.374-.855.855-.855s.87.373.87.855v9.17c0,.482-.389.855-.87.855s-.855-.373-.855-.855v-3.73h-4.025v3.73c0,.482-.389.855-.87.855s-.855-.373-.855-.855Z" fill="#fff" stroke-width="0"/><path d="M177.871,65.181h-2.471v8.299c0,.482-.373.855-.855.855-.467,0-.854-.373-.854-.855v-8.299h-2.456c-.482,0-.855-.404-.855-.871,0-.482.373-.855.855-.855h6.636c.467,0,.855.373.855.855,0,.466-.389.871-.855.871Z" fill="#fff" stroke-width="0"/><path d="M190.647,64.31v9.17c0,.467-.405.855-.87.855-.483,0-.855-.389-.855-.855v-6.543l-2.238,3.109c-.171.233-.42.357-.699.357h-.031c-.279,0-.543-.124-.714-.357l-2.223-3.109v6.543c0,.467-.389.855-.87.855-.467,0-.855-.389-.855-.855v-9.17c0-.466.388-.855.855-.855h.046c.249,0,.528.124.684.357l3.093,4.29,3.092-4.29c.171-.233.42-.357.699-.357h.016c.465.016.87.389.87.855Z" fill="#fff" stroke-width="0"/><path d="M194.408,73.479v-9.17c0-.466.373-.855.855-.855s.87.389.87.855v8.299h4.213c.45,0,.854.389.854.87,0,.467-.404.855-.854.855h-5.083c-.482,0-.855-.389-.855-.855Z" fill="#fff" stroke-width="0"/><g id="c"><path d="M404,347.678c0,.081-69.734.151-155.734.151s-155.749-.07-155.749-.151,69.718-.151,155.787-.151,155.696.07,155.696.151Z" fill="#263238" stroke-width="0"/></g><polyline points="106.916 310.707 106.916 110.45 403.207 110.45 403.207 310.707" fill="none" stroke="#000" stroke-miterlimit="10" stroke-width=".75"/><rect x="107.373" y="110.907" width="296.271" height="26.518" fill="none" stroke="#000" stroke-miterlimit="10" stroke-width=".5"/><rect x="122.461" y="155.257" width="273.41" height="21.946" fill="#fff" isolation="isolate" opacity=".9" stroke-width="0"/><rect x="122.461" y="246.698" width="70.41" height="64.009" fill="#fff" isolation="isolate" opacity=".9" stroke-width="0"/><rect x="211.159" y="246.698" width="70.41" height="64.009" fill="#fff" isolation="isolate" opacity=".9" stroke-width="0"/><rect x="299.858" y="246.698" width="70.41" height="64.009" fill="#fff" isolation="isolate" opacity=".9" stroke-width="0"/><rect x="159.038" y="190.919" width="171.453" height="17.374" rx="7.836" ry="7.836" fill="none" stroke="#000" stroke-miterlimit="10" stroke-width=".5"/><rect x="159.038" y="190.919" width="142.47" height="17.374" rx="7.836" ry="7.836" fill="url(#d)" stroke-width="0"/><path d="M166.979,197.457h1.184v4.224h2.073v.99h-3.257v-5.214Z" fill="#fff" stroke-width="0"/><path d="M174.557,200.737c0,1.385-.982,2.019-1.996,2.019-1.105,0-1.957-.727-1.957-1.949s.805-2.004,2.02-2.004c1.16,0,1.934.797,1.934,1.935ZM171.818,200.775c0,.65.271,1.138.773,1.138.457,0,.751-.456.751-1.138,0-.564-.217-1.137-.751-1.137-.564,0-.773.58-.773,1.137Z" fill="#fff" stroke-width="0"/><path d="M177.432,202.671l-.07-.379h-.023c-.247.302-.634.464-1.082.464-.767,0-1.223-.557-1.223-1.16,0-.982.882-1.454,2.221-1.446v-.055c0-.201-.109-.487-.689-.487-.387,0-.797.132-1.044.286l-.217-.758c.263-.147.781-.333,1.47-.333,1.262,0,1.664.743,1.664,1.633v1.315c0,.363.015.711.054.92h-1.06ZM177.292,200.884c-.619-.008-1.099.14-1.099.596,0,.302.201.449.465.449.293,0,.533-.193.61-.434.016-.062.023-.132.023-.201v-.41Z" fill="#fff" stroke-width="0"/><path d="M183.029,197.179v4.363c0,.425.016.874.031,1.129h-1.045l-.054-.557h-.016c-.239.426-.696.642-1.184.642-.897,0-1.616-.766-1.616-1.941-.008-1.276.789-2.012,1.693-2.012.465,0,.828.163.998.426h.016v-2.05h1.176ZM181.854,200.489c0-.062-.008-.146-.016-.209-.069-.316-.324-.58-.688-.58-.534,0-.812.479-.812,1.075,0,.643.316,1.045.805,1.045.34,0,.61-.232.68-.564.023-.086.031-.171.031-.271v-.495Z" fill="#fff" stroke-width="0"/><path d="M185.184,197.836c0,.325-.247.588-.634.588-.372,0-.619-.263-.611-.588-.008-.34.239-.596.619-.596s.618.256.626.596ZM183.969,202.671v-3.783h1.177v3.783h-1.177Z" fill="#fff" stroke-width="0"/><path d="M186.088,200.095c0-.472-.016-.874-.031-1.207h1.021l.054.519h.023c.155-.239.542-.604,1.168-.604.774,0,1.354.511,1.354,1.625v2.243h-1.176v-2.097c0-.487-.171-.819-.596-.819-.326,0-.52.224-.596.44-.031.07-.047.186-.047.294v2.182h-1.176v-2.576Z" fill="#fff" stroke-width="0"/><path d="M194.23,198.888c-.016.24-.031.558-.031,1.122v2.112c0,.727-.146,1.322-.572,1.702-.418.355-.982.464-1.539.464-.496,0-1.021-.101-1.362-.294l.232-.89c.239.139.657.286,1.099.286.557,0,.982-.302.982-.998v-.247h-.016c-.225.316-.588.495-1.021.495-.936,0-1.602-.759-1.602-1.85,0-1.214.789-1.988,1.718-1.988.519,0,.843.225,1.036.534h.016l.039-.449h1.021ZM193.023,200.428c0-.077-.008-.155-.023-.217-.085-.31-.309-.519-.635-.519-.425,0-.773.387-.773,1.075,0,.565.279,1.006.773,1.006.303,0,.542-.201.619-.479.031-.085.039-.209.039-.31v-.557Z" fill="#fff" stroke-width="0"/><path d="M194.924,202.045c0-.418.285-.72.695-.72s.689.294.689.72c0,.409-.279.711-.697.711-.402,0-.688-.302-.688-.711Z" fill="#fff" stroke-width="0"/><path d="M196.934,202.045c0-.418.285-.72.695-.72s.689.294.689.72c0,.409-.279.711-.697.711-.402,0-.688-.302-.688-.711Z" fill="#fff" stroke-width="0"/><path d="M198.943,202.045c0-.418.285-.72.695-.72s.689.294.689.72c0,.409-.279.711-.697.711-.402,0-.688-.302-.688-.711Z" fill="#fff" stroke-width="0"/><circle cx="403.461" cy="107.957" r="75.562" fill="#263238" stroke-width="0"/><circle cx="403.461" cy="107.957" r="70.698" fill="#fff" stroke-width="0"/><path d="M453.494,47.104l.652-.613c3.721,3.262,7.252,6.698,10.579,10.296l-.715.553c-3.306-3.578-6.816-6.994-10.516-10.236Z" fill="#263238" stroke-width="0"/><path d="M446.947,41.661l.61-.65c1.248.981,2.499,1.995,3.713,3.006l-.641.628c-1.205-1.012-2.445-2.01-3.683-2.984Z" fill="#263238" stroke-width="0"/><path d="M403.087,39.594c-36.366,3.134-65.504,20.833-69.183,76.913l137.923-10.092c-1.068-32.723-32.374-69.946-68.74-66.821Z" fill="#0788a5" stroke-width="0"/><path d="M333.472,116.391l67.181-4.881-49.925-47.537c-12.052,14.781-16.914,33.121-17.256,52.419Z" fill="#fff" isolation="isolate" opacity=".7" stroke-width="0"/><path d="M388.657,41.254c-20.366,4.008-29.94,12.101-38.74,22.269l48.709,44.927-5.899-67.184-4.071-.013Z" fill="#fff" isolation="isolate" opacity=".4" stroke-width="0"/><path d="M392.728,41.266l5.899,67.184,46.978-53.791c-17.253-15.318-31.494-17.397-52.877-13.393Z" fill="#fff" isolation="isolate" opacity=".2" stroke-width="0"/><path d="M258.216,131.738l-.135-.003c-.696-.023-1.233-.662-1.2-1.427.006-.131.028-.261.067-.386.293-1.041,1.16-1.768,2.146-1.801l70.815.279c.705-.051,1.304.535,1.338,1.309.008.171-.013.343-.062.507-.296,1.045-1.165,1.774-2.156,1.809" fill="url(#e)" stroke-width="0"/><path d="M353.883,130.495h-.042c-.216-.008-.382-.206-.372-.444.002-.041.009-.081.021-.12.091-.323.36-.548.666-.559l21.964.086c.219-.016.404.166.415.406.002.053-.004.106-.019.157-.092.324-.361.55-.669.561" fill="url(#f)" stroke-width="0"/><path d="M401.159,148.145h-.042c-.216-.008-.382-.206-.372-.444.002-.041.009-.081.021-.12.091-.323.36-.548.666-.559l21.964.086c.219-.016.404.166.415.406.002.053-.004.106-.019.157-.092.324-.361.55-.669.561" fill="url(#g)" stroke-width="0"/><path d="M413.424,136.241h-.053c-.274-.01-.485-.262-.472-.563.002-.052.011-.103.026-.152.116-.41.457-.696.845-.709l27.874.11c.277-.02.513.21.527.515.003.067-.005.135-.024.2-.117.411-.459.698-.849.712" fill="url(#h)" stroke-width="0"/><path d="M383.855,162.139h-.033c-.168-.006-.298-.161-.29-.346.001-.032.007-.063.016-.093.071-.252.281-.428.519-.436l17.133.067c.171-.012.315.129.324.317.002.041-.003.083-.015.123-.072.253-.282.429-.522.438" fill="url(#i)" stroke-width="0"/><path d="M328.709,144.621l-.1-.002c-.516-.017-.915-.491-.89-1.059.004-.097.021-.194.05-.286.218-.773.861-1.312,1.593-1.336l52.545.207c.523-.038.968.397.993.971.006.127-.01.255-.046.376-.22.775-.865,1.316-1.6,1.342" fill="url(#j)" stroke-width="0"/><path d="M339.225,178.187l-.1-.002c-.516-.017-.915-.491-.89-1.059.004-.097.021-.194.05-.286.218-.773.861-1.312,1.593-1.336l52.545.207c.523-.038.968.397.993.971.006.127-.01.255-.046.376-.22.775-.865,1.316-1.6,1.342" fill="url(#k)" stroke-width="0"/><circle cx="401.135" cy="104.444" r="26.293" fill="#fff" stroke-width="0"/><circle cx="404.648" cy="102.117" r="13.439" fill="#263238" stroke-width="0"/><path d="M452.032,65.905c-15.683,6.466-30.561,15.091-44.28,25.669l6.152,12.228c14.029-10.922,26.828-23.644,38.128-37.897Z" fill="#263238" stroke-width="0"/><path d="M321.018,282.159h-3.199c-.252.012-.449.223-.445.475v10.622c-.004.253.193.463.445.475h3.199c.254-.004.457-.213.453-.467,0-.003,0-.005,0-.008v-10.561c.042-.251-.128-.488-.379-.529-.024-.004-.049-.006-.074-.006Z" fill="#0788a5" stroke-width="0"/><path d="M350.794,284.482c-.664-.905-1.841-.521-2.188-.377l-8.623,4.217c-.027.615-.299,1.193-.754,1.607-.437.393-1.012.597-1.599.566h-4.881c-.167,0-.302-.135-.302-.302h0c-.004-.162.124-.298.286-.302.005,0,.01,0,.015,0h4.828c.458.04.912-.107,1.26-.407.334-.32.529-.759.543-1.222v-.106h0c-.007-.099-.019-.197-.038-.294-.171-.783-.858-1.345-1.66-1.358l-6.035-.143c-.593-.013-1.177-.152-1.712-.407l-5.122-2.505c-.482-.233-1.011-.355-1.546-.355h-1.003v9.648h.852c.468-.003.934.079,1.373.241l8.743,3.206c1.241.455,2.626.283,3.719-.46l13.277-9.053c.905-.671,1.071-1.32.566-2.195Z" fill="#0788a5" stroke-width="0"/><path d="M333.193,282.052c1.088.33,2.22.491,3.357.475h2.029c1.137.013,2.269-.147,3.357-.475,2.384-.754,3.87-2.112,4.526-4.157,2.029-6.035-3.432-12.266-6.639-14.725h-1.147v.083c.097.216.208.425.332.626.245.363.54.691.875.973.407.37.792.754.754,1.26-.015.137-.137.236-.274.221-.056-.006-.108-.031-.149-.07-.045-.049-.07-.114-.068-.181,0-.287-.211-.505-.619-.868-.368-.311-.689-.674-.951-1.079-.183-.295-.339-.606-.468-.928v-.038h-1.358c-.261.223-.403.555-.385.898.09.709-.353,1.377-1.041,1.569h-.083c-.103,0-.196-.062-.234-.158-.051-.123.008-.264.131-.315.001,0,.003-.001.004-.002.51-.099.846-.59.754-1.101-.008-.289.06-.575.196-.83l.045-.091h-.905c-3.176,2.444-8.63,8.683-6.608,14.71.679,2.09,2.173,3.44,4.564,4.202Z" fill="#0788a5" stroke-width="0"/><path d="M337.581,268.308c2.712,0,4.911,2.199,4.911,4.911,0,2.712-2.199,4.911-4.911,4.911-2.712,0-4.911-2.199-4.911-4.911,0-.003,0-.005,0-.008-.004-2.704,2.184-4.899,4.888-4.903.008,0,.015,0,.023,0Z" fill="#0788a5" stroke-width="0"/><path d="M325.469,281.012h-.091c-.237.011-.42.213-.409.45.009.187.138.347.318.395l1.29.287h.091c.087.003.172-.024.241-.075.098-.066.163-.17.181-.287l.189-1.305c.029-.24-.141-.458-.381-.488-.011-.001-.023-.002-.034-.003-.214-.006-.399.15-.43.362v.166c-2.053-3.932-1.65-8.697,1.033-12.228.072-.089.102-.204.083-.317-.012-.111-.07-.212-.158-.279-.075-.06-.168-.092-.264-.091-.133-.001-.259.06-.339.166-2.929,3.848-3.33,9.056-1.026,13.307l-.294-.06Z" fill="#0788a5" stroke-width="0"/><path d="M348.018,282.091c.133.005.26-.051.347-.151,2.93-3.85,3.332-9.061,1.026-13.315l.272.06h.098c.233.002.424-.186.425-.42,0-.084-.024-.167-.071-.237-.059-.096-.154-.164-.264-.189l-1.26-.287h-.091c-.087-.003-.172.024-.241.075-.098.066-.163.17-.181.287l-.241,1.298c-.036.235.125.454.36.49,0,0,.001,0,.002,0h.06c.213-.002.393-.159.422-.37v-.158c2.049,3.935,1.64,8.7-1.049,12.228-.068.091-.098.204-.083.317.015.112.075.212.166.279.084.069.193.102.302.091Z" fill="#0788a5" stroke-width="0"/><path d="M335.333,262.505v.068h4.375v-.038c.363-.94.826-1.837,1.381-2.678l.091-.136-1.245.347c-.101.037-.209.055-.317.053-.247-.006-.488-.082-.694-.219-.367-.234-.795-.354-1.23-.347-.486.016-.96.159-1.373.415-.234.116-.493.176-.754.174-.227,0-.453-.03-.671-.091l-.913-.256.106.143c.583.762,1.007,1.635,1.245,2.565Z" fill="#0788a5" stroke-width="0"/><path d="M336.521,274.63c.026.028.056.051.091.068l.143.06.189.053h.166l-.053.521h0c.011.027.033.049.06.06h.317l.06-.075h0l.053-.483c.163.003.326-.017.483-.06.131-.044.254-.11.362-.196.098-.081.176-.185.226-.302.106-.24.106-.514,0-.754-.048-.1-.114-.189-.196-.264-.078-.072-.167-.131-.264-.174-.091-.038-.189-.083-.287-.113l-.324-.083c-.082-.028-.161-.066-.234-.113-.063-.038-.117-.09-.158-.151-.041-.063-.062-.136-.06-.211-.011-.05-.011-.101,0-.151.018-.048.05-.09.091-.121.049-.037.106-.063.166-.075.088-.013.177-.013.264,0,.083-.012.166-.012.249,0l.204.068.143.06c.033.026.072.041.113.045h.053c.005-.02.005-.041,0-.06v-.438c-.029-.025-.062-.045-.098-.06-.043-.023-.088-.041-.136-.053l-.151-.045h-.106l.045-.49c-.008-.027-.027-.049-.053-.06h-.324l-.068.106-.038.445c-.127.009-.251.037-.37.083-.115.04-.221.104-.309.189-.082.074-.144.167-.181.272-.045.105-.066.218-.06.332-.004.127.019.253.068.37.048.098.112.187.189.264.08.069.169.127.264.174l.294.121.279.098c.082.033.16.073.234.121.065.038.122.089.166.151.035.062.053.132.053.204.006.13-.054.254-.158.332-.146.092-.318.134-.49.121-.108.013-.217.013-.324,0-.078-.019-.154-.047-.226-.083-.053-.019-.104-.044-.151-.075-.038-.024-.083-.037-.128-.038h-.075l-.053.06v.174c-.005.043-.005.086,0,.128.013.022.031.04.053.053Z" fill="#fff" stroke-width="0"/><path d="M337.569,278.13c2.712,0,4.911-2.199,4.911-4.911,0-2.712-2.199-4.911-4.911-4.911s-4.911,2.199-4.911,4.911,2.199,4.911,4.911,4.911h0ZM337.569,269.392c2.104.015,3.798,1.732,3.784,3.836-.014,2.104-1.732,3.798-3.836,3.784-2.087-.014-3.774-1.705-3.784-3.792.005-2.109,1.718-3.815,3.827-3.81.003,0,.006,0,.009,0v-.017Z" fill="#fff" stroke-width="0"/><polygon points="226.508 266.535 226.508 290.53 229.877 290.53 229.877 296.351 235.697 290.53 265 290.53 265 266.535 226.508 266.535" fill="#0788a5" stroke-width="0"/><path d="M240.231,282.376c.393.407.393,1.017,0,1.409-.203.188-.437.281-.688.281-.266,0-.517-.094-.72-.281l-4.399-4.462c-.048-.015-.063-.047-.079-.094-.015-.016-.048-.032-.048-.032-.031-.047-.031-.079-.046-.125-.033-.015-.048-.047-.048-.062-.016-.031-.016-.078-.031-.094,0-.047-.033-.062-.033-.078v-.109c0-.032-.015-.047-.015-.094,0-.016.015-.064.015-.079v-.109c0-.032.033-.047.033-.063.015-.047.015-.078.031-.126,0-.015.015-.015.015-.031.033-.047.048-.11.079-.141,0,0,0-.031.033-.031.015-.032.046-.079.094-.109l4.399-4.462c.391-.377,1.033-.377,1.408,0,.393.391.393,1.017,0,1.409l-3.709,3.742,3.709,3.742Z" fill="#fff" stroke-width="0"/><path d="M243.452,282.877l3.836-9.128c.188-.438.688-.642,1.142-.453.423.171.627.689.439,1.111l-3.836,9.143c-.142.329-.469.516-.799.516-.094,0-.218-.015-.312-.062-.454-.173-.657-.689-.469-1.128Z" fill="#fff" stroke-width="0"/><path d="M257.211,279.197s0,.015-.016.015c-.033.032-.063.079-.111.11l-4.399,4.462c-.188.188-.454.281-.705.281-.266,0-.5-.094-.703-.281-.393-.392-.393-1.002,0-1.409l3.709-3.742-3.709-3.742c-.393-.392-.393-1.018,0-1.409.375-.377,1.017-.377,1.408,0l4.399,4.462c.048.031.079.077.111.109.016,0,.016.031.016.031.03.062.061.094.079.141,0,.015.015.015.015.031.016.048.016.079.046.142,0,.015.015.015.015.047v.109c0,.015.017.062.017.079,0,.015-.017.062-.017.078v.126c0,.016-.015.016-.015.032-.031.062-.031.109-.046.141,0,.016-.015.016-.015.047-.018.032-.048.079-.079.141Z" fill="#fff" stroke-width="0"/><path d="M183.415,273.177c-.514-3.86-4.063-6.572-7.923-6.058-3.86.514-6.572,4.063-6.058,7.923.517,3.86,4.063,6.572,7.926,6.058,3.857-.514,6.57-4.063,6.055-7.923ZM172.749,274.599c-.27-2.033,1.155-3.896,3.189-4.165,2.028-.272,3.89,1.153,4.162,3.186.27,2.028-1.155,3.896-3.183,4.165-2.033.272-3.896-1.155-4.168-3.186Z" fill="#0788a5" stroke-width="0"/><polygon points="176.875 267.23 174.187 267.589 174.082 265.667 176.472 265.348 176.875 267.23" fill="#0788a5" stroke-width="0"/><polygon points="171.88 268.818 170.233 270.972 168.799 269.688 170.264 267.772 171.88 268.818" fill="#0788a5" stroke-width="0"/><polygon points="169.471 273.473 169.83 276.161 167.907 276.266 167.588 273.876 169.471 273.473" fill="#0788a5" stroke-width="0"/><polygon points="171.059 278.468 173.213 280.115 171.928 281.548 170.012 280.084 171.059 278.468" fill="#0788a5" stroke-width="0"/><polygon points="175.714 280.877 178.401 280.518 178.507 282.441 176.116 282.759 175.714 280.877" fill="#0788a5" stroke-width="0"/><polygon points="180.708 279.289 182.355 277.135 183.789 278.42 182.324 280.336 180.708 279.289" fill="#0788a5" stroke-width="0"/><polygon points="183.117 274.634 182.759 271.946 184.681 271.841 185 274.232 183.117 274.634" fill="#0788a5" stroke-width="0"/><polygon points="181.529 269.639 179.375 267.992 180.66 266.559 182.576 268.024 181.529 269.639" fill="#0788a5" stroke-width="0"/><path d="M160.268,280.652c-.018-3.238-2.652-5.845-5.886-5.826-3.238.018-5.848,2.651-5.83,5.892.018,3.235,2.655,5.845,5.893,5.827,3.235-.018,5.842-2.658,5.824-5.893ZM154.443,285.83c-2.845.015-5.159-2.275-5.175-5.116-.015-2.845,2.275-5.159,5.116-5.175,2.842-.016,5.156,2.275,5.171,5.119.016,2.842-2.275,5.156-5.113,5.172ZM160.268,280.652c-.018-3.238-2.652-5.845-5.886-5.826-3.238.018-5.848,2.651-5.83,5.892.018,3.235,2.655,5.845,5.893,5.827,3.235-.018,5.842-2.658,5.824-5.893ZM154.443,285.83c-2.845.015-5.159-2.275-5.175-5.116-.015-2.845,2.275-5.159,5.116-5.175,2.842-.016,5.156,2.275,5.171,5.119.016,2.842-2.275,5.156-5.113,5.172ZM160.268,280.652c-.018-3.238-2.652-5.845-5.886-5.826-3.238.018-5.848,2.651-5.83,5.892.018,3.235,2.655,5.845,5.893,5.827,3.235-.018,5.842-2.658,5.824-5.893ZM154.443,285.83c-2.845.015-5.159-2.275-5.175-5.116-.015-2.845,2.275-5.159,5.116-5.175,2.842-.016,5.156,2.275,5.171,5.119.016,2.842-2.275,5.156-5.113,5.172ZM166.759,280.618c-.036-6.82-5.598-12.32-12.415-12.283-6.823.036-12.32,5.598-12.283,12.418.04,6.817,5.595,12.32,12.421,12.284,6.817-.037,12.317-5.602,12.277-12.418ZM154.451,287.455c-3.732.021-6.788-2.997-6.808-6.733-.02-3.735,3.001-6.787,6.733-6.808,3.732-.021,6.784,3,6.805,6.736.021,3.732-3,6.784-6.73,6.805ZM154.382,274.826c-3.238.018-5.848,2.651-5.83,5.892.018,3.235,2.655,5.845,5.893,5.827,3.235-.018,5.842-2.658,5.824-5.893-.018-3.238-2.652-5.845-5.886-5.826ZM154.443,285.83c-2.845.015-5.159-2.275-5.175-5.116-.015-2.845,2.275-5.159,5.116-5.175,2.842-.016,5.156,2.275,5.171,5.119.016,2.842-2.275,5.156-5.113,5.172ZM160.268,280.652c-.018-3.238-2.652-5.845-5.886-5.826-3.238.018-5.848,2.651-5.83,5.892.018,3.235,2.655,5.845,5.893,5.827,3.235-.018,5.842-2.658,5.824-5.893ZM154.443,285.83c-2.845.015-5.159-2.275-5.175-5.116-.015-2.845,2.275-5.159,5.116-5.175,2.842-.016,5.156,2.275,5.171,5.119.016,2.842-2.275,5.156-5.113,5.172ZM160.268,280.652c-.018-3.238-2.652-5.845-5.886-5.826-3.238.018-5.848,2.651-5.83,5.892.018,3.235,2.655,5.845,5.893,5.827,3.235-.018,5.842-2.658,5.824-5.893ZM154.443,285.83c-2.845.015-5.159-2.275-5.175-5.116-.015-2.845,2.275-5.159,5.116-5.175,2.842-.016,5.156,2.275,5.171,5.119.016,2.842-2.275,5.156-5.113,5.172ZM156.423,277.226h-4.022l-2.011,3.483,2.011,3.483h4.022l2.011-3.483-2.011-3.483Z" fill="#0788a5" stroke-width="0"/><polygon points="156.721 268.835 151.972 268.861 152.216 265.498 156.44 265.475 156.721 268.835" fill="#0788a5" stroke-width="0"/><polygon points="147.691 270.484 144.351 273.86 142.146 271.31 145.116 268.307 147.691 270.484" fill="#0788a5" stroke-width="0"/><polygon points="142.472 278.035 142.498 282.784 139.135 282.54 139.112 278.316 142.472 278.035" fill="#0788a5" stroke-width="0"/><polygon points="144.121 287.065 147.498 290.405 144.947 292.61 141.944 289.64 144.121 287.065" fill="#0788a5" stroke-width="0"/><polygon points="151.673 292.284 156.421 292.258 156.177 295.621 151.954 295.644 151.673 292.284" fill="#0788a5" stroke-width="0"/><polygon points="160.703 290.635 164.042 287.258 166.247 289.809 163.277 292.812 160.703 290.635" fill="#0788a5" stroke-width="0"/><polygon points="165.921 283.083 165.895 278.335 169.258 278.579 169.281 282.802 165.921 283.083" fill="#0788a5" stroke-width="0"/><polygon points="164.272 274.054 160.896 270.714 163.446 268.509 166.449 271.479 164.272 274.054" fill="#0788a5" stroke-width="0"/><path d="M231.462,371.604c-1.37.59-38.729,1.633-40.316.706-.173-.104-.582-8.206-1.26-13.072-.034-.232-14.271-15.238-14.271-15.238l20.164-9.415,18.053,22.154s14.23,7.634,15.875,8.849c1.633,1.221,3.126,5.425,1.755,6.016Z" fill="#ff9581" stroke-width="0"/><path d="M185.861,355.145s3.558,3.595,3.566,3.661c.698,4.729,1.111,12.601,1.289,12.703,1.644.898,40.309-.155,41.725-.734,1.42-.574-.118-4.656-1.81-5.844-1.701-1.176-16.417-8.581-16.417-8.581l-4.348-5.01-24.005,3.806Z" fill="#ececec" stroke-width="0"/><path d="M231.857,370.62c-1.327.481-39.998,1.633-41.475.74-.567-.33-1.083-11.578-1.086-11.648l24.79-2.328v.419s14.798,6.22,16.32,7.374c1.509,1.149,2.778,4.968,1.451,5.443Z" fill="#0788a5" stroke-width="0"/><path d="M218.061,358.337c-3.492-.57-7.732.06-10.333,2.598-.101.098.04.24.152.202,3.406-1.159,6.594-1.926,10.177-2.361.252-.031.254-.399.004-.439Z" fill="#000333" stroke-width="0"/><path d="M220.606,359.793c-3.492-.57-7.733.06-10.333,2.598-.101.098.041.24.152.202,3.406-1.159,6.594-1.926,10.177-2.361.253-.03.254-.398.004-.439Z" fill="#000333" stroke-width="0"/><path d="M223.15,361.248c-3.492-.57-7.733.06-10.333,2.598-.101.098.04.24.152.202,3.406-1.159,6.594-1.926,10.177-2.36.252-.031.254-.399.004-.44Z" fill="#000333" stroke-width="0"/><path d="M232.41,369.234c.691.249.595,2.552.105,2.748-.49.196-42.225.958-42.938.815-.713-.143-.51-2.694.311-2.843s42.522-.72,42.522-.72Z" fill="#000333" stroke-width="0"/><path d="M190.196,361.351c-3.843-1.814-6.669,4.156-2.819,5.973,3.843,1.814,6.669-4.156,2.819-5.973Z" fill="#fff" stroke-width="0"/><path d="M211.116,349.435l-33.062,11.352s-24.208-29.483-33.036-36.294l-.02-.011c-.58-.45-1.109-.802-1.579-1.056l-.015-.002c-.512-.179-1.358-.227-2.504-.153l-.015-.002c-10.024.634-42.42,9.982-65.493,12.756l7.997-16.215,3.543-7.191c25.139-7.711,54.703-24.081,70.254-19.594,16.89,4.874,53.929,56.41,53.929,56.41Z" fill="#0788a5" stroke-width="0"/><path d="M205.091,344.86c-5.5,1.775-3.945,1.192-9.426,3.025-2.682.897-16.175,5.374-18.537,6.627-.052.028-.022.116.037.106,2.634-.469,16.025-5.236,18.691-6.181,5.447-1.933,3.863-1.434,9.288-3.425.102-.037.051-.184-.052-.151Z" fill="#1a2e35" stroke-width="0"/><path d="M176.977,354.061c-4.919-5.575-27.766-33.356-31.393-33.943-3.301-.534-64.981,12.282-65.896,12.459-.066.013-.052.115.014.102,7.312-1.458,63.872-12.197,65.605-11.859,3.603.703,30.718,32.817,31.358,33.473.171.175.48-.041.312-.232Z" fill="#1a2e35" stroke-width="0"/><path d="M63.339,318.336s-1.161,19.061,8.879,28.078c12.015,10.791,82.671,4.175,94.288-.148,11.617-4.323,11.155-23.354-1.919-27.197-12.434-3.655-61.617-3.25-62.926-3.707-1.309-.457-5.338-6.305-5.338-6.305l-32.985,9.279Z" fill="#0788a5" stroke-width="0"/><path d="M79.406,317.098c-.019-.09-.159-.055-.154.032.115,2.396-.663,4.956-2.157,6.841-1.713,2.162-4.323,3.445-6.681,4.77-.227.127-.035.483.202.4,1.45-.505,2.871-1.21,4.178-2.02,1.19-.738,2.28-1.647,3.086-2.802,1.486-2.129,2.066-4.671,1.527-7.22Z" fill="#1a2e35" stroke-width="0"/><path d="M101.092,314.201c-.568-.663-1.183-1.292-1.773-1.935-1.396-1.522-2.799-3.05-4.257-4.513-.138-.138-.387.077-.259.23.991,1.184,2.034,2.327,3.062,3.479.527.59,1.055,1.179,1.587,1.765.497.547,1.106,1.085,1.485,1.723.393.663-.059,1.265-.76,1.371-.627.095-1.223-.201-1.722-.55-1.135-.793-2.052-1.96-3.01-2.948-.587-.605-1.173-1.208-1.768-1.805-.632-.634-1.303-1.233-1.934-1.866-.041-.041-.113.022-.076.067.558.698,1.076,1.431,1.635,2.131.558.699,1.124,1.391,1.698,2.077.544.649,1.105,1.283,1.682,1.904.489.527,1.042,1.038,1.682,1.378,1.034.549,2.79.6,3.269-.725.237-.655-.123-1.293-.541-1.781Z" fill="#1a2e35" stroke-width="0"/><path d="M164.898,346.407c-4.054.253-8.098.666-12.152.93-4.021.262-8.046.46-12.072.598-8.088.277-10.928.762-19.019.557-8.175-.207-17.001-.635-25.146-1.403-3.897-.367-7.844-.643-11.708-1.299-3.487-.592-6.682-1.89-9.378-4.285-5.466-4.856-7.831-12.245-8.981-19.352-.154-.954-.288-1.91-.408-2.869-.008-.065-.107-.059-.099.007.794,7.305,2.266,14.892,7.131,20.58,2.105,2.461,4.732,4.437,7.759,5.5,3.689,1.294,7.729,1.459,11.58,1.811,8.177.748,17.04,1.213,25.243,1.49,8.255.279,11.265-.125,19.521-.363,8.255-.239,16.507-.716,24.731-1.481,1.004-.093,2.005-.197,3.006-.328.057-.007.052-.096-.006-.092Z" fill="#1a2e35" stroke-width="0"/><path d="M174.955,328.203c-.915-3.183-2.969-5.794-5.773-7.534-3.007-1.866-6.54-2.621-10.02-2.973-3.937-.398-7.911-.515-11.861-.726-8.106-.431-10.96-.362-19.072-.673-8.106-.312-25.563-.902-26.543-.898-.085,0-.097.146-.01.151,7.835.526,14.962.96,22.806,1.328,7.882.37,10.509.334,18.388.767,3.926.216,7.851.436,11.776.669,3.637.216,7.378.422,10.835,1.672,2.966,1.072,5.67,2.888,7.279,5.657,1.555,2.676,2.001,5.935,1.558,8.97-.411,2.819-1.608,5.6-3.436,7.792-1.802,2.159-4.134,3.855-6.877,4.573-.707.185-1.565.333-2.217.493-.049.012-.096.12-.045.119,5.846-.107,11.062-4.608,12.938-10.034,1.034-2.99,1.148-6.308.273-9.353Z" fill="#1a2e35" stroke-width="0"/><path d="M97.414,234.151s-6.553-3.971-13.823,1.963c-8.643,7.055-7.199,32.671-7.828,34.926-.629,2.256-1.634,2.754-2.063,4.78-.429,2.026,1.201,3.435,1.371,4.17.17.735-2.038,4.375-2.038,4.375,0,0,11.081,3.468,18.184,2.413,7.103-1.055,15.23-5.524,15.23-5.524,0,0-1.495-2.332-1.446-3.401.05-1.069,1.364-2.439,1.354-4.385-.009-1.945-2.847-4.446-3.096-5.503-.249-1.056,2.153-20.292.773-27.111-1.379-6.819-6.619-6.705-6.619-6.705Z" fill="#ffc800" stroke-width="0"/><path d="M97.414,234.151s-6.553-3.971-13.823,1.963c-8.643,7.055-7.199,32.671-7.828,34.926-.629,2.256-1.634,2.754-2.063,4.78-.429,2.026,1.201,3.435,1.371,4.17.17.735-2.038,4.375-2.038,4.375,0,0,11.081,3.468,18.184,2.413,7.103-1.055,15.23-5.524,15.23-5.524,0,0-1.495-2.332-1.446-3.401.05-1.069,1.364-2.439,1.354-4.385-.009-1.945-2.847-4.446-3.096-5.503-.249-1.056,2.153-20.292.773-27.111-1.379-6.819-6.619-6.705-6.619-6.705Z" fill="#000333" stroke-width="0"/><path d="M106.829,280.717c-.563-.764-1.113-1.549-1.454-2.46-.076-.227-.145-.481-.096-.743.42-1.541,1.846-2.859,1.659-4.54-.288-1.296-1.486-2.406-2.281-3.437-.447-.589-.982-1.204-1.07-1.999-.01-.282.011-.503.025-.749.633-8.008,1.597-16.098.643-24.115-.26-1.864-.636-3.763-1.605-5.403,1.09,1.577,1.546,3.498,1.902,5.356,1.269,8.019.362,16.18-.385,24.203-.017.228-.04.481-.035.674.075.639.545,1.186.928,1.717.827,1.132,2.011,2.256,2.272,3.695.165,1.798-1.308,3.074-1.861,4.634-.051.208-.006.434.058.657.288.892.796,1.718,1.301,2.508h0Z" fill="#1a2e35" stroke-width="0"/><path d="M72.525,283.334c.501-.966,1.213-2.177,1.636-3.156l.011-.034c-.051-.151-.175-.291-.268-.437-.84-1.142-1.526-2.533-1.31-3.995.188-1.717,1.44-3.118,2.074-4.609.461-1.029.437-2.107.46-3.208.174-9.411.755-25.349,8.288-31.886.857-.732,1.844-1.307,2.896-1.704-1.025.455-1.97,1.073-2.79,1.825-7.115,6.771-7.535,22.393-7.861,31.779-.021,1.132-.039,2.348-.55,3.384-.714,1.57-1.919,2.764-2.17,4.471-.18,1.08.162,2.176.696,3.119.201.371.449.708.656,1.081.029.056.061.124.055.201-.499,1.116-1.205,2.123-1.824,3.169h0Z" fill="#ffc800" stroke-width="0"/><path d="M72.525,283.334c.501-.966,1.213-2.177,1.636-3.156l.011-.034c-.051-.151-.175-.291-.268-.437-.84-1.142-1.526-2.533-1.31-3.995.188-1.717,1.44-3.118,2.074-4.609.461-1.029.437-2.107.46-3.208.174-9.411.755-25.349,8.288-31.886.857-.732,1.844-1.307,2.896-1.704-1.025.455-1.97,1.073-2.79,1.825-7.115,6.771-7.535,22.393-7.861,31.779-.021,1.132-.039,2.348-.55,3.384-.714,1.57-1.919,2.764-2.17,4.471-.18,1.08.162,2.176.696,3.119.201.371.449.708.656,1.081.029.056.061.124.055.201-.499,1.116-1.205,2.123-1.824,3.169h0Z" fill="#000333" stroke-width="0"/><path d="M87.602,271.217c4.373,13.776,12.426,30.06,15.498,32.559,3.885,3.16,28.249,7.544,29.449,7.575,2.97.056,7.135-21.627,3.962-21.823-4.831-.299-22.266.177-23.394-.806-1.171-1.029-9.253-9.668-17.641-19.49-5.79-6.788-10.588-6.563-7.874,1.985Z" fill="#ff9581" stroke-width="0"/><path d="M130.091,310.402c.365.149,5.553,2.247,8.706,2.888,2.353.478,9.163,1.673,9.946-.865.537-1.73-3.385-2.904-6.14-3.796-1.451-.47-3.301-1.797-2.961-2.733.594-1.636,4.337-.348,6.825.838,4.813,2.294,11.326,6.598,13.942,4.038.987-.968-.375-2.472-2.306-3.897,3.074,1.594,6.316,2.843,7.456,1.811.655-.588.627-1.319.171-2.12.927.219,1.72.097,2.228-.537.869-1.073.286-2.503-.877-3.923.331-.062.616-.256.817-.638,1.762-3.233-9.033-11.22-12.585-11.76-10.45-1.598-21.214-.261-21.214-.261-3.763,3.547-4.017,20.948-4.008,20.955Z" fill="#ff9581" stroke-width="0"/><path d="M144.392,299.733c2.445.18,4.895.889,7.052,2.072,2.739,1.502,4.627,3.369,6.973,5.212.062.048-.012.146-.074.097-1.118-.876-5.718-4.137-6.897-4.867-2.161-1.338-4.525-2.208-7.06-2.473-.027-.003-.022-.044.006-.042Z" fill="#1a2e35" stroke-width="0"/><path d="M145.946,295.227c2.754.516,5.576,1.035,8.18,2.105,2.85,1.171,5.178,3.269,7.462,5.284,1.372,1.21,2.719,2.449,4.034,3.721.055.053-.014.15-.074.097-2.321-2.085-4.705-4.103-7.149-6.043-2.3-1.825-4.807-3.16-7.629-3.978-1.59-.461-3.212-.8-4.831-1.137-.03-.006-.025-.054.006-.048Z" fill="#1a2e35" stroke-width="0"/><path d="M148.513,291.188c2.661.323,4.983.596,7.415,1.809,3.22,1.606,6.439,4.492,7.569,5.516,1.248,1.131,2.457,2.303,3.649,3.494.049.048-.035.134-.085.086-2.713-2.594-5.606-5.032-8.632-7.254-1.446-1.062-2.997-1.963-4.702-2.538-1.686-.568-3.464-.823-5.216-1.095-.011-.002-.009-.02.002-.018Z" fill="#1a2e35" stroke-width="0"/><path d="M132.378,288.715l-5.432,23.83s-20.317-4.043-24.265-7.659c-3.948-3.616-12.297-23.272-15.068-32.903-2.771-9.631,2.201-9.794,7.256-3.992,5.056,5.802,17.61,19.838,18.27,20.111.66.273,19.24.613,19.24.613Z" fill="#ffc800" stroke-width="0"/><path d="M132.378,288.715l-5.432,23.83s-20.317-4.043-24.265-7.659c-3.948-3.616-12.297-23.272-15.068-32.903-2.771-9.631,2.201-9.794,7.256-3.992,5.056,5.802,17.61,19.838,18.27,20.111.66.273,19.24.613,19.24.613Z" fill="#caf6ff" stroke-width="0"/><path d="M124.196,302.381c.664-2.811,1.351-5.619,1.91-8.455.318-1.612.645-3.222.948-4.837.011-.061-.091-.089-.108-.028-.778,2.795-1.552,5.601-2.202,8.432-.647,2.816-1.317,5.628-1.928,8.453-.347,1.606-.645,3.217-.894,4.844-.005.032.047.047.057.015.872-2.772,1.548-5.592,2.217-8.423Z" fill="#1a2e35" stroke-width="0"/><path d="M127.361,316.367c-.372-.078-7.125-2.178-7.497-2.257-2.097-.456-4.241-.96-6.267-1.498-.262-.066-.519-.136-.772-.207-.407-.11-.815-.224-1.21-.34-.202-.055-.395-.116-.592-.172-.071-.022-.141-.041-.211-.063-.207-.064-.41-.128-.612-.192-.81-.252-1.58-.509-2.301-.777-.166-.06-.337-.124-.499-.188-1.317-.507-2.425-1.033-3.221-1.567-.094-.065-.188-.129-.274-.195-.094-.065-.175-.131-.251-.194-5.014-4.172-16.3-27.609-20.223-39.17-.044-.134-.089-.269-.133-.399-.008-.031-.016-.057-.025-.087-.277-.881-.564-1.978-.836-3.172l-.002-.013c-1.098-5.863,1.572-7.189,5.362-5.041l39.564,55.532Z" fill="#000" opacity=".1" stroke-width="0"/><path d="M62.361,319.349l41.973-13.017-2.451-13.972s3.573-2.532,2.105-7.517c-1.608-5.463-12.154-18.972-13.115-19.647-3.861-2.703-8.323-2.312-11.514,1.032-5.266,5.517-10.231,32.281-10.231,32.281-5.02,10.823-6.768,20.84-6.768,20.84Z" fill="#ffc800" stroke-width="0"/><path d="M62.361,319.349l41.973-13.017-2.451-13.972s3.573-2.532,2.105-7.517c-1.608-5.463-12.154-18.972-13.115-19.647-3.861-2.703-8.323-2.312-11.514,1.032-5.266,5.517-10.231,32.281-10.231,32.281-5.02,10.823-6.768,20.84-6.768,20.84Z" fill="#caf6ff" stroke-width="0"/><path d="M94.632,292.081c-1.898.477-3.793,1.021-5.602,1.775-.9.375-1.776.789-2.649,1.224-.435.217-.874.418-1.317.618-.454.205-.945.405-1.438.493-.044.008-.033.074.011.069.484-.056.947-.112,1.42-.232.45-.114.89-.278,1.32-.453.917-.371,1.815-.786,2.728-1.167,1.841-.769,3.682-1.537,5.574-2.171.087-.029.043-.179-.047-.156Z" fill="#1a2e35" stroke-width="0"/><path d="M99.657,293.105c-1.608.067-3.237.213-4.828.463-.8.125-1.587.296-2.373.489-.375.092-.749.191-1.122.294-.41.113-.805.283-1.216.39-.043.011-.033.079.011.069.391-.09.798-.115,1.194-.182.397-.067.794-.137,1.191-.205.796-.135,1.592-.261,2.387-.404,1.591-.285,3.177-.554,4.776-.783.087-.012.062-.135-.021-.131Z" fill="#1a2e35" stroke-width="0"/><path d="M73.701,276.058c-7.749,3.584-24.73,20.425-19.243,25.445,5.526,5.056,34.015,3.951,43.108,3.193,2.705-.225-1.689-10.188-4.79-11.176-2.581-.823-19.878-.668-20.23-1.27-.397-.679,1.978-4.451,5.655-11.424,4.24-8.041-1.077-6.351-4.5-4.768Z" fill="#ff9581" stroke-width="0"/><path d="M104.731,291.675c-.033,0,5.133.904,9.009-1.029,2.399-1.196,4.192-.178,2.562,2.084-2.666,3.699-8.209,4.716-10.232,4.515l-1.339-5.57Z" fill="#ff9581" stroke-width="0"/><path d="M92.466,293.826s4.819-1.721,9.113-2.035c2.969-.217,9.481.031,14.543,7.334,1.2,1.732,1.683,5.052-1.306,2.935-2.123-1.504-3.014-3.099-4.408-3.749,0,0,.112,4.295-1.67,5.43-.797.507-3.003,1.841-4.869,2.634,0,0-.282-.36-.574-.867,0,0-1.765.903-4.679.131l-6.149-11.814Z" fill="#ff9581" stroke-width="0"/><path d="M104.445,292.036c1.247.938,3.857,2.969,5.414,5.373,1.73,2.671,4.341,8.281,2.357,9.538-1.455.921-2.641-1.133-2.641-1.133,0,0,.591,2.547-.906,3.091-1.364.496-2.186-1.148-2.186-1.148,0,0,.093,1.606-1.313,1.831-1.691.271-1.608-3.14-3.557-4.346-.438-.271,2.832-13.207,2.832-13.207Z" fill="#ff9581" stroke-width="0"/><path d="M106.492,299.558c.977,1.021,2.602,3.909,2.732,6.643.003.062-.042.097-.057.041-.782-2.98-2.081-5.593-2.698-6.669-.008-.014.013-.027.024-.016Z" fill="#1a2e35" stroke-width="0"/><path d="M103.978,301.292c.753.967,2.295,4.019,2.33,6.794,0,.062-.047.094-.059.038-.688-3.147-1.743-5.707-2.296-6.818-.007-.015.015-.027.025-.014Z" fill="#1a2e35" stroke-width="0"/><path d="M111.137,298.443c1.085.585,1.725,1.367,2.566,2.314.416.468.84.93,1.301,1.34.42.373,1.037.934,1.613.554.321-.212.394-.681.393-1.061,0-.427-.226-1.251-.38-1.631-.008-.019.022-.037.03-.018.144.339.413,1.096.467,1.473.049.342.066.733-.069,1.064-.292.712-1.056.685-1.552.394-.297-.174-.565-.42-.821-.661-.248-.233-.486-.48-.718-.734-.476-.521-.924-1.075-1.394-1.603-.517-.58-.89-.884-1.461-1.39-.019-.017.003-.054.025-.042Z" fill="#1a2e35" stroke-width="0"/><path d="M112.766,303.561c-.171-.814-1.257-4.266-1.658-5.09-.01-.021.016-.042.028-.022.733,1.139,1.739,4.01,1.935,4.909.194.888.4,2.017.247,2.946-.232,1.401-1.073,1.535-1.379,1.555-.365.024-.707-.121-.991-.365-.317-.271-.584-.767-.759-1.169-.009-.021.017-.044.028-.022.325.621.927,1.28,1.597,1.288.291.003.603-.099.821-.344.257-.288.343-.709.379-1.097.081-.879-.072-1.752-.248-2.588Z" fill="#1a2e35" stroke-width="0"/><path d="M86.05,289.824l6.666,23.204s-41.486,2.365-43.785-5.168c-2.299-7.534,17.745-32.214,26.058-38.992,9.634-7.855,10.153-4.555,7.016,3.301-3.284,8.225-8.939,19.97-8.939,19.97l12.985-2.315Z" fill="#ffc800" stroke-width="0"/><path d="M86.05,289.824l6.666,23.204s-41.486,2.365-43.785-5.168c-2.299-7.534,17.745-32.214,26.058-38.992,9.634-7.855,10.153-4.555,7.016,3.301-3.284,8.225-8.939,19.97-8.939,19.97l12.985-2.315Z" fill="#caf6ff" stroke-width="0"/><path d="M59.96,295.855c2.061-.989,4.219-1.78,6.4-2.461,2.16-.674,4.383-1.113,6.616-1.463,1.276-.2,2.557-.337,3.839-.483.039-.005.044.055.006.061-2.247.316-4.476.83-6.67,1.402-2.185.57-4.357,1.178-6.52,1.828-1.223.368-2.429.793-3.639,1.202-.057.019-.084-.061-.032-.086Z" fill="#1a2e35" stroke-width="0"/><path d="M85.953,289.744c-.21.019-11.746,1.821-12.133,1.929.073-.157,2.998-5.649,3.432-6.452.043-.08.083-.161.125-.242.262-.347.526-.692.775-1.049.319-.458.634-.918.949-1.378.01-.014-.011-.03-.021-.017-.336.444-.673.887-1.006,1.333-.154.206-.302.417-.448.629.292-.57.577-1.142.862-1.718.454-.917.878-1.846,1.3-2.779.014-.03-.031-.048-.047-.02-.861,1.601-1.772,3.173-2.638,4.77-.864,1.595-4.149,7.468-4.131,7.466.017.019,12.751-2.258,13-2.317.097-.023.083-.166-.02-.156Z" fill="#1a2e35" stroke-width="0"/><path d="M84.369,303.899c-.728-2.587-1.437-5.181-2.261-7.742-.468-1.455-.929-2.913-1.411-4.363-.018-.055-.114-.031-.101.026.628,2.626,1.264,5.258,2.013,7.854.744,2.583,1.467,5.174,2.246,7.748.443,1.464.927,2.909,1.458,4.345.011.028.059.017.053-.014-.541-2.649-1.263-5.249-1.997-7.854Z" fill="#1a2e35" stroke-width="0"/><path d="M93.176,313.451c-.291-.728-.639-1.767-.96-2.483-.085-.189-.222-.175-.161.018.205.652.346,1.37.545,2.037-.58.019-1.16.025-1.741.05-.671.029-1.342.06-2.013.087-1.314.052-2.628.09-3.943.114-2.663.05-5.326.043-7.988-.02-5.337-.126-10.682-.448-15.978-1.127-1.481-.19-2.96-.408-4.43-.673-1.493-.268-3.105-.567-4.316-.929-.039-.011-.058.054-.019.069,1.24.476,2.407.837,3.703,1.117,1.323.286,2.654.536,3.992.742,2.664.41,5.349.677,8.037.872,5.329.386,10.678.541,16.02.484,1.497-.016,2.994-.05,4.49-.101.755-.026,1.51-.052,2.265-.092.755-.04,2.548-.043,2.498-.167Z" fill="#1a2e35" stroke-width="0"/><rect x="100.051" y="315.396" width="48.99" height="2.194" fill="#263238" stroke-width="0"/><polygon points="149.041 315.396 149.041 317.59 115.74 317.59 117.419 315.396 149.041 315.396" fill="#000" opacity=".1" stroke-width="0"/><polygon points="119.532 317.591 167.278 317.591 171.253 285.164 123.507 285.164 119.532 317.591" fill="#263238" stroke-width="0"/><path d="M142.486,301.377c-.028,1.605,1.25,2.906,2.855,2.906s2.929-1.301,2.957-2.906c.028-1.605-1.25-2.906-2.855-2.906s-2.929,1.301-2.957,2.906Z" fill="#fff" stroke-width="0"/><path d="M83.7,264.863c-.03.842,2.35,7.009,6.012,7.821,1.193.262,2.919-6.195,2.919-6.195l.236-.448,3.302-6.268-6.462-7.153-.95-.973s-.791,1.774-1.753,3.994c-.045.103-.091.205-.137.316-.058.124-.114.241-.162.359-.148.329-.298.667-.44,1.006-.109.258-.217.508-.322.782-.112.273-.215.54-.328.813-1.048,2.714-1.898,5.589-1.916,5.945Z" fill="#ff9581" stroke-width="0"/><path d="M87.005,255.642c.467,5.828,4.116,9.143,5.863,10.4l3.302-6.268-6.462-7.153-.95-.973s-.791,1.774-1.753,3.994Z" fill="#1a2e35" stroke-width="0"/><path d="M108.276,251.699c-1.623,12.326-9.181,12.752-11.836,12.401-2.41-.318-10.576-1.708-10.234-14.135.342-12.427,6.58-15.574,12.131-15.137,5.551.436,11.562,4.545,9.94,16.871Z" fill="#ff9581" stroke-width="0"/><path d="M105.537,250.005c-.278-.089-.52-.218-.785-.335-.3-.132-.552-.206-.735-.494-.098-.155-.036-.417.105-.526.329-.255.736-.185,1.103-.041.399.156.666.379.876.751.204.361-.197.764-.564.646Z" fill="#1a2e35" stroke-width="0"/><path d="M97.058,248.406c.291.023.563-.004.853-.011.327-.008.589.02.868-.177.15-.105.192-.372.103-.526-.207-.361-.61-.452-1.004-.458-.428-.007-.76.096-1.096.36-.326.256-.108.781.275.812Z" fill="#1a2e35" stroke-width="0"/><path d="M98.39,251.761c0-.033-.072.028-.077.062-.118.833-.393,1.768-1.19,1.913-.025.005-.03.046-.001.048.937.03,1.29-1.214,1.268-2.022Z" fill="#1a2e35" stroke-width="0"/><path d="M97.8,250.767c-1.315-.333-1.884,2.323-.666,2.631,1.199.303,1.768-2.352.666-2.631Z" fill="#1a2e35" stroke-width="0"/><path d="M97.249,250.795c-.264.101-.548.317-.834.285-.331-.037-.515-.368-.669-.68-.016-.033-.044-.014-.052.021-.117.507-.033,1.071.496,1.264.483.176.937-.198,1.173-.682.044-.09-.009-.247-.115-.207Z" fill="#1a2e35" stroke-width="0"/><path d="M103.307,252.574c.013-.03.056.053.047.087-.209.815-.31,1.784.372,2.222.021.014.01.054-.017.044-.878-.329-.73-1.614-.402-2.353Z" fill="#1a2e35" stroke-width="0"/><path d="M104.231,251.88c1.343.193.858,2.865-.387,2.686-1.225-.176-.739-2.848.387-2.686Z" fill="#1a2e35" stroke-width="0"/><path d="M104.756,252.157c.185.18.347.475.597.538.289.072.557-.178.794-.421.025-.025.042,0,.036.036-.079.513-.344,1.015-.853,1.023-.464.008-.713-.49-.742-1.021-.006-.098.093-.229.167-.156Z" fill="#1a2e35" stroke-width="0"/><path d="M97.521,258.514c.145.242.27.555.559.657.277.098.642.057.928.025.028-.003.047.031.024.051-.293.257-.789.336-1.149.171-.351-.161-.45-.527-.451-.888,0-.051.066-.052.088-.016Z" fill="#1a2e35" stroke-width="0"/><path d="M100.984,257.813s-.681.695-1.506.867c-.304.064-.622.062-.936-.07-.647-.269-.579-.888-.383-1.398.16-.42.412-.766.412-.766,0,0,.854,1.053,2.413,1.368Z" fill="#1a2e35" stroke-width="0"/><path d="M99.478,258.68c-.304.064-.622.062-.936-.07-.647-.269-.579-.888-.383-1.398.71.173,1.355.76,1.32,1.469Z" fill="#ff9cbf" stroke-width="0"/><path d="M101.571,256.23s-.079,1.266-.196,1.847c-.011.054-.157.052-.356.023-.01.001-.016.004-.023-.004-1.058-.047-2.02-.61-2.474-1.573-.029-.065.057-.11.103-.063.652.717,1.469,1.033,2.376,1.232.074-.153.062-2.173.156-2.161.323.037.905.379,1.259.565.24-2.632.057-5.282.335-7.899.012-.093.149-.094.159-.007.389,2.763.179,5.798.001,8.523-.019.34-1.127-.338-1.339-.484Z" fill="#1a2e35" stroke-width="0"/><path d="M86.728,250.968c2.098.791,3.839-4.034,3.839-4.034,0,0,9.593.642,12.171-6.678,0,0,1.477,5.28,5.788,8.601,0,0,2.01-9.43-5.566-12.855,0,0-6.575-4.258-12.998.909-6.584,5.296-4.642,13.526-3.233,14.057Z" fill="#ffc800" stroke-width="0"/><path d="M86.728,250.968c2.098.791,3.839-4.034,3.839-4.034,0,0,9.593.642,12.171-6.678,0,0,1.477,5.28,5.788,8.601,0,0,2.01-9.43-5.566-12.855,0,0-6.575-4.258-12.998.909-6.584,5.296-4.642,13.526-3.233,14.057Z" fill="#000333" stroke-width="0"/><path d="M102.902,239.71c-.15,1.175-.599,2.31-1.231,3.328-.632,1.018-1.465,1.932-2.465,2.615-.236.191-.516.314-.771.474l-.392.226c-.136.064-.276.122-.415.179-.28.112-.555.236-.837.336-.288.083-.579.158-.87.231-.145.035-.289.078-.435.107l-.444.06-.885.117c-.594.022-1.188.013-1.775-.004.585-.105,1.169-.148,1.742-.257l.852-.189.424-.093c.139-.041.274-.093.411-.139.273-.096.545-.189.82-.275.266-.108.523-.238.784-.356l.391-.179.368-.221c.24-.155.504-.275.724-.458.954-.635,1.746-1.483,2.432-2.405.341-.465.638-.963.9-1.481.272-.515.491-1.058.673-1.619Z" fill="#ffc800" stroke-width="0"/><path d="M102.902,239.71c-.15,1.175-.599,2.31-1.231,3.328-.632,1.018-1.465,1.932-2.465,2.615-.236.191-.516.314-.771.474l-.392.226c-.136.064-.276.122-.415.179-.28.112-.555.236-.837.336-.288.083-.579.158-.87.231-.145.035-.289.078-.435.107l-.444.06-.885.117c-.594.022-1.188.013-1.775-.004.585-.105,1.169-.148,1.742-.257l.852-.189.424-.093c.139-.041.274-.093.411-.139.273-.096.545-.189.82-.275.266-.108.523-.238.784-.356l.391-.179.368-.221c.24-.155.504-.275.724-.458.954-.635,1.746-1.483,2.432-2.405.341-.465.638-.963.9-1.481.272-.515.491-1.058.673-1.619Z" fill="#000333" stroke-width="0"/><path d="M88.293,251.174s-1.81-4.373-3.736-3.806c-1.926.566-1.149,6.498.702,7.694,1.851,1.195,2.992-.498,2.992-.498l.043-3.389Z" fill="#ff9581" stroke-width="0"/><path d="M84.821,249.063c-.032-.01-.048.034-.022.052,1.287.885,1.742,2.361,1.963,3.837-.305-.616-.814-1.03-1.626-.683-.043.018-.02.084.022.084.607.003,1.002.196,1.291.746.204.39.302.847.417,1.271.038.141.281.124.265-.033-.001-.011-.003-.024-.004-.035.434-1.797-.409-4.631-2.305-5.239Z" fill="#1a2e35" stroke-width="0"/></svg>